999
Inkscape export via OpenSCAD DXF Export
  0
SECTION
  2
HEADER
  9
$ACADVER
  1
AC1014
  9
$HANDSEED
  5
FFFF
  9
$MEASUREMENT
 70
     1
  0
ENDSEC
  0
SECTION
  2
TABLES
  0
TABLE
  2
VPORT
  5
8
330
0
100
AcDbSymbolTable
 70
     4
  0
VPORT
  5
2E
330
8
100
AcDbSymbolTableRecord
100
AcDbViewportTableRecord
  2
*ACTIVE
 70
     0
 10
0.0
 20
0.0
 11
1.0
 21
1.0
 12
210.0
 22
148.5
 13
0.0
 23
0.0
 14
10.0
 24
10.0
 15
10.0
 25
10.0
 16
0.0
 26
0.0
 36
1.0
 17
0.0
 27
0.0
 37
0.0
 40
341.0
 41
1.24
 42
50.0
 43
0.0
 44
0.0
 50
0.0
 51
0.0
 71
     0
 72
   100
 73
     1
 74
     3
 75
     0
 76
     0
 77
     0
 78
     0
  0
ENDTAB
  0
TABLE
  2
LTYPE
  5
5
330
0
100
AcDbSymbolTable
 70
     1
  0
LTYPE
  5
14
330
5
100
AcDbSymbolTableRecord
100
AcDbLinetypeTableRecord
  2
BYBLOCK
 70
     0
  3

 72
    65
 73
     0
 40
0.0
  0
LTYPE
  5
15
330
5
100
AcDbSymbolTableRecord
100
AcDbLinetypeTableRecord
  2
BYLAYER
 70
     0
  3

 72
    65
 73
     0
 40
0.0
  0
LTYPE
  5
16
330
5
100
AcDbSymbolTableRecord
100
AcDbLinetypeTableRecord
  2
CONTINUOUS
 70
     0
  3
Solid line
 72
    65
 73
     0
 40
0.0
  0
ENDTAB
  0
TABLE
0
TABLE
2
LAYER
5
2
330
0
100
AcDbSymbolTable
70
1
0
LAYER
5
10
330
2
100
AcDbSymbolTableRecord
100
AcDbLayerTableRecord
2
Main
70
0
62
7
6
CONTINUOUS
0
ENDTAB
0
ENDSEC
  0
ENDTAB
  0
TABLE
  2
STYLE
  5
3
330
0
100
AcDbSymbolTable
 70
     1
  0
STYLE
  5
11
330
3
100
AcDbSymbolTableRecord
100
AcDbTextStyleTableRecord
  2
STANDARD
 70
     0
 40
0.0
 41
1.0
 50
0.0
 71
     0
 42
2.5
  3
txt
  4

  0
ENDTAB
  0
TABLE
  2
VIEW
  5
6
330
0
100
AcDbSymbolTable
 70
     0
  0
ENDTAB
  0
TABLE
  2
UCS
  5
7
330
0
100
AcDbSymbolTable
 70
     0
  0
ENDTAB
  0
TABLE
  2
APPID
  5
9
330
0
100
AcDbSymbolTable
 70
     2
  0
APPID
  5
12
330
9
100
AcDbSymbolTableRecord
100
AcDbRegAppTableRecord
  2
ACAD
 70
     0
  0
ENDTAB
  0
TABLE
  2
DIMSTYLE
  5
A
330
0
100
AcDbSymbolTable
 70
     1
  0
DIMSTYLE
105
27
330
A
100
AcDbSymbolTableRecord
100
AcDbDimStyleTableRecord
  2
ISO-25
 70
     0
  3

  4

  5

  6

  7

 40
1.0
 41
2.5
 42
0.625
 43
3.75
 44
1.25
 45
0.0
 46
0.0
 47
0.0
 48
0.0
140
2.5
141
2.5
142
0.0
143
0.03937007874016
144
1.0
145
0.0
146
1.0
147
0.625
 71
     0
 72
     0
 73
     0
 74
     0
 75
     0
 76
     0
 77
     1
 78
     8
170
     0
171
     3
172
     1
173
     0
174
     0
175
     0
176
     0
177
     0
178
     0
270
     2
271
     2
272
     2
273
     2
274
     3
340
11
275
     0
280
     0
281
     0
282
     0
283
     0
284
     8
285
     0
286
     0
287
     3
288
     0
  0
ENDTAB
  0
TABLE
  2
BLOCK_RECORD
  5
1
330
0
100
AcDbSymbolTable
 70
     1
  0
BLOCK_RECORD
  5
1F
330
1
100
AcDbSymbolTableRecord
100
AcDbBlockTableRecord
  2
*MODEL_SPACE
  0
BLOCK_RECORD
  5
1B
330
1
100
AcDbSymbolTableRecord
100
AcDbBlockTableRecord
  2
*PAPER_SPACE
  0
ENDTAB
  0
ENDSEC
  0
SECTION
  2
BLOCKS
  0
BLOCK
  5
20
330
1F
100
AcDbEntity
  8
0
100
AcDbBlockBegin
  2
*MODEL_SPACE
 70
     0
 10
0.0
 20
0.0
 30
0.0
  3
*MODEL_SPACE
  1

  0
ENDBLK
  5
21
330
1F
100
AcDbEntity
  8
0
100
AcDbBlockEnd
  0
BLOCK
  5
1C
330
1B
100
AcDbEntity
 67
     1
  8
0
100
AcDbBlockBegin
  2
*PAPER_SPACE
  1

  0
ENDBLK
  5
1D
330
1B
100
AcDbEntity
 67
     1
  8
0
100
AcDbBlockEnd
  0
ENDSEC
  0
SECTION
  2
ENTITIES
0
DIMENSION
5
83
100
AcDbEntity
62
256
370
-1
6
ByLayer
1
total_width
3
Standard
70
0
71
5
72
1
41
1.0
100
AcDbAlignedDimension
13
89.012101
23
0.000000
33
0.0
14
184.261704
24
0.000000
34
0.0
50
0.000000
100
AcDbRotatedDimension
0
DIMENSION
5
83
100
AcDbEntity
62
256
370
-1
6
ByLayer
1
total_minx
3
Standard
70
0
71
5
72
1
41
1.0
100
AcDbAlignedDimension
13
89.012101
23
0.000000
33
0.0
14
0.000000
24
0.000000
34
0.0
50
0.000000
100
AcDbRotatedDimension
0
DIMENSION
5
83
100
AcDbEntity
62
256
370
-1
6
ByLayer
1
total_maxx
3
Standard
70
0
71
5
72
1
41
1.0
100
AcDbAlignedDimension
13
0.000000
23
0.000000
33
0.0
14
184.261704
24
0.000000
34
0.0
50
0.000000
100
AcDbRotatedDimension
0
DIMENSION
5
83
100
AcDbEntity
62
256
370
-1
6
ByLayer
1
total_height
3
Standard
70
0
71
5
72
1
41
1.0
100
AcDbAlignedDimension
13
0.000000
23
-223.304937
33
0.0
14
0.000000
24
-153.981448
34
0.0
50
90.000000
100
AcDbRotatedDimension
0
DIMENSION
5
83
100
AcDbEntity
62
256
370
-1
6
ByLayer
1
total_miny
3
Standard
70
0
71
5
72
1
41
1.0
100
AcDbAlignedDimension
13
-223.304937
23
0.000000
33
0.0
14
0.000000
24
0.000000
34
0.0
50
0.000000
100
AcDbRotatedDimension
0
DIMENSION
5
83
100
AcDbEntity
62
256
370
-1
6
ByLayer
1
total_maxy
3
Standard
70
0
71
5
72
1
41
1.0
100
AcDbAlignedDimension
13
0.000000
23
0.000000
33
0.0
14
-153.981448
24
0.000000
34
0.0
50
0.000000
100
AcDbRotatedDimension
0
DIMENSION
8
Main
5
83
100
AcDbEntity
62
256
370
-1
6
ByLayer
1
Main_width
3
Standard
70
0
71
5
72
1
41
1.0
100
AcDbAlignedDimension
13
89.012101
23
0.000000
33
0.0
14
184.261704
24
0.000000
34
0.0
50
0.000000
100
AcDbRotatedDimension
0
DIMENSION
8
Main
5
83
100
AcDbEntity
62
256
370
-1
6
ByLayer
1
Main_minx
3
Standard
70
0
71
5
72
1
41
1.0
100
AcDbAlignedDimension
13
89.012101
23
0.000000
33
0.0
14
0.000000
24
0.000000
34
0.0
50
0.000000
100
AcDbRotatedDimension
0
DIMENSION
8
Main
5
83
100
AcDbEntity
62
256
370
-1
6
ByLayer
1
Main_maxx
3
Standard
70
0
71
5
72
1
41
1.0
100
AcDbAlignedDimension
13
0.000000
23
0.000000
33
0.0
14
184.261704
24
0.000000
34
0.0
50
0.000000
100
AcDbRotatedDimension
0
DIMENSION
8
Main
5
83
100
AcDbEntity
62
256
370
-1
6
ByLayer
1
Main_height
3
Standard
70
0
71
5
72
1
41
1.0
100
AcDbAlignedDimension
13
0.000000
23
-223.304937
33
0.0
14
0.000000
24
-153.981448
34
0.0
50
90.000000
100
AcDbRotatedDimension
0
DIMENSION
8
Main
5
83
100
AcDbEntity
62
256
370
-1
6
ByLayer
1
Main_miny
3
Standard
70
0
71
5
72
1
41
1.0
100
AcDbAlignedDimension
13
-223.304937
23
0.000000
33
0.0
14
0.000000
24
0.000000
34
0.0
50
0.000000
100
AcDbRotatedDimension
0
DIMENSION
8
Main
5
83
100
AcDbEntity
62
256
370
-1
6
ByLayer
1
Main_maxy
3
Standard
70
0
71
5
72
1
41
1.0
100
AcDbAlignedDimension
13
0.000000
23
0.000000
33
0.0
14
-153.981448
24
0.000000
34
0.0
50
0.000000
100
AcDbRotatedDimension
62
0
0
LWPOLYLINE
100
AcDbPolyline
8
Main
90
14
70
0
10
102.844120
20
-158.757093
30
0.0
10
102.844120
20
-166.491439
30
0.0
10
100.371563
20
-163.721794
30
0.0
10
98.314248
20
-163.029721
30
0.0
10
98.333834
20
-183.245691
30
0.0
10
100.825972
20
-187.281324
30
0.0
10
91.212563
20
-187.281324
30
0.0
10
93.902536
20
-183.047858
30
0.0
10
93.843794
20
-162.989882
30
0.0
10
91.905314
20
-163.681956
30
0.0
10
89.274757
20
-166.312513
30
0.0
10
89.274757
20
-158.716580
30
0.0
10
102.844126
20
-158.757093
30
0.0
10
102.844120
20
-158.757093
30
0.0
62
0
0
LWPOLYLINE
100
AcDbPolyline
8
Main
90
26
70
0
10
107.314585
20
-158.954926
30
0.0
10
107.314585
20
-168.410338
30
0.0
10
107.354424
20
-169.478496
30
0.0
10
108.165330
20
-169.280663
30
0.0
10
110.756725
20
-169.280663
30
0.0
10
111.390057
20
-169.359660
30
0.0
10
112.042967
20
-169.715489
30
0.0
10
112.221219
20
-170.051734
30
0.0
10
112.478470
20
-170.566234
30
0.0
10
112.478470
20
-186.410999
30
0.0
10
112.913970
20
-186.846499
30
0.0
10
112.913970
20
-187.340741
30
0.0
10
108.601507
20
-187.340741
30
0.0
10
108.601507
20
-174.008371
30
0.0
10
108.284840
20
-173.276462
30
0.0
10
107.671763
20
-173.236623
30
0.0
10
107.315937
20
-174.008371
30
0.0
10
107.315937
20
-186.489996
30
0.0
10
107.751437
20
-186.905241
30
0.0
10
107.769866
20
-187.277475
30
0.0
10
107.735703
20
-187.298416
30
0.0
10
107.683105
20
-187.306516
30
0.0
10
107.316575
20
-187.340952
30
0.0
10
103.439612
20
-187.340952
30
0.0
10
103.439612
20
-161.111030
30
0.0
10
107.314585
20
-158.954926
30
0.0
62
0
0
LWPOLYLINE
100
AcDbPolyline
8
Main
90
23
70
0
10
120.785379
20
-169.102412
30
0.0
10
122.110782
20
-170.468331
30
0.0
10
122.110782
20
-177.750296
30
0.0
10
121.202648
20
-178.661806
30
0.0
10
120.294513
20
-179.136467
30
0.0
10
119.385701
20
-179.591548
30
0.0
10
117.110973
20
-181.866276
30
0.0
10
117.105582
20
-182.319999
30
0.0
10
117.570117
20
-182.773056
30
0.0
10
118.015069
20
-183.226110
30
0.0
10
119.834716
20
-183.226110
30
0.0
10
121.654364
20
-181.406468
30
0.0
10
122.109444
20
-181.406468
30
0.0
10
122.109444
20
-185.500838
30
0.0
10
121.990609
20
-186.015335
30
0.0
10
121.654364
20
-186.410999
30
0.0
10
120.744203
20
-187.321160
30
0.0
10
113.901787
20
-187.321160
30
0.0
10
112.991626
20
-186.410999
30
0.0
10
112.991626
20
-170.466979
30
0.0
10
114.811274
20
-169.102412
30
0.0
10
120.785390
20
-169.102412
30
0.0
10
120.785379
20
-169.102412
30
0.0
62
0
0
LWPOLYLINE
100
AcDbPolyline
8
Main
90
7
70
0
10
117.106246
20
-173.196787
30
0.0
10
117.106246
20
-175.926596
30
0.0
10
117.561329
20
-175.926596
30
0.0
10
118.016409
20
-175.471515
30
0.0
10
118.016409
20
-173.196787
30
0.0
10
117.106246
20
-173.196787
30
0.0
10
117.106246
20
-173.196787
30
0.0
62
0
0
LWPOLYLINE
100
AcDbPolyline
8
Main
90
20
70
0
10
89.012101
20
-223.138849
30
0.0
10
89.012101
20
-221.643297
30
0.0
10
89.914160
20
-220.741230
30
0.0
10
89.914160
20
-190.856476
30
0.0
10
89.083673
20
-190.001679
30
0.0
10
89.083673
20
-188.648592
30
0.0
10
123.956089
20
-188.648592
30
0.0
10
120.502471
20
-193.301353
30
0.0
10
96.940226
20
-193.301353
30
0.0
10
96.940226
20
-203.816820
30
0.0
10
104.132397
20
-203.816820
30
0.0
10
106.078982
20
-205.787036
30
0.0
10
106.078982
20
-207.685686
30
0.0
10
104.037872
20
-209.751101
30
0.0
10
96.678928
20
-209.751101
30
0.0
10
96.678928
20
-218.462455
30
0.0
10
107.075568
20
-218.462455
30
0.0
10
104.958837
20
-223.138849
30
0.0
10
89.012101
20
-223.138849
30
0.0
10
89.012101
20
-223.138849
30
0.0
62
0
0
LWPOLYLINE
100
AcDbPolyline
8
Main
90
29
70
0
10
119.174175
20
-200.588314
30
0.0
10
115.328731
20
-200.613291
30
0.0
10
112.514544
20
-207.239976
30
0.0
10
111.958044
20
-206.024089
30
0.0
10
109.062088
20
-200.683172
30
0.0
10
108.706034
20
-200.849338
30
0.0
10
105.952504
20
-203.745311
30
0.0
10
106.759578
20
-204.220040
30
0.0
10
106.878264
20
-204.742303
30
0.0
10
110.380831
20
-212.265645
30
0.0
10
105.905032
20
-222.807661
30
0.0
10
105.216652
20
-223.139978
30
0.0
10
109.418154
20
-223.163684
30
0.0
10
109.655523
20
-222.592664
30
0.0
10
110.082793
20
-221.571979
30
0.0
10
110.320164
20
-221.097253
30
0.0
10
110.747440
20
-220.100247
30
0.0
10
111.198451
20
-219.079562
30
0.0
10
111.388347
20
-218.581073
30
0.0
10
111.839350
20
-217.560388
30
0.0
10
112.052989
20
-217.061871
30
0.0
10
112.325968
20
-216.443409
30
0.0
10
115.233786
20
-222.687604
30
0.0
10
114.711565
20
-223.161031
30
0.0
10
119.791345
20
-223.115114
30
0.0
10
114.463641
20
-211.491792
30
0.0
10
114.497939
20
-211.412657
30
0.0
10
119.174184
20
-200.588432
30
0.0
10
119.174175
20
-200.588314
30
0.0
62
0
0
LWPOLYLINE
100
AcDbPolyline
8
Main
90
19
70
0
10
124.443577
20
-188.685727
30
0.0
10
124.443577
20
-193.491080
30
0.0
10
124.728509
20
-193.942110
30
0.0
10
124.728509
20
-195.983221
30
0.0
10
124.443577
20
-196.553084
30
0.0
10
124.443577
20
-201.680505
30
0.0
10
125.939132
20
-202.701399
30
0.0
10
125.939132
20
-206.784300
30
0.0
10
124.443577
20
-207.828829
30
0.0
10
124.443577
20
-221.643946
30
0.0
10
124.965502
20
-222.165888
30
0.0
10
124.965502
20
-223.186770
30
0.0
10
120.360680
20
-223.186770
30
0.0
10
119.838755
20
-222.165888
30
0.0
10
119.838755
20
-198.095902
30
0.0
10
118.817864
20
-197.075008
30
0.0
10
118.841486
20
-196.434251
30
0.0
10
124.443569
20
-188.685727
30
0.0
10
124.443577
20
-188.685727
30
0.0
62
0
0
LWPOLYLINE
100
AcDbPolyline
8
Main
90
22
70
0
10
131.137448
20
-200.873649
30
0.0
10
131.683681
20
-201.941807
30
0.0
10
132.205606
20
-202.463731
30
0.0
10
133.297394
20
-201.395574
30
0.0
10
135.956308
20
-201.395574
30
0.0
10
135.956308
20
-208.872657
30
0.0
10
134.888151
20
-207.282591
30
0.0
10
134.341918
20
-206.736350
30
0.0
10
133.298068
20
-206.736350
30
0.0
10
132.206280
20
-207.804502
30
0.0
10
132.206280
20
-220.646685
30
0.0
10
132.752513
20
-221.714840
30
0.0
10
134.342595
20
-223.304937
30
0.0
10
126.342899
20
-223.304937
30
0.0
10
126.342899
20
-221.714840
30
0.0
10
126.864824
20
-221.168627
30
0.0
10
126.864824
20
-205.146276
30
0.0
10
126.342899
20
-204.600044
30
0.0
10
126.342899
20
-203.531889
30
0.0
10
129.974766
20
-200.872975
30
0.0
10
131.137448
20
-200.872975
30
0.0
10
131.137448
20
-200.873649
30
0.0
62
0
0
LWPOLYLINE
100
AcDbPolyline
8
Main
90
29
70
0
10
149.699878
20
-199.140426
30
0.0
10
149.699878
20
-220.622386
30
0.0
10
150.127276
20
-221.026161
30
0.0
10
150.531040
20
-221.429909
30
0.0
10
150.531040
20
-223.091577
30
0.0
10
145.569717
20
-223.091577
30
0.0
10
144.739227
20
-222.687801
30
0.0
10
144.739227
20
-221.857334
30
0.0
10
144.335463
20
-222.261081
30
0.0
10
143.931696
20
-222.688479
30
0.0
10
143.101207
20
-223.092254
30
0.0
10
139.801535
20
-223.092254
30
0.0
10
138.567281
20
-222.688479
30
0.0
10
138.139884
20
-222.261081
30
0.0
10
137.736117
20
-221.430586
30
0.0
10
137.736117
20
-204.101752
30
0.0
10
136.905630
20
-203.271262
30
0.0
10
137.309394
20
-202.867498
30
0.0
10
143.101207
20
-199.971591
30
0.0
10
143.101207
20
-217.299756
30
0.0
10
143.504974
20
-217.727153
30
0.0
10
143.932371
20
-217.727153
30
0.0
10
144.336138
20
-217.299756
30
0.0
10
144.336138
20
-203.674355
30
0.0
10
143.932371
20
-203.270588
30
0.0
10
143.504974
20
-202.866821
30
0.0
10
144.335463
20
-202.036334
30
0.0
10
149.699878
20
-199.140426
30
0.0
10
149.699878
20
-199.140426
30
0.0
62
0
0
LWPOLYLINE
100
AcDbPolyline
8
Main
90
26
70
0
10
162.328708
20
-188.150298
30
0.0
10
162.281444
20
-223.281315
30
0.0
10
158.127646
20
-223.281315
30
0.0
10
158.127646
20
-222.759373
30
0.0
10
156.584828
20
-222.759373
30
0.0
10
155.042009
20
-223.281315
30
0.0
10
152.952961
20
-223.281315
30
0.0
10
152.335834
20
-223.043627
30
0.0
10
151.956375
20
-222.711451
30
0.0
10
151.743015
20
-222.402870
30
0.0
10
151.410820
20
-221.714191
30
0.0
10
151.410820
20
-203.579153
30
0.0
10
151.529652
20
-202.534626
30
0.0
10
152.004313
20
-201.917499
30
0.0
10
152.763906
20
-201.513735
30
0.0
10
157.108104
20
-201.490113
30
0.0
10
157.630029
20
-200.968188
30
0.0
10
157.630029
20
-197.336321
30
0.0
10
157.108104
20
-196.315427
30
0.0
10
156.063577
20
-195.270903
30
0.0
10
155.303985
20
-195.223639
30
0.0
10
155.541653
20
-195.270903
30
0.0
10
155.303985
20
-195.223639
30
0.0
10
154.780036
20
-194.701714
30
0.0
10
162.328708
20
-188.150309
30
0.0
10
162.328708
20
-188.150298
30
0.0
62
0
0
LWPOLYLINE
100
AcDbPolyline
8
Main
90
8
70
0
10
156.061554
20
-217.062096
30
0.0
10
156.583479
20
-217.584010
30
0.0
10
157.105404
20
-217.584010
30
0.0
10
157.627328
20
-217.109369
30
0.0
10
157.627328
20
-206.689106
30
0.0
10
156.060877
20
-206.689106
30
0.0
10
156.060877
20
-217.062096
30
0.0
10
156.061554
20
-217.062096
30
0.0
62
0
0
LWPOLYLINE
100
AcDbPolyline
8
Main
90
23
70
0
10
172.369517
20
-201.324680
30
0.0
10
173.959596
20
-202.964049
30
0.0
10
173.959596
20
-211.703091
30
0.0
10
172.869835
20
-212.795545
30
0.0
10
171.780070
20
-213.365409
30
0.0
10
170.690309
20
-213.912327
30
0.0
10
167.960500
20
-216.642121
30
0.0
10
167.954432
20
-217.185653
30
0.0
10
168.512143
20
-217.730540
30
0.0
10
169.046220
20
-218.274071
30
0.0
10
171.229796
20
-218.274071
30
0.0
10
173.413375
20
-216.090490
30
0.0
10
173.959605
20
-216.090490
30
0.0
10
173.959605
20
-221.003866
30
0.0
10
173.817139
20
-221.621001
30
0.0
10
173.413375
20
-222.095671
30
0.0
10
172.321584
20
-223.187447
30
0.0
10
164.108528
20
-223.187447
30
0.0
10
163.016740
20
-222.095671
30
0.0
10
163.016740
20
-202.962026
30
0.0
10
165.200316
20
-201.324005
30
0.0
10
172.369525
20
-201.324005
30
0.0
10
172.369517
20
-201.324680
30
0.0
62
0
0
LWPOLYLINE
100
AcDbPolyline
8
Main
90
7
70
0
10
167.954424
20
-206.238058
30
0.0
10
167.954424
20
-209.514091
30
0.0
10
168.500656
20
-209.514091
30
0.0
10
169.046886
20
-208.967878
30
0.0
10
169.046886
20
-206.238058
30
0.0
10
167.954424
20
-206.238058
30
0.0
10
167.954424
20
-206.238058
30
0.0
62
0
0
LWPOLYLINE
100
AcDbPolyline
8
Main
90
22
70
0
10
179.442847
20
-200.873649
30
0.0
10
179.989076
20
-201.941807
30
0.0
10
180.511001
20
-202.463731
30
0.0
10
181.602792
20
-201.395574
30
0.0
10
184.261704
20
-201.395574
30
0.0
10
184.261704
20
-208.872657
30
0.0
10
183.193546
20
-207.282591
30
0.0
10
182.647316
20
-206.736350
30
0.0
10
181.602792
20
-206.736350
30
0.0
10
180.511001
20
-207.804502
30
0.0
10
180.511001
20
-220.646685
30
0.0
10
181.057234
20
-221.714840
30
0.0
10
182.647316
20
-223.304937
30
0.0
10
174.647620
20
-223.304937
30
0.0
10
174.647620
20
-221.714840
30
0.0
10
175.169545
20
-221.168627
30
0.0
10
175.169545
20
-205.146276
30
0.0
10
174.647620
20
-204.600044
30
0.0
10
174.647620
20
-203.531889
30
0.0
10
178.279487
20
-200.872975
30
0.0
10
179.442847
20
-200.872975
30
0.0
10
179.442847
20
-200.873649
30
0.0
62
0
0
LWPOLYLINE
100
AcDbPolyline
8
Main
90
1
70
0
10
141.137744
20
-177.782029
30
0.0
62
0
0
LWPOLYLINE
100
AcDbPolyline
8
Main
90
1
70
0
10
141.062123
20
-183.913457
30
0.0
62
0
0
LWPOLYLINE
100
AcDbPolyline
8
Main
90
1
70
0
10
147.477139
20
-189.427766
30
0.0
62
0
0
LWPOLYLINE
100
AcDbPolyline
8
Main
90
1
70
0
10
148.152333
20
-161.294472
30
0.0
62
0
0
LWPOLYLINE
100
AcDbPolyline
8
Main
90
38
70
0
10
133.138291
20
-174.565675
30
0.0
10
132.664405
20
-174.770430
30
0.0
10
132.473644
20
-175.250121
30
0.0
10
132.650819
20
-175.843793
30
0.0
10
133.044664
20
-176.262912
30
0.0
10
134.099653
20
-176.803539
30
0.0
10
135.573322
20
-177.230683
30
0.0
10
137.461111
20
-177.588247
30
0.0
10
142.315192
20
-178.101732
30
0.0
10
148.228609
20
-178.288491
30
0.0
10
154.141181
20
-178.101732
30
0.0
10
158.994783
20
-177.588247
30
0.0
10
160.882556
20
-177.230683
30
0.0
10
162.356255
20
-176.803539
30
0.0
10
163.411247
20
-176.262912
30
0.0
10
163.805084
20
-175.843793
30
0.0
10
163.982259
20
-175.250121
30
0.0
10
163.895010
20
-174.908476
30
0.0
10
163.647444
20
-174.657390
30
0.0
10
163.307065
20
-174.565327
30
0.0
10
162.966686
20
-174.657390
30
0.0
10
162.719120
20
-174.908476
30
0.0
10
162.631871
20
-175.250121
30
0.0
10
162.653077
20
-175.140147
30
0.0
10
162.589670
20
-175.190702
30
0.0
10
161.888105
20
-175.537482
30
0.0
10
158.786426
20
-176.253593
30
0.0
10
154.054502
20
-176.753068
30
0.0
10
148.228609
20
-176.937970
30
0.0
10
142.401865
20
-176.753068
30
0.0
10
137.669476
20
-176.253593
30
0.0
10
134.567806
20
-175.537482
30
0.0
10
133.866232
20
-175.190702
30
0.0
10
133.802825
20
-175.140072
30
0.0
10
133.824032
20
-175.250121
30
0.0
10
133.625864
20
-174.762921
30
0.0
10
133.138291
20
-174.565675
30
0.0
10
133.138291
20
-174.565675
30
0.0
62
0
0
LWPOLYLINE
100
AcDbPolyline
8
Main
90
38
70
0
10
133.138291
20
-172.202499
30
0.0
10
132.664406
20
-172.407252
30
0.0
10
132.473644
20
-172.886941
30
0.0
10
132.650819
20
-173.480613
30
0.0
10
133.044664
20
-173.899732
30
0.0
10
134.099653
20
-174.440360
30
0.0
10
135.573322
20
-174.867495
30
0.0
10
137.461111
20
-175.225003
30
0.0
10
142.315192
20
-175.738547
30
0.0
10
148.228609
20
-175.925315
30
0.0
10
154.141181
20
-175.738547
30
0.0
10
158.994783
20
-175.225003
30
0.0
10
160.882556
20
-174.867495
30
0.0
10
162.356255
20
-174.440360
30
0.0
10
163.411247
20
-173.899732
30
0.0
10
163.805084
20
-173.480613
30
0.0
10
163.982259
20
-172.886941
30
0.0
10
163.895010
20
-172.545297
30
0.0
10
163.647444
20
-172.294211
30
0.0
10
163.307065
20
-172.202148
30
0.0
10
162.966686
20
-172.294211
30
0.0
10
162.719120
20
-172.545297
30
0.0
10
162.631871
20
-172.886941
30
0.0
10
162.653077
20
-172.776969
30
0.0
10
162.589670
20
-172.827525
30
0.0
10
161.888105
20
-173.174303
30
0.0
10
158.786426
20
-173.890413
30
0.0
10
154.054502
20
-174.389889
30
0.0
10
148.228609
20
-174.574791
30
0.0
10
142.401865
20
-174.389889
30
0.0
10
137.669476
20
-173.890413
30
0.0
10
134.567806
20
-173.174303
30
0.0
10
133.866232
20
-172.827525
30
0.0
10
133.802825
20
-172.776894
30
0.0
10
133.824032
20
-172.886941
30
0.0
10
133.625863
20
-172.399744
30
0.0
10
133.138291
20
-172.202499
30
0.0
10
133.138291
20
-172.202499
30
0.0
62
0
0
LWPOLYLINE
100
AcDbPolyline
8
Main
90
38
70
0
10
133.138291
20
-169.839319
30
0.0
10
132.664406
20
-170.044073
30
0.0
10
132.473644
20
-170.523762
30
0.0
10
132.650819
20
-171.117436
30
0.0
10
133.044664
20
-171.536553
30
0.0
10
134.099653
20
-172.077181
30
0.0
10
135.573348
20
-172.504317
30
0.0
10
137.461111
20
-172.861823
30
0.0
10
142.314720
20
-173.375368
30
0.0
10
148.227294
20
-173.562135
30
0.0
10
154.140398
20
-173.375368
30
0.0
10
158.994783
20
-172.861823
30
0.0
10
160.882576
20
-172.504317
30
0.0
10
162.356255
20
-172.077181
30
0.0
10
163.411247
20
-171.536553
30
0.0
10
163.805099
20
-171.117462
30
0.0
10
163.982259
20
-170.523762
30
0.0
10
163.895010
20
-170.182118
30
0.0
10
163.647444
20
-169.931032
30
0.0
10
163.307065
20
-169.838968
30
0.0
10
162.966686
20
-169.931032
30
0.0
10
162.719120
20
-170.182118
30
0.0
10
162.631871
20
-170.523762
30
0.0
10
162.653090
20
-170.413740
30
0.0
10
162.589670
20
-170.464346
30
0.0
10
161.886781
20
-170.811126
30
0.0
10
158.785103
20
-171.527237
30
0.0
10
154.053057
20
-172.026711
30
0.0
10
148.227294
20
-172.211612
30
0.0
10
142.401397
20
-172.026711
30
0.0
10
137.669476
20
-171.527237
30
0.0
10
134.567806
20
-170.811126
30
0.0
10
133.866232
20
-170.464346
30
0.0
10
133.802827
20
-170.413715
30
0.0
10
133.824032
20
-170.523762
30
0.0
10
133.625863
20
-170.036564
30
0.0
10
133.138291
20
-169.839319
30
0.0
10
133.138291
20
-169.839319
30
0.0
62
0
0
LWPOLYLINE
100
AcDbPolyline
8
Main
90
38
70
0
10
133.138291
20
-167.476140
30
0.0
10
132.664405
20
-167.680895
30
0.0
10
132.473644
20
-168.160585
30
0.0
10
132.650819
20
-168.754258
30
0.0
10
133.044664
20
-169.173377
30
0.0
10
134.099653
20
-169.714004
30
0.0
10
135.573348
20
-170.141140
30
0.0
10
137.461111
20
-170.498647
30
0.0
10
142.314720
20
-171.012189
30
0.0
10
148.227294
20
-171.198956
30
0.0
10
154.140398
20
-171.012189
30
0.0
10
158.994783
20
-170.498647
30
0.0
10
160.882576
20
-170.141140
30
0.0
10
162.356255
20
-169.714004
30
0.0
10
163.411247
20
-169.173377
30
0.0
10
163.805099
20
-168.754283
30
0.0
10
163.982259
20
-168.160585
30
0.0
10
163.895010
20
-167.818941
30
0.0
10
163.647444
20
-167.567855
30
0.0
10
163.307065
20
-167.475792
30
0.0
10
162.966686
20
-167.567855
30
0.0
10
162.719120
20
-167.818941
30
0.0
10
162.631871
20
-168.160585
30
0.0
10
162.653090
20
-168.050563
30
0.0
10
162.589670
20
-168.101169
30
0.0
10
161.886781
20
-168.447947
30
0.0
10
158.785103
20
-169.164058
30
0.0
10
154.053057
20
-169.663533
30
0.0
10
148.227294
20
-169.848435
30
0.0
10
142.401397
20
-169.663533
30
0.0
10
137.669476
20
-169.164058
30
0.0
10
134.567806
20
-168.447947
30
0.0
10
133.866232
20
-168.101169
30
0.0
10
133.802827
20
-168.050537
30
0.0
10
133.824032
20
-168.160585
30
0.0
10
133.625864
20
-167.673386
30
0.0
10
133.138291
20
-167.476140
30
0.0
10
133.138291
20
-167.476140
30
0.0
62
0
0
LWPOLYLINE
100
AcDbPolyline
8
Main
90
38
70
0
10
133.138291
20
-165.112964
30
0.0
10
132.664406
20
-165.317717
30
0.0
10
132.473644
20
-165.797406
30
0.0
10
132.650819
20
-166.391079
30
0.0
10
133.044664
20
-166.810197
30
0.0
10
134.099653
20
-167.350825
30
0.0
10
135.573348
20
-167.777961
30
0.0
10
137.461111
20
-168.135468
30
0.0
10
142.314720
20
-168.649012
30
0.0
10
148.227294
20
-168.835780
30
0.0
10
154.140398
20
-168.649012
30
0.0
10
158.994783
20
-168.135468
30
0.0
10
160.882576
20
-167.777961
30
0.0
10
162.356255
20
-167.350825
30
0.0
10
163.411247
20
-166.810197
30
0.0
10
163.805099
20
-166.391105
30
0.0
10
163.982259
20
-165.797406
30
0.0
10
163.895010
20
-165.455762
30
0.0
10
163.647444
20
-165.204676
30
0.0
10
163.307065
20
-165.112613
30
0.0
10
162.966686
20
-165.204676
30
0.0
10
162.719120
20
-165.455762
30
0.0
10
162.631871
20
-165.797406
30
0.0
10
162.653090
20
-165.687384
30
0.0
10
162.589670
20
-165.737990
30
0.0
10
161.886781
20
-166.084770
30
0.0
10
158.785103
20
-166.800878
30
0.0
10
154.053057
20
-167.300354
30
0.0
10
148.227294
20
-167.485256
30
0.0
10
142.401397
20
-167.300354
30
0.0
10
137.669476
20
-166.800878
30
0.0
10
134.567806
20
-166.084770
30
0.0
10
133.866232
20
-165.737990
30
0.0
10
133.802827
20
-165.687359
30
0.0
10
133.824032
20
-165.797406
30
0.0
10
133.625863
20
-165.310209
30
0.0
10
133.138291
20
-165.112964
30
0.0
10
133.138291
20
-165.112964
30
0.0
62
0
0
LWPOLYLINE
100
AcDbPolyline
8
Main
90
38
70
0
10
133.138291
20
-162.749784
30
0.0
10
132.664405
20
-162.954539
30
0.0
10
132.473644
20
-163.434230
30
0.0
10
132.650819
20
-164.027901
30
0.0
10
133.044664
20
-164.447018
30
0.0
10
134.099653
20
-164.987646
30
0.0
10
135.573348
20
-165.414783
30
0.0
10
137.461111
20
-165.772288
30
0.0
10
142.314720
20
-166.285833
30
0.0
10
148.227294
20
-166.472600
30
0.0
10
154.140398
20
-166.285833
30
0.0
10
158.994783
20
-165.772288
30
0.0
10
160.882576
20
-165.414783
30
0.0
10
162.356255
20
-164.987646
30
0.0
10
163.411247
20
-164.447018
30
0.0
10
163.805099
20
-164.027927
30
0.0
10
163.982259
20
-163.434230
30
0.0
10
163.895010
20
-163.092585
30
0.0
10
163.647444
20
-162.841499
30
0.0
10
163.307065
20
-162.749436
30
0.0
10
162.966686
20
-162.841499
30
0.0
10
162.719120
20
-163.092585
30
0.0
10
162.631871
20
-163.434230
30
0.0
10
162.653090
20
-163.324205
30
0.0
10
162.589670
20
-163.374811
30
0.0
10
161.886781
20
-163.721591
30
0.0
10
158.785103
20
-164.437702
30
0.0
10
154.053057
20
-164.937176
30
0.0
10
148.227294
20
-165.122077
30
0.0
10
142.401397
20
-164.937176
30
0.0
10
137.669476
20
-164.437702
30
0.0
10
134.567806
20
-163.721591
30
0.0
10
133.866232
20
-163.374811
30
0.0
10
133.802827
20
-163.324180
30
0.0
10
133.824032
20
-163.434230
30
0.0
10
133.625864
20
-162.947030
30
0.0
10
133.138291
20
-162.749784
30
0.0
10
133.138291
20
-162.749784
30
0.0
62
0
0
LWPOLYLINE
100
AcDbPolyline
8
Main
90
38
70
0
10
133.138291
20
-160.386605
30
0.0
10
132.664405
20
-160.591360
30
0.0
10
132.473644
20
-161.071050
30
0.0
10
132.650819
20
-161.664722
30
0.0
10
133.044664
20
-162.083841
30
0.0
10
134.099653
20
-162.624469
30
0.0
10
135.573322
20
-163.051604
30
0.0
10
137.461111
20
-163.409112
30
0.0
10
142.315192
20
-163.922655
30
0.0
10
148.228609
20
-164.109421
30
0.0
10
154.141181
20
-163.922655
30
0.0
10
158.994783
20
-163.409112
30
0.0
10
160.882556
20
-163.051604
30
0.0
10
162.356255
20
-162.624469
30
0.0
10
163.411247
20
-162.083841
30
0.0
10
163.805084
20
-161.664722
30
0.0
10
163.982259
20
-161.071050
30
0.0
10
163.895010
20
-160.729406
30
0.0
10
163.647444
20
-160.478320
30
0.0
10
163.307065
20
-160.386257
30
0.0
10
162.966686
20
-160.478320
30
0.0
10
162.719120
20
-160.729406
30
0.0
10
162.631871
20
-161.071050
30
0.0
10
162.653077
20
-160.961078
30
0.0
10
162.589670
20
-161.011634
30
0.0
10
161.888105
20
-161.358412
30
0.0
10
158.786426
20
-162.074523
30
0.0
10
154.054502
20
-162.573998
30
0.0
10
148.228609
20
-162.758900
30
0.0
10
142.401865
20
-162.573998
30
0.0
10
137.669476
20
-162.074523
30
0.0
10
134.567806
20
-161.358412
30
0.0
10
133.866232
20
-161.011634
30
0.0
10
133.802825
20
-160.961002
30
0.0
10
133.824032
20
-161.071050
30
0.0
10
133.625864
20
-160.583851
30
0.0
10
133.138291
20
-160.386605
30
0.0
10
133.138291
20
-160.386605
30
0.0
62
0
0
LWPOLYLINE
100
AcDbPolyline
8
Main
90
38
70
0
10
133.138291
20
-158.023429
30
0.0
10
132.664406
20
-158.228182
30
0.0
10
132.473644
20
-158.707871
30
0.0
10
132.650819
20
-159.301544
30
0.0
10
133.044664
20
-159.720662
30
0.0
10
134.099653
20
-160.261290
30
0.0
10
135.573322
20
-160.688426
30
0.0
10
137.461111
20
-161.045933
30
0.0
10
142.315192
20
-161.559477
30
0.0
10
148.228609
20
-161.746244
30
0.0
10
154.141181
20
-161.559477
30
0.0
10
158.994783
20
-161.045933
30
0.0
10
160.882556
20
-160.688426
30
0.0
10
162.356255
20
-160.261290
30
0.0
10
163.411247
20
-159.720662
30
0.0
10
163.805084
20
-159.301544
30
0.0
10
163.982259
20
-158.707871
30
0.0
10
163.895010
20
-158.366227
30
0.0
10
163.647444
20
-158.115141
30
0.0
10
163.307065
20
-158.023078
30
0.0
10
162.966686
20
-158.115141
30
0.0
10
162.719120
20
-158.366227
30
0.0
10
162.631871
20
-158.707871
30
0.0
10
162.653077
20
-158.597900
30
0.0
10
162.589670
20
-158.648455
30
0.0
10
161.888105
20
-158.995235
30
0.0
10
158.786426
20
-159.711346
30
0.0
10
154.054502
20
-160.210820
30
0.0
10
148.228609
20
-160.395721
30
0.0
10
142.401865
20
-160.210820
30
0.0
10
137.669476
20
-159.711346
30
0.0
10
134.567806
20
-158.995235
30
0.0
10
133.866232
20
-158.648455
30
0.0
10
133.802825
20
-158.597824
30
0.0
10
133.824032
20
-158.707871
30
0.0
10
133.625863
20
-158.220674
30
0.0
10
133.138291
20
-158.023429
30
0.0
10
133.138291
20
-158.023429
30
0.0
62
255
0
LWPOLYLINE
100
AcDbPolyline
8
Main
90
26
70
0
10
163.307065
20
-156.344627
30
0.0
10
163.000709
20
-156.820890
30
0.0
10
162.122070
20
-157.264482
30
0.0
10
160.731785
20
-157.665902
30
0.0
10
158.890491
20
-158.015645
30
0.0
10
154.097421
20
-158.522093
30
0.0
10
148.227954
20
-158.707803
30
0.0
10
142.358490
20
-158.522093
30
0.0
10
137.565423
20
-158.015645
30
0.0
10
135.724130
20
-157.665901
30
0.0
10
134.333846
20
-157.264482
30
0.0
10
133.455208
20
-156.820889
30
0.0
10
133.148852
20
-156.344627
30
0.0
10
133.441269
20
-155.881441
30
0.0
10
134.296678
20
-155.440277
30
0.0
10
135.682316
20
-155.033534
30
0.0
10
137.565416
20
-154.673607
30
0.0
10
142.457430
20
-154.161334
30
0.0
10
148.227954
20
-153.981448
30
0.0
10
153.998481
20
-154.161334
30
0.0
10
158.890497
20
-154.673606
30
0.0
10
160.773599
20
-155.033534
30
0.0
10
162.159237
20
-155.440277
30
0.0
10
163.014648
20
-155.881440
30
0.0
10
163.307065
20
-156.344627
30
0.0
10
163.307065
20
-156.344627
30
0.0
62
0
0
LWPOLYLINE
100
AcDbPolyline
8
Main
90
40
70
0
10
139.793960
20
-178.448040
30
0.0
10
139.247423
20
-178.714938
30
0.0
10
139.137232
20
-179.313099
30
0.0
10
139.797761
20
-181.080677
30
0.0
10
140.694812
20
-182.691753
30
0.0
10
142.033179
20
-184.255781
30
0.0
10
143.925252
20
-185.619542
30
0.0
10
145.777802
20
-186.543987
30
0.0
10
147.912114
20
-187.277004
30
0.0
10
148.262896
20
-187.349518
30
0.0
10
148.270798
20
-187.349518
30
0.0
10
148.583340
20
-187.255868
30
0.0
10
148.584751
20
-187.255868
30
0.0
10
150.612479
20
-186.410518
30
0.0
10
152.377492
20
-185.435381
30
0.0
10
154.186755
20
-184.088265
30
0.0
10
155.584281
20
-182.535626
30
0.0
10
156.554763
20
-180.999965
30
0.0
10
157.304252
20
-179.357930
30
0.0
10
157.333108
20
-179.008089
30
0.0
10
157.182455
20
-178.691033
30
0.0
10
156.893003
20
-178.492440
30
0.0
10
156.542973
20
-178.465979
30
0.0
10
156.226955
20
-178.618799
30
0.0
10
156.030349
20
-178.909603
30
0.0
10
155.338911
20
-180.388175
30
0.0
10
154.481019
20
-181.746509
30
0.0
10
153.287374
20
-183.082092
30
0.0
10
151.708390
20
-184.254450
30
0.0
10
150.123453
20
-185.134182
30
0.0
10
148.203638
20
-185.952947
30
0.0
10
146.211089
20
-185.246230
30
0.0
10
144.563780
20
-184.420857
30
0.0
10
142.932644
20
-183.250889
30
0.0
10
141.842068
20
-181.953094
30
0.0
10
141.062252
20
-180.545309
30
0.0
10
140.437593
20
-178.953085
30
0.0
10
140.200683
20
-178.592791
30
0.0
10
139.794045
20
-178.449324
30
0.0
10
139.793960
20
-178.448040
30
0.0
62
0
0
LWPOLYLINE
100
AcDbPolyline
8
Main
90
14
70
0
10
148.049265
20
-188.363661
30
0.0
10
147.655465
20
-188.533549
30
0.0
10
147.496713
20
-188.931969
30
0.0
10
147.496713
20
-198.031287
30
0.0
10
147.562723
20
-198.322818
30
0.0
10
147.769064
20
-198.539083
30
0.0
10
148.057174
20
-198.618704
30
0.0
10
148.345285
20
-198.539083
30
0.0
10
148.551626
20
-198.322818
30
0.0
10
148.617635
20
-198.031287
30
0.0
10
148.617635
20
-188.931969
30
0.0
10
148.453324
20
-188.527927
30
0.0
10
148.049265
20
-188.363661
30
0.0
10
148.049265
20
-188.363661
30
0.0
  0
ENDSEC
  0
SECTION
  2
OBJECTS
  0
DICTIONARY
  5
C
330
0
100
AcDbDictionary
  3
ACAD_GROUP
350
D
  3
ACAD_MLINESTYLE
350
17
  0
DICTIONARY
  5
D
330
C
100
AcDbDictionary
  0
DICTIONARY
  5
1A
330
C
100
AcDbDictionary
  0
DICTIONARY
  5
17
330
C
100
AcDbDictionary
  3
STANDARD
350
18
  0
DICTIONARY
  5
19
330
C
100
AcDbDictionary
  0
ENDSEC
  0
EOF
