999
Inkscape export via OpenSCAD DXF Export
  0
SECTION
  2
HEADER
  9
$ACADVER
  1
AC1014
  9
$HANDSEED
  5
FFFF
  9
$MEASUREMENT
 70
     1
  0
ENDSEC
  0
SECTION
  2
TABLES
  0
TABLE
  2
VPORT
  5
8
330
0
100
AcDbSymbolTable
 70
     4
  0
VPORT
  5
2E
330
8
100
AcDbSymbolTableRecord
100
AcDbViewportTableRecord
  2
*ACTIVE
 70
     0
 10
0.0
 20
0.0
 11
1.0
 21
1.0
 12
210.0
 22
148.5
 13
0.0
 23
0.0
 14
10.0
 24
10.0
 15
10.0
 25
10.0
 16
0.0
 26
0.0
 36
1.0
 17
0.0
 27
0.0
 37
0.0
 40
341.0
 41
1.24
 42
50.0
 43
0.0
 44
0.0
 50
0.0
 51
0.0
 71
     0
 72
   100
 73
     1
 74
     3
 75
     0
 76
     0
 77
     0
 78
     0
  0
ENDTAB
  0
TABLE
  2
LTYPE
  5
5
330
0
100
AcDbSymbolTable
 70
     1
  0
LTYPE
  5
14
330
5
100
AcDbSymbolTableRecord
100
AcDbLinetypeTableRecord
  2
BYBLOCK
 70
     0
  3

 72
    65
 73
     0
 40
0.0
  0
LTYPE
  5
15
330
5
100
AcDbSymbolTableRecord
100
AcDbLinetypeTableRecord
  2
BYLAYER
 70
     0
  3

 72
    65
 73
     0
 40
0.0
  0
LTYPE
  5
16
330
5
100
AcDbSymbolTableRecord
100
AcDbLinetypeTableRecord
  2
CONTINUOUS
 70
     0
  3
Solid line
 72
    65
 73
     0
 40
0.0
  0
ENDTAB
  0
TABLE
0
TABLE
2
LAYER
5
2
330
0
100
AcDbSymbolTable
70
1
0
LAYER
5
10
330
2
100
AcDbSymbolTableRecord
100
AcDbLayerTableRecord
2
Main
70
0
62
7
6
CONTINUOUS
0
ENDTAB
0
ENDSEC
  0
ENDTAB
  0
TABLE
  2
STYLE
  5
3
330
0
100
AcDbSymbolTable
 70
     1
  0
STYLE
  5
11
330
3
100
AcDbSymbolTableRecord
100
AcDbTextStyleTableRecord
  2
STANDARD
 70
     0
 40
0.0
 41
1.0
 50
0.0
 71
     0
 42
2.5
  3
txt
  4

  0
ENDTAB
  0
TABLE
  2
VIEW
  5
6
330
0
100
AcDbSymbolTable
 70
     0
  0
ENDTAB
  0
TABLE
  2
UCS
  5
7
330
0
100
AcDbSymbolTable
 70
     0
  0
ENDTAB
  0
TABLE
  2
APPID
  5
9
330
0
100
AcDbSymbolTable
 70
     2
  0
APPID
  5
12
330
9
100
AcDbSymbolTableRecord
100
AcDbRegAppTableRecord
  2
ACAD
 70
     0
  0
ENDTAB
  0
TABLE
  2
DIMSTYLE
  5
A
330
0
100
AcDbSymbolTable
 70
     1
  0
DIMSTYLE
105
27
330
A
100
AcDbSymbolTableRecord
100
AcDbDimStyleTableRecord
  2
ISO-25
 70
     0
  3

  4

  5

  6

  7

 40
1.0
 41
2.5
 42
0.625
 43
3.75
 44
1.25
 45
0.0
 46
0.0
 47
0.0
 48
0.0
140
2.5
141
2.5
142
0.0
143
0.03937007874016
144
1.0
145
0.0
146
1.0
147
0.625
 71
     0
 72
     0
 73
     0
 74
     0
 75
     0
 76
     0
 77
     1
 78
     8
170
     0
171
     3
172
     1
173
     0
174
     0
175
     0
176
     0
177
     0
178
     0
270
     2
271
     2
272
     2
273
     2
274
     3
340
11
275
     0
280
     0
281
     0
282
     0
283
     0
284
     8
285
     0
286
     0
287
     3
288
     0
  0
ENDTAB
  0
TABLE
  2
BLOCK_RECORD
  5
1
330
0
100
AcDbSymbolTable
 70
     1
  0
BLOCK_RECORD
  5
1F
330
1
100
AcDbSymbolTableRecord
100
AcDbBlockTableRecord
  2
*MODEL_SPACE
  0
BLOCK_RECORD
  5
1B
330
1
100
AcDbSymbolTableRecord
100
AcDbBlockTableRecord
  2
*PAPER_SPACE
  0
ENDTAB
  0
ENDSEC
  0
SECTION
  2
BLOCKS
  0
BLOCK
  5
20
330
1F
100
AcDbEntity
  8
0
100
AcDbBlockBegin
  2
*MODEL_SPACE
 70
     0
 10
0.0
 20
0.0
 30
0.0
  3
*MODEL_SPACE
  1

  0
ENDBLK
  5
21
330
1F
100
AcDbEntity
  8
0
100
AcDbBlockEnd
  0
BLOCK
  5
1C
330
1B
100
AcDbEntity
 67
     1
  8
0
100
AcDbBlockBegin
  2
*PAPER_SPACE
  1

  0
ENDBLK
  5
1D
330
1B
100
AcDbEntity
 67
     1
  8
0
100
AcDbBlockEnd
  0
ENDSEC
  0
SECTION
  2
ENTITIES
0
DIMENSION
5
83
100
AcDbEntity
62
256
370
-1
6
ByLayer
1
total_width
3
Standard
70
0
71
5
72
1
41
1.0
100
AcDbAlignedDimension
13
0.879511
23
0.000000
33
0.0
14
99.120489
24
0.000000
34
0.0
50
0.000000
100
AcDbRotatedDimension
0
DIMENSION
5
83
100
AcDbEntity
62
256
370
-1
6
ByLayer
1
total_minx
3
Standard
70
0
71
5
72
1
41
1.0
100
AcDbAlignedDimension
13
0.879511
23
0.000000
33
0.0
14
0.000000
24
0.000000
34
0.0
50
0.000000
100
AcDbRotatedDimension
0
DIMENSION
5
83
100
AcDbEntity
62
256
370
-1
6
ByLayer
1
total_maxx
3
Standard
70
0
71
5
72
1
41
1.0
100
AcDbAlignedDimension
13
0.000000
23
0.000000
33
0.0
14
99.120489
24
0.000000
34
0.0
50
0.000000
100
AcDbRotatedDimension
0
DIMENSION
5
83
100
AcDbEntity
62
256
370
-1
6
ByLayer
1
total_height
3
Standard
70
0
71
5
72
1
41
1.0
100
AcDbAlignedDimension
13
0.000000
23
-15.501821
33
0.0
14
0.000000
24
55.998129
34
0.0
50
90.000000
100
AcDbRotatedDimension
0
DIMENSION
5
83
100
AcDbEntity
62
256
370
-1
6
ByLayer
1
total_miny
3
Standard
70
0
71
5
72
1
41
1.0
100
AcDbAlignedDimension
13
-15.501821
23
0.000000
33
0.0
14
0.000000
24
0.000000
34
0.0
50
0.000000
100
AcDbRotatedDimension
0
DIMENSION
5
83
100
AcDbEntity
62
256
370
-1
6
ByLayer
1
total_maxy
3
Standard
70
0
71
5
72
1
41
1.0
100
AcDbAlignedDimension
13
0.000000
23
0.000000
33
0.0
14
55.998129
24
0.000000
34
0.0
50
0.000000
100
AcDbRotatedDimension
0
DIMENSION
8
Main
5
83
100
AcDbEntity
62
256
370
-1
6
ByLayer
1
Main_width
3
Standard
70
0
71
5
72
1
41
1.0
100
AcDbAlignedDimension
13
0.879511
23
0.000000
33
0.0
14
99.120489
24
0.000000
34
0.0
50
0.000000
100
AcDbRotatedDimension
0
DIMENSION
8
Main
5
83
100
AcDbEntity
62
256
370
-1
6
ByLayer
1
Main_minx
3
Standard
70
0
71
5
72
1
41
1.0
100
AcDbAlignedDimension
13
0.879511
23
0.000000
33
0.0
14
0.000000
24
0.000000
34
0.0
50
0.000000
100
AcDbRotatedDimension
0
DIMENSION
8
Main
5
83
100
AcDbEntity
62
256
370
-1
6
ByLayer
1
Main_maxx
3
Standard
70
0
71
5
72
1
41
1.0
100
AcDbAlignedDimension
13
0.000000
23
0.000000
33
0.0
14
99.120489
24
0.000000
34
0.0
50
0.000000
100
AcDbRotatedDimension
0
DIMENSION
8
Main
5
83
100
AcDbEntity
62
256
370
-1
6
ByLayer
1
Main_height
3
Standard
70
0
71
5
72
1
41
1.0
100
AcDbAlignedDimension
13
0.000000
23
-15.501821
33
0.0
14
0.000000
24
55.998129
34
0.0
50
90.000000
100
AcDbRotatedDimension
0
DIMENSION
8
Main
5
83
100
AcDbEntity
62
256
370
-1
6
ByLayer
1
Main_miny
3
Standard
70
0
71
5
72
1
41
1.0
100
AcDbAlignedDimension
13
-15.501821
23
0.000000
33
0.0
14
0.000000
24
0.000000
34
0.0
50
0.000000
100
AcDbRotatedDimension
0
DIMENSION
8
Main
5
83
100
AcDbEntity
62
256
370
-1
6
ByLayer
1
Main_maxy
3
Standard
70
0
71
5
72
1
41
1.0
100
AcDbAlignedDimension
13
0.000000
23
0.000000
33
0.0
14
55.998129
24
0.000000
34
0.0
50
0.000000
100
AcDbRotatedDimension
62
0
0
LWPOLYLINE
100
AcDbPolyline
8
Main
90
46
70
0
10
53.234443
20
30.763506
30
0.0
10
52.679067
20
30.471230
30
0.0
10
52.584294
20
29.850839
30
0.0
10
53.221745
20
28.152458
30
0.0
10
54.097532
20
26.531234
30
0.0
10
55.248377
20
25.078063
30
0.0
10
56.711001
20
23.883843
30
0.0
10
56.713823
20
23.882431
30
0.0
10
59.084107
20
22.581037
30
0.0
10
61.611733
20
21.665384
30
0.0
10
61.614555
20
21.663973
30
0.0
10
61.960040
20
21.581005
30
0.0
10
62.000850
20
21.583827
30
0.0
10
62.023964
20
21.585239
30
0.0
10
62.344955
20
21.696773
30
0.0
10
64.072066
20
22.412197
30
0.0
10
65.755290
20
23.276129
30
0.0
10
67.341049
20
24.330373
30
0.0
10
68.775766
20
25.616732
30
0.0
10
68.781326
20
25.622292
30
0.0
10
68.788297
20
25.629263
30
0.0
10
70.242148
20
27.610547
30
0.0
10
71.308663
20
29.806298
30
0.0
10
71.361136
20
30.172274
30
0.0
10
71.218907
20
30.513541
30
0.0
10
70.922055
20
30.733929
30
0.0
10
70.554234
20
30.771334
30
0.0
10
70.219094
20
30.615214
30
0.0
10
70.011078
20
30.309566
30
0.0
10
69.049303
20
28.330484
30
0.0
10
67.760015
20
26.570494
30
0.0
10
66.500768
20
25.444860
30
0.0
10
65.078039
20
24.499579
30
0.0
10
63.536853
20
23.704637
30
0.0
10
61.922237
20
23.030019
30
0.0
10
59.611666
20
23.873393
30
0.0
10
57.474536
20
25.048489
30
0.0
10
57.467565
20
25.054049
30
0.0
10
57.459437
20
25.059609
30
0.0
10
56.246246
20
26.055088
30
0.0
10
55.263126
20
27.302512
30
0.0
10
54.491956
20
28.729803
30
0.0
10
53.914613
20
30.264881
30
0.0
10
53.658750
20
30.629156
30
0.0
10
53.234531
20
30.764062
30
0.0
10
53.234443
20
30.763506
30
0.0
62
0
0
LWPOLYLINE
100
AcDbPolyline
8
Main
90
1
70
0
10
54.642196
20
31.450071
30
0.0
62
0
0
LWPOLYLINE
100
AcDbPolyline
8
Main
90
14
70
0
10
15.145936
20
51.073207
30
0.0
10
15.145936
20
43.095962
30
0.0
10
12.595723
20
45.952587
30
0.0
10
10.473796
20
46.666397
30
0.0
10
10.493989
20
25.815521
30
0.0
10
13.064397
20
21.653147
30
0.0
10
3.149767
20
21.653147
30
0.0
10
5.924221
20
26.019565
30
0.0
10
5.862938
20
46.707483
30
0.0
10
3.863575
20
45.993676
30
0.0
10
1.150407
20
43.280505
30
0.0
10
1.150407
20
51.113599
30
0.0
10
15.145933
20
51.073207
30
0.0
10
15.145936
20
51.073207
30
0.0
62
0
0
LWPOLYLINE
100
AcDbPolyline
8
Main
90
25
70
0
10
19.756658
20
50.868910
30
0.0
10
15.760347
20
48.645307
30
0.0
10
15.760347
20
21.591662
30
0.0
10
19.758863
20
21.591662
30
0.0
10
20.207552
20
21.629694
30
0.0
10
20.207552
20
22.040900
30
0.0
10
19.758312
20
22.469195
30
0.0
10
19.758312
20
35.342830
30
0.0
10
20.125421
20
36.138784
30
0.0
10
20.757665
20
36.097994
30
0.0
10
21.083984
20
35.342830
30
0.0
10
21.083984
20
21.591662
30
0.0
10
25.532292
20
21.591662
30
0.0
10
25.532292
20
22.101536
30
0.0
10
25.083051
20
22.550777
30
0.0
10
25.083051
20
38.893208
30
0.0
10
24.817365
20
39.424028
30
0.0
10
24.633811
20
39.770741
30
0.0
10
23.960226
20
40.137850
30
0.0
10
23.307035
20
40.218879
30
0.0
10
20.634193
20
40.218879
30
0.0
10
19.797999
20
40.014928
30
0.0
10
19.756658
20
41.116808
30
0.0
10
19.756658
20
50.868910
30
0.0
10
19.756658
20
50.868910
30
0.0
62
0
0
LWPOLYLINE
100
AcDbPolyline
8
Main
90
23
70
0
10
33.651342
20
40.402987
30
0.0
10
35.018370
20
38.994173
30
0.0
10
35.018370
20
31.483511
30
0.0
10
34.081714
20
30.543373
30
0.0
10
33.145055
20
30.053805
30
0.0
10
32.208399
20
29.584432
30
0.0
10
29.862232
20
27.238263
30
0.0
10
29.857350
20
26.770284
30
0.0
10
30.336473
20
26.303001
30
0.0
10
30.796097
20
25.835717
30
0.0
10
32.672892
20
25.835717
30
0.0
10
34.549687
20
27.712512
30
0.0
10
35.019059
20
27.712512
30
0.0
10
35.019059
20
23.489550
30
0.0
10
34.896493
20
22.958893
30
0.0
10
34.549687
20
22.550803
30
0.0
10
33.610939
20
21.612058
30
0.0
10
26.551548
20
21.612058
30
0.0
10
25.612803
20
22.550803
30
0.0
10
25.612803
20
38.994870
30
0.0
10
27.489596
20
40.402289
30
0.0
10
33.651331
20
40.402289
30
0.0
10
33.651342
20
40.402987
30
0.0
62
0
0
LWPOLYLINE
100
AcDbPolyline
8
Main
90
7
70
0
10
29.855964
20
36.179328
30
0.0
10
29.855964
20
33.363786
30
0.0
10
30.325337
20
33.363786
30
0.0
10
30.794712
20
33.833161
30
0.0
10
30.794712
20
36.179328
30
0.0
10
29.855964
20
36.179328
30
0.0
10
29.855964
20
36.179328
30
0.0
62
0
0
LWPOLYLINE
100
AcDbPolyline
8
Main
90
20
70
0
10
0.879511
20
-15.331195
30
0.0
10
0.879511
20
-13.788681
30
0.0
10
1.809898
20
-12.858299
30
0.0
10
1.809898
20
17.965716
30
0.0
10
0.953327
20
18.847356
30
0.0
10
0.953327
20
20.242936
30
0.0
10
36.920932
20
20.242936
30
0.0
10
33.358853
20
15.444055
30
0.0
10
9.056624
20
15.444055
30
0.0
10
9.056624
20
4.598339
30
0.0
10
16.474664
20
4.598339
30
0.0
10
18.482382
20
2.566249
30
0.0
10
18.482382
20
0.607974
30
0.0
10
16.377169
20
-1.522316
30
0.0
10
8.787814
20
-1.522316
30
0.0
10
8.787814
20
-10.507255
30
0.0
10
19.510963
20
-10.507255
30
0.0
10
17.327753
20
-15.330518
30
0.0
10
0.879511
20
-15.330518
30
0.0
10
0.879511
20
-15.331195
30
0.0
62
0
0
LWPOLYLINE
100
AcDbPolyline
8
Main
90
29
70
0
10
31.989039
20
7.927771
30
0.0
10
28.021393
20
7.901863
30
0.0
10
25.119795
20
1.068448
30
0.0
10
24.545980
20
2.321359
30
0.0
10
21.558945
20
7.830204
30
0.0
10
21.191835
20
7.658777
30
0.0
10
18.351974
20
4.671743
30
0.0
10
19.184309
20
4.182262
30
0.0
10
19.306679
20
3.643175
30
0.0
10
22.919344
20
-4.115181
30
0.0
10
18.301814
20
-14.989556
30
0.0
10
17.591848
20
-15.331861
30
0.0
10
21.924951
20
-15.356668
30
0.0
10
22.169691
20
-14.769073
30
0.0
10
22.611766
20
-13.715148
30
0.0
10
22.856506
20
-13.226771
30
0.0
10
23.297478
20
-12.197103
30
0.0
10
23.762703
20
-11.144281
30
0.0
10
23.958385
20
-10.629996
30
0.0
10
24.423610
20
-9.577175
30
0.0
10
24.644097
20
-9.063443
30
0.0
10
24.925768
20
-8.425135
30
0.0
10
27.924930
20
-14.865534
30
0.0
10
27.385841
20
-15.355014
30
0.0
10
32.625143
20
-15.306506
30
0.0
10
27.130629
20
-3.318127
30
0.0
10
27.165906
20
-3.236547
30
0.0
10
31.989039
20
7.927769
30
0.0
10
31.989039
20
7.927771
30
0.0
62
0
0
LWPOLYLINE
100
AcDbPolyline
8
Main
90
19
70
0
10
37.423736
20
20.204636
30
0.0
10
37.423736
20
15.248365
30
0.0
10
37.717614
20
14.783172
30
0.0
10
37.717614
20
12.677958
30
0.0
10
37.423736
20
12.090196
30
0.0
10
37.423736
20
6.801744
30
0.0
10
38.966259
20
5.748790
30
0.0
10
38.966259
20
1.537665
30
0.0
10
37.423736
20
0.460338
30
0.0
10
37.423736
20
-13.788681
30
0.0
10
37.962050
20
-14.326992
30
0.0
10
37.962050
20
-15.379963
30
0.0
10
33.212608
20
-15.379963
30
0.0
10
32.674295
20
-14.326992
30
0.0
10
32.674295
20
10.498229
30
0.0
10
31.621338
20
11.551186
30
0.0
10
31.645722
20
12.212066
30
0.0
10
37.423742
20
20.204636
30
0.0
10
37.423736
20
20.204636
30
0.0
62
0
0
LWPOLYLINE
100
AcDbPolyline
8
Main
90
22
70
0
10
44.327829
20
7.633941
30
0.0
10
44.891218
20
6.532239
30
0.0
10
45.429534
20
5.993923
30
0.0
10
46.555609
20
7.095625
30
0.0
10
49.298027
20
7.095625
30
0.0
10
49.298027
20
-0.616303
30
0.0
10
48.196325
20
1.023724
30
0.0
10
47.632936
20
1.587110
30
0.0
10
46.555609
20
1.587110
30
0.0
10
45.429534
20
0.485408
30
0.0
10
45.429534
20
-12.760105
30
0.0
10
45.992920
20
-13.861805
30
0.0
10
47.632939
20
-15.501821
30
0.0
10
39.382006
20
-15.501821
30
0.0
10
39.382006
20
-13.861805
30
0.0
10
39.920325
20
-13.298433
30
0.0
10
39.920325
20
3.227129
30
0.0
10
39.382006
20
3.790518
30
0.0
10
39.382006
20
4.892217
30
0.0
10
43.127936
20
7.634636
30
0.0
10
44.327829
20
7.634636
30
0.0
10
44.327829
20
7.633941
30
0.0
62
0
0
LWPOLYLINE
100
AcDbPolyline
8
Main
90
29
70
0
10
63.473226
20
9.420899
30
0.0
10
63.473226
20
-12.735733
30
0.0
10
63.914045
20
-13.152185
30
0.0
10
64.330493
20
-13.568632
30
0.0
10
64.330493
20
-15.282455
30
0.0
10
59.213355
20
-15.282455
30
0.0
10
58.356785
20
-14.866008
30
0.0
10
58.356785
20
-14.009435
30
0.0
10
57.940338
20
-14.425882
30
0.0
10
57.523891
20
-14.866714
30
0.0
10
56.667321
20
-15.283161
30
0.0
10
53.264020
20
-15.283161
30
0.0
10
51.991003
20
-14.866714
30
0.0
10
51.550183
20
-14.425882
30
0.0
10
51.133736
20
-13.569310
30
0.0
10
51.133736
20
4.303067
30
0.0
10
50.277166
20
5.159637
30
0.0
10
50.693614
20
5.576084
30
0.0
10
56.667321
20
8.562938
30
0.0
10
56.667321
20
-9.309448
30
0.0
10
57.083768
20
-9.750267
30
0.0
10
57.524588
20
-9.750267
30
0.0
10
57.941032
20
-9.309448
30
0.0
10
57.941032
20
4.743893
30
0.0
10
57.524588
20
5.160331
30
0.0
10
57.083768
20
5.576778
30
0.0
10
57.940338
20
6.433348
30
0.0
10
63.473226
20
9.420899
30
0.0
10
63.473226
20
9.420899
30
0.0
62
0
0
LWPOLYLINE
100
AcDbPolyline
8
Main
90
26
70
0
10
76.498667
20
20.756880
30
0.0
10
76.449919
20
-15.477437
30
0.0
10
72.165676
20
-15.477437
30
0.0
10
72.165676
20
-14.939132
30
0.0
10
70.574408
20
-14.939132
30
0.0
10
68.983135
20
-15.477437
30
0.0
10
66.828478
20
-15.477437
30
0.0
10
66.191968
20
-15.232304
30
0.0
10
65.800594
20
-14.889686
30
0.0
10
65.580528
20
-14.571424
30
0.0
10
65.237902
20
-13.861128
30
0.0
10
65.237902
20
4.843472
30
0.0
10
65.360468
20
5.920799
30
0.0
10
65.850036
20
6.557309
30
0.0
10
66.633485
20
6.973756
30
0.0
10
71.114113
20
6.998140
30
0.0
10
71.652432
20
7.536456
30
0.0
10
71.652432
20
11.282386
30
0.0
10
71.114113
20
12.335340
30
0.0
10
70.036786
20
13.412670
30
0.0
10
69.253337
20
13.461418
30
0.0
10
69.498470
20
13.412670
30
0.0
10
69.253337
20
13.461418
30
0.0
10
68.715021
20
13.999732
30
0.0
10
76.498667
20
20.756894
30
0.0
10
76.498667
20
20.756880
30
0.0
62
0
0
LWPOLYLINE
100
AcDbPolyline
8
Main
90
8
70
0
10
70.034698
20
-9.063621
30
0.0
10
70.573011
20
-9.601934
30
0.0
10
71.111330
20
-9.601934
30
0.0
10
71.649646
20
-9.112369
30
0.0
10
71.649646
20
1.635858
30
0.0
10
70.033998
20
1.635858
30
0.0
10
70.033998
20
-9.063621
30
0.0
10
70.034698
20
-9.063621
30
0.0
62
0
0
LWPOLYLINE
100
AcDbPolyline
8
Main
90
23
70
0
10
86.854815
20
7.168746
30
0.0
10
88.494836
20
5.477891
30
0.0
10
88.494836
20
-3.535604
30
0.0
10
87.370849
20
-4.662379
30
0.0
10
86.246863
20
-5.250138
30
0.0
10
85.122870
20
-5.814221
30
0.0
10
82.307331
20
-8.629763
30
0.0
10
82.301066
20
-9.190364
30
0.0
10
82.876288
20
-9.752356
30
0.0
10
83.427835
20
-10.312959
30
0.0
10
85.679991
20
-10.312959
30
0.0
10
87.932144
20
-8.060803
30
0.0
10
88.495530
20
-8.060803
30
0.0
10
88.495530
20
-13.128507
30
0.0
10
88.348591
20
-13.765003
30
0.0
10
87.932144
20
-14.254574
30
0.0
10
86.806066
20
-15.380668
30
0.0
10
78.335073
20
-15.380668
30
0.0
10
77.208998
20
-14.254574
30
0.0
10
77.208998
20
5.478588
30
0.0
10
79.461151
20
7.168057
30
0.0
10
86.854815
20
7.168057
30
0.0
10
86.854815
20
7.168746
30
0.0
62
0
0
LWPOLYLINE
100
AcDbPolyline
8
Main
90
7
70
0
10
82.301063
20
2.101051
30
0.0
10
82.301063
20
-1.277883
30
0.0
10
82.864449
20
-1.277883
30
0.0
10
83.427835
20
-0.714494
30
0.0
10
83.427835
20
2.101051
30
0.0
10
82.301063
20
2.101051
30
0.0
10
82.301063
20
2.101051
30
0.0
62
0
0
LWPOLYLINE
100
AcDbPolyline
8
Main
90
22
70
0
10
94.150290
20
7.633941
30
0.0
10
94.713679
20
6.532239
30
0.0
10
95.251992
20
5.993923
30
0.0
10
96.378070
20
7.095625
30
0.0
10
99.120489
20
7.095625
30
0.0
10
99.120489
20
-0.616303
30
0.0
10
98.018783
20
1.023724
30
0.0
10
97.455400
20
1.587110
30
0.0
10
96.378070
20
1.587110
30
0.0
10
95.251992
20
0.485408
30
0.0
10
95.251992
20
-12.760105
30
0.0
10
95.815376
20
-13.861805
30
0.0
10
97.455397
20
-15.501821
30
0.0
10
89.204464
20
-15.501821
30
0.0
10
89.204464
20
-13.861805
30
0.0
10
89.742780
20
-13.298433
30
0.0
10
89.742780
20
3.227129
30
0.0
10
89.204464
20
3.790518
30
0.0
10
89.204464
20
4.892217
30
0.0
10
92.950391
20
7.634636
30
0.0
10
94.150290
20
7.634636
30
0.0
10
94.150290
20
7.633941
30
0.0
62
0
0
LWPOLYLINE
100
AcDbPolyline
8
Main
90
1
70
0
10
54.563501
20
25.126072
30
0.0
62
0
0
LWPOLYLINE
100
AcDbPolyline
8
Main
90
1
70
0
10
61.179984
20
19.438583
30
0.0
62
0
0
LWPOLYLINE
100
AcDbPolyline
8
Main
90
1
70
0
10
61.876387
20
48.455432
30
0.0
62
0
0
LWPOLYLINE
100
AcDbPolyline
8
Main
90
40
70
0
10
46.391511
20
34.767796
30
0.0
10
45.902755
20
34.556617
30
0.0
10
45.705996
20
34.061879
30
0.0
10
45.888733
20
33.449549
30
0.0
10
46.294940
20
33.017279
30
0.0
10
47.383062
20
32.459619
30
0.0
10
48.903024
20
32.019090
30
0.0
10
50.850089
20
31.650327
30
0.0
10
55.856711
20
31.120686
30
0.0
10
61.955751
20
30.928084
30
0.0
10
68.053946
20
31.120686
30
0.0
10
73.060049
20
31.650327
30
0.0
10
75.007111
20
32.019094
30
0.0
10
76.527081
20
32.459619
30
0.0
10
77.615203
20
33.017279
30
0.0
10
78.021416
20
33.449535
30
0.0
10
78.204147
20
34.061879
30
0.0
10
78.114163
20
34.414258
30
0.0
10
77.858821
20
34.673235
30
0.0
10
77.507749
20
34.768192
30
0.0
10
77.156677
20
34.673235
30
0.0
10
76.901335
20
34.414258
30
0.0
10
76.811350
20
34.061879
30
0.0
10
76.833230
20
34.175295
30
0.0
10
76.767825
20
34.123093
30
0.0
10
76.044227
20
33.765374
30
0.0
10
74.696307
20
33.377932
30
0.0
10
72.845143
20
33.025449
30
0.0
10
67.964547
20
32.510941
30
0.0
10
61.955751
20
32.320890
30
0.0
10
55.946112
20
32.510941
30
0.0
10
51.065001
20
33.025449
30
0.0
10
49.213827
20
33.377935
30
0.0
10
47.865916
20
33.765374
30
0.0
10
47.142318
20
34.123093
30
0.0
10
47.076920
20
34.175290
30
0.0
10
47.098794
20
34.061879
30
0.0
10
46.894391
20
34.564367
30
0.0
10
46.391508
20
34.767796
30
0.0
10
46.391511
20
34.767796
30
0.0
62
0
0
LWPOLYLINE
100
AcDbPolyline
8
Main
90
40
70
0
10
46.391511
20
37.205194
30
0.0
10
45.902754
20
36.994014
30
0.0
10
45.705996
20
36.499275
30
0.0
10
45.888733
20
35.886945
30
0.0
10
46.294940
20
35.454674
30
0.0
10
47.383062
20
34.897014
30
0.0
10
48.903024
20
34.456487
30
0.0
10
50.850089
20
34.087722
30
0.0
10
55.856711
20
33.558083
30
0.0
10
61.955751
20
33.365482
30
0.0
10
68.053946
20
33.558083
30
0.0
10
73.060049
20
34.087722
30
0.0
10
75.007111
20
34.456489
30
0.0
10
76.527081
20
34.897014
30
0.0
10
77.615203
20
35.454674
30
0.0
10
78.021416
20
35.886930
30
0.0
10
78.204147
20
36.499275
30
0.0
10
78.114163
20
36.851654
30
0.0
10
77.858821
20
37.110630
30
0.0
10
77.507749
20
37.205587
30
0.0
10
77.156677
20
37.110630
30
0.0
10
76.901335
20
36.851654
30
0.0
10
76.811350
20
36.499275
30
0.0
10
76.833230
20
36.612692
30
0.0
10
76.767825
20
36.560489
30
0.0
10
76.044227
20
36.202769
30
0.0
10
74.696307
20
35.815327
30
0.0
10
72.845143
20
35.462845
30
0.0
10
67.964547
20
34.948337
30
0.0
10
61.955751
20
34.758285
30
0.0
10
55.946112
20
34.948337
30
0.0
10
51.065001
20
35.462845
30
0.0
10
49.213827
20
35.815331
30
0.0
10
47.865916
20
36.202769
30
0.0
10
47.142318
20
36.560489
30
0.0
10
47.076920
20
36.612687
30
0.0
10
47.098794
20
36.499275
30
0.0
10
46.894392
20
37.001764
30
0.0
10
46.391508
20
37.205194
30
0.0
10
46.391511
20
37.205194
30
0.0
62
0
0
LWPOLYLINE
100
AcDbPolyline
8
Main
90
40
70
0
10
46.391511
20
39.642590
30
0.0
10
45.901873
20
39.431886
30
0.0
10
45.704633
20
38.936670
30
0.0
10
45.887365
20
38.324326
30
0.0
10
46.293586
20
37.892072
30
0.0
10
47.381705
20
37.334410
30
0.0
10
48.901669
20
36.893884
30
0.0
10
50.848731
20
36.525118
30
0.0
10
55.855514
20
35.995478
30
0.0
10
61.954393
20
35.802877
30
0.0
10
68.053206
20
35.995478
30
0.0
10
73.060049
20
36.525118
30
0.0
10
75.007123
20
36.893884
30
0.0
10
76.527081
20
37.334410
30
0.0
10
77.615203
20
37.892072
30
0.0
10
78.021424
20
38.324313
30
0.0
10
78.204147
20
38.936670
30
0.0
10
78.114163
20
39.289049
30
0.0
10
77.858821
20
39.548026
30
0.0
10
77.507749
20
39.642982
30
0.0
10
77.156677
20
39.548026
30
0.0
10
76.901335
20
39.289049
30
0.0
10
76.811350
20
38.936670
30
0.0
10
76.833236
20
39.050100
30
0.0
10
76.767825
20
38.997884
30
0.0
10
76.042864
20
38.640164
30
0.0
10
74.694956
20
38.252724
30
0.0
10
72.843782
20
37.900240
30
0.0
10
67.963118
20
37.385733
30
0.0
10
61.954390
20
37.195681
30
0.0
10
55.945597
20
37.385733
30
0.0
10
51.065001
20
37.900240
30
0.0
10
49.213832
20
38.252724
30
0.0
10
47.865916
20
38.640164
30
0.0
10
47.140952
20
38.997884
30
0.0
10
47.075549
20
39.050092
30
0.0
10
47.097428
20
38.936670
30
0.0
10
46.893502
20
39.438664
30
0.0
10
46.391508
20
39.642590
30
0.0
10
46.391511
20
39.642590
30
0.0
62
0
0
LWPOLYLINE
100
AcDbPolyline
8
Main
90
40
70
0
10
46.391511
20
42.079985
30
0.0
10
45.901873
20
41.869281
30
0.0
10
45.704633
20
41.374065
30
0.0
10
45.887365
20
40.761722
30
0.0
10
46.293586
20
40.329468
30
0.0
10
47.381705
20
39.771805
30
0.0
10
48.901669
20
39.331279
30
0.0
10
50.848731
20
38.962513
30
0.0
10
55.855514
20
38.432873
30
0.0
10
61.954393
20
38.240273
30
0.0
10
68.053206
20
38.432873
30
0.0
10
73.060049
20
38.962513
30
0.0
10
75.007123
20
39.331279
30
0.0
10
76.527081
20
39.771805
30
0.0
10
77.615203
20
40.329468
30
0.0
10
78.021424
20
40.761709
30
0.0
10
78.204147
20
41.374065
30
0.0
10
78.114163
20
41.726444
30
0.0
10
77.858821
20
41.985421
30
0.0
10
77.507749
20
42.080377
30
0.0
10
77.156677
20
41.985421
30
0.0
10
76.901335
20
41.726444
30
0.0
10
76.811350
20
41.374065
30
0.0
10
76.833236
20
41.487495
30
0.0
10
76.767825
20
41.435279
30
0.0
10
76.042864
20
41.077560
30
0.0
10
74.694956
20
40.690119
30
0.0
10
72.843782
20
40.337635
30
0.0
10
67.963118
20
39.823128
30
0.0
10
61.954390
20
39.633076
30
0.0
10
55.945597
20
39.823128
30
0.0
10
51.065001
20
40.337635
30
0.0
10
49.213832
20
40.690119
30
0.0
10
47.865916
20
41.077560
30
0.0
10
47.140952
20
41.435279
30
0.0
10
47.075549
20
41.487488
30
0.0
10
47.097428
20
41.374065
30
0.0
10
46.893502
20
41.876059
30
0.0
10
46.391508
20
42.079985
30
0.0
10
46.391511
20
42.079985
30
0.0
62
0
0
LWPOLYLINE
100
AcDbPolyline
8
Main
90
40
70
0
10
46.391511
20
44.517380
30
0.0
10
45.901873
20
44.306676
30
0.0
10
45.704633
20
43.811461
30
0.0
10
45.887365
20
43.199119
30
0.0
10
46.293586
20
42.766863
30
0.0
10
47.381705
20
42.209200
30
0.0
10
48.901669
20
41.768676
30
0.0
10
50.848731
20
41.399908
30
0.0
10
55.855514
20
40.870269
30
0.0
10
61.954393
20
40.677668
30
0.0
10
68.053206
20
40.870269
30
0.0
10
73.060049
20
41.399908
30
0.0
10
75.007123
20
41.768676
30
0.0
10
76.527081
20
42.209200
30
0.0
10
77.615203
20
42.766863
30
0.0
10
78.021424
20
43.199104
30
0.0
10
78.204147
20
43.811461
30
0.0
10
78.114163
20
44.163840
30
0.0
10
77.858821
20
44.422816
30
0.0
10
77.507749
20
44.517773
30
0.0
10
77.156677
20
44.422816
30
0.0
10
76.901335
20
44.163840
30
0.0
10
76.811350
20
43.811461
30
0.0
10
76.833236
20
43.924892
30
0.0
10
76.767825
20
43.872675
30
0.0
10
76.042864
20
43.514955
30
0.0
10
74.694956
20
43.127516
30
0.0
10
72.843782
20
42.775033
30
0.0
10
67.963118
20
42.260523
30
0.0
10
61.954390
20
42.070471
30
0.0
10
55.945597
20
42.260523
30
0.0
10
51.065001
20
42.775033
30
0.0
10
49.213832
20
43.127516
30
0.0
10
47.865916
20
43.514955
30
0.0
10
47.140952
20
43.872675
30
0.0
10
47.075549
20
43.924884
30
0.0
10
47.097428
20
43.811461
30
0.0
10
46.893502
20
44.313454
30
0.0
10
46.391508
20
44.517380
30
0.0
10
46.391511
20
44.517380
30
0.0
62
0
0
LWPOLYLINE
100
AcDbPolyline
8
Main
90
40
70
0
10
46.391511
20
46.954775
30
0.0
10
45.901873
20
46.744071
30
0.0
10
45.704633
20
46.248855
30
0.0
10
45.887365
20
45.636514
30
0.0
10
46.293586
20
45.204261
30
0.0
10
47.381705
20
44.646595
30
0.0
10
48.901669
20
44.206072
30
0.0
10
50.848731
20
43.837304
30
0.0
10
55.855514
20
43.307664
30
0.0
10
61.954393
20
43.115063
30
0.0
10
68.053206
20
43.307664
30
0.0
10
73.060049
20
43.837304
30
0.0
10
75.007123
20
44.206072
30
0.0
10
76.527081
20
44.646595
30
0.0
10
77.615203
20
45.204261
30
0.0
10
78.021424
20
45.636500
30
0.0
10
78.204147
20
46.248855
30
0.0
10
78.114163
20
46.601234
30
0.0
10
77.858821
20
46.860211
30
0.0
10
77.507749
20
46.955167
30
0.0
10
77.156677
20
46.860211
30
0.0
10
76.901335
20
46.601234
30
0.0
10
76.811350
20
46.248855
30
0.0
10
76.833236
20
46.362286
30
0.0
10
76.767825
20
46.310069
30
0.0
10
76.042864
20
45.952350
30
0.0
10
74.694956
20
45.564911
30
0.0
10
72.843782
20
45.212428
30
0.0
10
67.963118
20
44.697918
30
0.0
10
61.954390
20
44.507866
30
0.0
10
55.945597
20
44.697918
30
0.0
10
51.065001
20
45.212428
30
0.0
10
49.213832
20
45.564911
30
0.0
10
47.865916
20
45.952350
30
0.0
10
47.140952
20
46.310069
30
0.0
10
47.075549
20
46.362279
30
0.0
10
47.097428
20
46.248855
30
0.0
10
46.893502
20
46.750849
30
0.0
10
46.391508
20
46.954775
30
0.0
10
46.391511
20
46.954775
30
0.0
62
0
0
LWPOLYLINE
100
AcDbPolyline
8
Main
90
40
70
0
10
46.391511
20
49.392173
30
0.0
10
45.902753
20
49.180992
30
0.0
10
45.705996
20
48.686251
30
0.0
10
45.888733
20
48.073922
30
0.0
10
46.294940
20
47.641656
30
0.0
10
47.383062
20
47.083990
30
0.0
10
48.903024
20
46.643464
30
0.0
10
50.850089
20
46.274701
30
0.0
10
55.856711
20
45.745059
30
0.0
10
61.955751
20
45.552458
30
0.0
10
68.053946
20
45.745059
30
0.0
10
73.060049
20
46.274701
30
0.0
10
75.007111
20
46.643467
30
0.0
10
76.527081
20
47.083990
30
0.0
10
77.615203
20
47.641656
30
0.0
10
78.021416
20
48.073909
30
0.0
10
78.204147
20
48.686251
30
0.0
10
78.114163
20
49.038630
30
0.0
10
77.858821
20
49.297606
30
0.0
10
77.507749
20
49.392563
30
0.0
10
77.156677
20
49.297606
30
0.0
10
76.901335
20
49.038630
30
0.0
10
76.811350
20
48.686251
30
0.0
10
76.833230
20
48.799670
30
0.0
10
76.767825
20
48.747465
30
0.0
10
76.044227
20
48.389745
30
0.0
10
74.696307
20
48.002307
30
0.0
10
72.845143
20
47.649823
30
0.0
10
67.964547
20
47.135313
30
0.0
10
61.955751
20
46.945261
30
0.0
10
55.946112
20
47.135313
30
0.0
10
51.065001
20
47.649823
30
0.0
10
49.213827
20
48.002310
30
0.0
10
47.865916
20
48.389745
30
0.0
10
47.142318
20
48.747465
30
0.0
10
47.076920
20
48.799665
30
0.0
10
47.098794
20
48.686251
30
0.0
10
46.894393
20
49.188742
30
0.0
10
46.391508
20
49.392173
30
0.0
10
46.391511
20
49.392173
30
0.0
62
0
0
LWPOLYLINE
100
AcDbPolyline
8
Main
90
40
70
0
10
46.391511
20
51.829568
30
0.0
10
45.902754
20
51.618388
30
0.0
10
45.705996
20
51.123649
30
0.0
10
45.888733
20
50.511317
30
0.0
10
46.294940
20
50.079051
30
0.0
10
47.383062
20
49.521388
30
0.0
10
48.903024
20
49.080860
30
0.0
10
50.850089
20
48.712096
30
0.0
10
55.856711
20
48.182454
30
0.0
10
61.955751
20
47.989853
30
0.0
10
68.053946
20
48.182454
30
0.0
10
73.060049
20
48.712096
30
0.0
10
75.007111
20
49.080863
30
0.0
10
76.527081
20
49.521388
30
0.0
10
77.615203
20
50.079051
30
0.0
10
78.021416
20
50.511305
30
0.0
10
78.204147
20
51.123649
30
0.0
10
78.114163
20
51.476028
30
0.0
10
77.858821
20
51.735004
30
0.0
10
77.507749
20
51.829961
30
0.0
10
77.156677
20
51.735004
30
0.0
10
76.901335
20
51.476028
30
0.0
10
76.811350
20
51.123649
30
0.0
10
76.833230
20
51.237066
30
0.0
10
76.767825
20
51.184863
30
0.0
10
76.044227
20
50.827143
30
0.0
10
74.696307
20
50.439703
30
0.0
10
72.845143
20
50.087219
30
0.0
10
67.964547
20
49.572709
30
0.0
10
61.955751
20
49.382656
30
0.0
10
55.946112
20
49.572712
30
0.0
10
51.065001
20
50.087219
30
0.0
10
49.213827
20
50.439706
30
0.0
10
47.865916
20
50.827143
30
0.0
10
47.142318
20
51.184863
30
0.0
10
47.076920
20
51.237061
30
0.0
10
47.098794
20
51.123649
30
0.0
10
46.894392
20
51.626138
30
0.0
10
46.391508
20
51.829568
30
0.0
10
46.391511
20
51.829568
30
0.0
62
0
0
LWPOLYLINE
100
AcDbPolyline
8
Main
90
26
70
0
10
77.507756
20
53.560731
30
0.0
10
77.191780
20
53.069511
30
0.0
10
76.285549
20
52.611987
30
0.0
10
74.851603
20
52.197960
30
0.0
10
72.952483
20
51.837232
30
0.0
10
68.008885
20
51.314878
30
0.0
10
61.955085
20
51.123335
30
0.0
10
55.901283
20
51.314878
30
0.0
10
50.957684
20
51.837232
30
0.0
10
49.058564
20
52.197960
30
0.0
10
47.624618
20
52.611986
30
0.0
10
46.718386
20
53.069510
30
0.0
10
46.402411
20
53.560731
30
0.0
10
46.704010
20
54.038464
30
0.0
10
47.586283
20
54.493482
30
0.0
10
49.015437
20
54.913000
30
0.0
10
50.957678
20
55.284231
30
0.0
10
56.003330
20
55.812593
30
0.0
10
61.955085
20
55.998129
30
0.0
10
67.906838
20
55.812593
30
0.0
10
72.952489
20
55.284231
30
0.0
10
74.894730
20
54.913000
30
0.0
10
76.323883
20
54.493482
30
0.0
10
77.206157
20
54.038464
30
0.0
10
77.507756
20
53.560731
30
0.0
10
77.507756
20
53.560731
30
0.0
62
0
0
LWPOLYLINE
100
AcDbPolyline
8
Main
90
14
70
0
10
61.766693
20
20.635798
30
0.0
10
61.360013
20
20.460068
30
0.0
10
61.196787
20
20.048211
30
0.0
10
61.196787
20
10.664509
30
0.0
10
61.274325
20
10.375135
30
0.0
10
61.486160
20
10.163300
30
0.0
10
61.775533
20
10.085762
30
0.0
10
62.064906
20
10.163300
30
0.0
10
62.276742
20
10.375135
30
0.0
10
62.354279
20
10.664509
30
0.0
10
62.354279
20
20.048211
30
0.0
10
62.184851
20
20.466370
30
0.0
10
61.766693
20
20.635798
30
0.0
10
61.766693
20
20.635798
30
0.0
  0
ENDSEC
  0
SECTION
  2
OBJECTS
  0
DICTIONARY
  5
C
330
0
100
AcDbDictionary
  3
ACAD_GROUP
350
D
  3
ACAD_MLINESTYLE
350
17
  0
DICTIONARY
  5
D
330
C
100
AcDbDictionary
  0
DICTIONARY
  5
1A
330
C
100
AcDbDictionary
  0
DICTIONARY
  5
17
330
C
100
AcDbDictionary
  3
STANDARD
350
18
  0
DICTIONARY
  5
19
330
C
100
AcDbDictionary
  0
ENDSEC
  0
EOF
