999
Inkscape export via OpenSCAD DXF Export
  0
SECTION
  2
HEADER
  9
$ACADVER
  1
AC1014
  9
$HANDSEED
  5
FFFF
  9
$MEASUREMENT
 70
     1
  0
ENDSEC
  0
SECTION
  2
TABLES
  0
TABLE
  2
VPORT
  5
8
330
0
100
AcDbSymbolTable
 70
     4
  0
VPORT
  5
2E
330
8
100
AcDbSymbolTableRecord
100
AcDbViewportTableRecord
  2
*ACTIVE
 70
     0
 10
0.0
 20
0.0
 11
1.0
 21
1.0
 12
210.0
 22
148.5
 13
0.0
 23
0.0
 14
10.0
 24
10.0
 15
10.0
 25
10.0
 16
0.0
 26
0.0
 36
1.0
 17
0.0
 27
0.0
 37
0.0
 40
341.0
 41
1.24
 42
50.0
 43
0.0
 44
0.0
 50
0.0
 51
0.0
 71
     0
 72
   100
 73
     1
 74
     3
 75
     0
 76
     0
 77
     0
 78
     0
  0
ENDTAB
  0
TABLE
  2
LTYPE
  5
5
330
0
100
AcDbSymbolTable
 70
     1
  0
LTYPE
  5
14
330
5
100
AcDbSymbolTableRecord
100
AcDbLinetypeTableRecord
  2
BYBLOCK
 70
     0
  3

 72
    65
 73
     0
 40
0.0
  0
LTYPE
  5
15
330
5
100
AcDbSymbolTableRecord
100
AcDbLinetypeTableRecord
  2
BYLAYER
 70
     0
  3

 72
    65
 73
     0
 40
0.0
  0
LTYPE
  5
16
330
5
100
AcDbSymbolTableRecord
100
AcDbLinetypeTableRecord
  2
CONTINUOUS
 70
     0
  3
Solid line
 72
    65
 73
     0
 40
0.0
  0
ENDTAB
  0
TABLE
0
TABLE
2
LAYER
5
2
330
0
100
AcDbSymbolTable
70
1
0
LAYER
5
10
330
2
100
AcDbSymbolTableRecord
100
AcDbLayerTableRecord
2
Main
70
0
62
7
6
CONTINUOUS
0
ENDTAB
0
ENDSEC
  0
ENDTAB
  0
TABLE
  2
STYLE
  5
3
330
0
100
AcDbSymbolTable
 70
     1
  0
STYLE
  5
11
330
3
100
AcDbSymbolTableRecord
100
AcDbTextStyleTableRecord
  2
STANDARD
 70
     0
 40
0.0
 41
1.0
 50
0.0
 71
     0
 42
2.5
  3
txt
  4

  0
ENDTAB
  0
TABLE
  2
VIEW
  5
6
330
0
100
AcDbSymbolTable
 70
     0
  0
ENDTAB
  0
TABLE
  2
UCS
  5
7
330
0
100
AcDbSymbolTable
 70
     0
  0
ENDTAB
  0
TABLE
  2
APPID
  5
9
330
0
100
AcDbSymbolTable
 70
     2
  0
APPID
  5
12
330
9
100
AcDbSymbolTableRecord
100
AcDbRegAppTableRecord
  2
ACAD
 70
     0
  0
ENDTAB
  0
TABLE
  2
DIMSTYLE
  5
A
330
0
100
AcDbSymbolTable
 70
     1
  0
DIMSTYLE
105
27
330
A
100
AcDbSymbolTableRecord
100
AcDbDimStyleTableRecord
  2
ISO-25
 70
     0
  3

  4

  5

  6

  7

 40
1.0
 41
2.5
 42
0.625
 43
3.75
 44
1.25
 45
0.0
 46
0.0
 47
0.0
 48
0.0
140
2.5
141
2.5
142
0.0
143
0.03937007874016
144
1.0
145
0.0
146
1.0
147
0.625
 71
     0
 72
     0
 73
     0
 74
     0
 75
     0
 76
     0
 77
     1
 78
     8
170
     0
171
     3
172
     1
173
     0
174
     0
175
     0
176
     0
177
     0
178
     0
270
     2
271
     2
272
     2
273
     2
274
     3
340
11
275
     0
280
     0
281
     0
282
     0
283
     0
284
     8
285
     0
286
     0
287
     3
288
     0
  0
ENDTAB
  0
TABLE
  2
BLOCK_RECORD
  5
1
330
0
100
AcDbSymbolTable
 70
     1
  0
BLOCK_RECORD
  5
1F
330
1
100
AcDbSymbolTableRecord
100
AcDbBlockTableRecord
  2
*MODEL_SPACE
  0
BLOCK_RECORD
  5
1B
330
1
100
AcDbSymbolTableRecord
100
AcDbBlockTableRecord
  2
*PAPER_SPACE
  0
ENDTAB
  0
ENDSEC
  0
SECTION
  2
BLOCKS
  0
BLOCK
  5
20
330
1F
100
AcDbEntity
  8
0
100
AcDbBlockBegin
  2
*MODEL_SPACE
 70
     0
 10
0.0
 20
0.0
 30
0.0
  3
*MODEL_SPACE
  1

  0
ENDBLK
  5
21
330
1F
100
AcDbEntity
  8
0
100
AcDbBlockEnd
  0
BLOCK
  5
1C
330
1B
100
AcDbEntity
 67
     1
  8
0
100
AcDbBlockBegin
  2
*PAPER_SPACE
  1

  0
ENDBLK
  5
1D
330
1B
100
AcDbEntity
 67
     1
  8
0
100
AcDbBlockEnd
  0
ENDSEC
  0
SECTION
  2
ENTITIES
0
DIMENSION
5
83
100
AcDbEntity
62
256
370
-1
6
ByLayer
1
total_width
3
Standard
70
0
71
5
72
1
41
1.0
100
AcDbAlignedDimension
13
0.879511
23
0.000000
33
0.0
14
99.120489
24
0.000000
34
0.0
50
0.000000
100
AcDbRotatedDimension
0
DIMENSION
5
83
100
AcDbEntity
62
256
370
-1
6
ByLayer
1
total_minx
3
Standard
70
0
71
5
72
1
41
1.0
100
AcDbAlignedDimension
13
0.879511
23
0.000000
33
0.0
14
0.000000
24
0.000000
34
0.0
50
0.000000
100
AcDbRotatedDimension
0
DIMENSION
5
83
100
AcDbEntity
62
256
370
-1
6
ByLayer
1
total_maxx
3
Standard
70
0
71
5
72
1
41
1.0
100
AcDbAlignedDimension
13
0.000000
23
0.000000
33
0.0
14
99.120489
24
0.000000
34
0.0
50
0.000000
100
AcDbRotatedDimension
0
DIMENSION
5
83
100
AcDbEntity
62
256
370
-1
6
ByLayer
1
total_height
3
Standard
70
0
71
5
72
1
41
1.0
100
AcDbAlignedDimension
13
0.000000
23
12.301829
33
0.0
14
0.000000
24
83.801779
34
0.0
50
90.000000
100
AcDbRotatedDimension
0
DIMENSION
5
83
100
AcDbEntity
62
256
370
-1
6
ByLayer
1
total_miny
3
Standard
70
0
71
5
72
1
41
1.0
100
AcDbAlignedDimension
13
12.301829
23
0.000000
33
0.0
14
0.000000
24
0.000000
34
0.0
50
0.000000
100
AcDbRotatedDimension
0
DIMENSION
5
83
100
AcDbEntity
62
256
370
-1
6
ByLayer
1
total_maxy
3
Standard
70
0
71
5
72
1
41
1.0
100
AcDbAlignedDimension
13
0.000000
23
0.000000
33
0.0
14
83.801779
24
0.000000
34
0.0
50
0.000000
100
AcDbRotatedDimension
0
DIMENSION
8
Main
5
83
100
AcDbEntity
62
256
370
-1
6
ByLayer
1
Main_width
3
Standard
70
0
71
5
72
1
41
1.0
100
AcDbAlignedDimension
13
0.879511
23
0.000000
33
0.0
14
99.120489
24
0.000000
34
0.0
50
0.000000
100
AcDbRotatedDimension
0
DIMENSION
8
Main
5
83
100
AcDbEntity
62
256
370
-1
6
ByLayer
1
Main_minx
3
Standard
70
0
71
5
72
1
41
1.0
100
AcDbAlignedDimension
13
0.879511
23
0.000000
33
0.0
14
0.000000
24
0.000000
34
0.0
50
0.000000
100
AcDbRotatedDimension
0
DIMENSION
8
Main
5
83
100
AcDbEntity
62
256
370
-1
6
ByLayer
1
Main_maxx
3
Standard
70
0
71
5
72
1
41
1.0
100
AcDbAlignedDimension
13
0.000000
23
0.000000
33
0.0
14
99.120489
24
0.000000
34
0.0
50
0.000000
100
AcDbRotatedDimension
0
DIMENSION
8
Main
5
83
100
AcDbEntity
62
256
370
-1
6
ByLayer
1
Main_height
3
Standard
70
0
71
5
72
1
41
1.0
100
AcDbAlignedDimension
13
0.000000
23
12.301829
33
0.0
14
0.000000
24
83.801779
34
0.0
50
90.000000
100
AcDbRotatedDimension
0
DIMENSION
8
Main
5
83
100
AcDbEntity
62
256
370
-1
6
ByLayer
1
Main_miny
3
Standard
70
0
71
5
72
1
41
1.0
100
AcDbAlignedDimension
13
12.301829
23
0.000000
33
0.0
14
0.000000
24
0.000000
34
0.0
50
0.000000
100
AcDbRotatedDimension
0
DIMENSION
8
Main
5
83
100
AcDbEntity
62
256
370
-1
6
ByLayer
1
Main_maxy
3
Standard
70
0
71
5
72
1
41
1.0
100
AcDbAlignedDimension
13
0.000000
23
0.000000
33
0.0
14
83.801779
24
0.000000
34
0.0
50
0.000000
100
AcDbRotatedDimension
62
0
0
LWPOLYLINE
100
AcDbPolyline
8
Main
90
46
70
0
10
53.234443
20
58.567156
30
0.0
10
52.679067
20
58.274880
30
0.0
10
52.584294
20
57.654489
30
0.0
10
53.221745
20
55.956108
30
0.0
10
54.097532
20
54.334884
30
0.0
10
55.248377
20
52.881713
30
0.0
10
56.711001
20
51.687493
30
0.0
10
56.713823
20
51.686081
30
0.0
10
59.084107
20
50.384687
30
0.0
10
61.611733
20
49.469034
30
0.0
10
61.614555
20
49.467623
30
0.0
10
61.960040
20
49.384655
30
0.0
10
62.000850
20
49.387477
30
0.0
10
62.023964
20
49.388889
30
0.0
10
62.344955
20
49.500423
30
0.0
10
64.072066
20
50.215847
30
0.0
10
65.755290
20
51.079779
30
0.0
10
67.341049
20
52.134023
30
0.0
10
68.775766
20
53.420382
30
0.0
10
68.781326
20
53.425942
30
0.0
10
68.788297
20
53.432913
30
0.0
10
70.242148
20
55.414197
30
0.0
10
71.308663
20
57.609948
30
0.0
10
71.361136
20
57.975924
30
0.0
10
71.218907
20
58.317191
30
0.0
10
70.922055
20
58.537579
30
0.0
10
70.554234
20
58.574984
30
0.0
10
70.219094
20
58.418864
30
0.0
10
70.011078
20
58.113216
30
0.0
10
69.049303
20
56.134134
30
0.0
10
67.760015
20
54.374144
30
0.0
10
66.500768
20
53.248510
30
0.0
10
65.078039
20
52.303229
30
0.0
10
63.536853
20
51.508287
30
0.0
10
61.922237
20
50.833669
30
0.0
10
59.611666
20
51.677043
30
0.0
10
57.474536
20
52.852139
30
0.0
10
57.467565
20
52.857699
30
0.0
10
57.459437
20
52.863259
30
0.0
10
56.246246
20
53.858738
30
0.0
10
55.263126
20
55.106162
30
0.0
10
54.491956
20
56.533453
30
0.0
10
53.914613
20
58.068531
30
0.0
10
53.658750
20
58.432806
30
0.0
10
53.234531
20
58.567712
30
0.0
10
53.234443
20
58.567156
30
0.0
62
0
0
LWPOLYLINE
100
AcDbPolyline
8
Main
90
1
70
0
10
54.642196
20
59.253721
30
0.0
62
0
0
LWPOLYLINE
100
AcDbPolyline
8
Main
90
14
70
0
10
15.145936
20
78.876857
30
0.0
10
15.145936
20
70.899612
30
0.0
10
12.595723
20
73.756237
30
0.0
10
10.473796
20
74.470047
30
0.0
10
10.493989
20
53.619171
30
0.0
10
13.064397
20
49.456797
30
0.0
10
3.149767
20
49.456797
30
0.0
10
5.924221
20
53.823215
30
0.0
10
5.862938
20
74.511133
30
0.0
10
3.863575
20
73.797326
30
0.0
10
1.150407
20
71.084155
30
0.0
10
1.150407
20
78.917249
30
0.0
10
15.145933
20
78.876857
30
0.0
10
15.145936
20
78.876857
30
0.0
62
0
0
LWPOLYLINE
100
AcDbPolyline
8
Main
90
25
70
0
10
19.756658
20
78.672560
30
0.0
10
15.760347
20
76.448957
30
0.0
10
15.760347
20
49.395312
30
0.0
10
19.758863
20
49.395312
30
0.0
10
20.207552
20
49.433344
30
0.0
10
20.207552
20
49.844550
30
0.0
10
19.758312
20
50.272845
30
0.0
10
19.758312
20
63.146480
30
0.0
10
20.125421
20
63.942434
30
0.0
10
20.757665
20
63.901644
30
0.0
10
21.083984
20
63.146480
30
0.0
10
21.083984
20
49.395312
30
0.0
10
25.532292
20
49.395312
30
0.0
10
25.532292
20
49.905186
30
0.0
10
25.083051
20
50.354427
30
0.0
10
25.083051
20
66.696858
30
0.0
10
24.817365
20
67.227678
30
0.0
10
24.633811
20
67.574391
30
0.0
10
23.960226
20
67.941500
30
0.0
10
23.307035
20
68.022529
30
0.0
10
20.634193
20
68.022529
30
0.0
10
19.797999
20
67.818578
30
0.0
10
19.756658
20
68.920458
30
0.0
10
19.756658
20
78.672560
30
0.0
10
19.756658
20
78.672560
30
0.0
62
0
0
LWPOLYLINE
100
AcDbPolyline
8
Main
90
23
70
0
10
33.651342
20
68.206637
30
0.0
10
35.018370
20
66.797823
30
0.0
10
35.018370
20
59.287161
30
0.0
10
34.081714
20
58.347023
30
0.0
10
33.145055
20
57.857455
30
0.0
10
32.208399
20
57.388082
30
0.0
10
29.862232
20
55.041913
30
0.0
10
29.857350
20
54.573934
30
0.0
10
30.336473
20
54.106651
30
0.0
10
30.796097
20
53.639367
30
0.0
10
32.672892
20
53.639367
30
0.0
10
34.549687
20
55.516162
30
0.0
10
35.019059
20
55.516162
30
0.0
10
35.019059
20
51.293200
30
0.0
10
34.896493
20
50.762543
30
0.0
10
34.549687
20
50.354453
30
0.0
10
33.610939
20
49.415708
30
0.0
10
26.551548
20
49.415708
30
0.0
10
25.612803
20
50.354453
30
0.0
10
25.612803
20
66.798520
30
0.0
10
27.489596
20
68.205939
30
0.0
10
33.651331
20
68.205939
30
0.0
10
33.651342
20
68.206637
30
0.0
62
0
0
LWPOLYLINE
100
AcDbPolyline
8
Main
90
7
70
0
10
29.855964
20
63.982978
30
0.0
10
29.855964
20
61.167436
30
0.0
10
30.325337
20
61.167436
30
0.0
10
30.794712
20
61.636811
30
0.0
10
30.794712
20
63.982978
30
0.0
10
29.855964
20
63.982978
30
0.0
10
29.855964
20
63.982978
30
0.0
62
0
0
LWPOLYLINE
100
AcDbPolyline
8
Main
90
20
70
0
10
0.879511
20
12.472455
30
0.0
10
0.879511
20
14.014969
30
0.0
10
1.809898
20
14.945351
30
0.0
10
1.809898
20
45.769366
30
0.0
10
0.953327
20
46.651006
30
0.0
10
0.953327
20
48.046586
30
0.0
10
36.920932
20
48.046586
30
0.0
10
33.358853
20
43.247705
30
0.0
10
9.056624
20
43.247705
30
0.0
10
9.056624
20
32.401989
30
0.0
10
16.474664
20
32.401989
30
0.0
10
18.482382
20
30.369899
30
0.0
10
18.482382
20
28.411624
30
0.0
10
16.377169
20
26.281334
30
0.0
10
8.787814
20
26.281334
30
0.0
10
8.787814
20
17.296395
30
0.0
10
19.510963
20
17.296395
30
0.0
10
17.327753
20
12.473132
30
0.0
10
0.879511
20
12.473132
30
0.0
10
0.879511
20
12.472455
30
0.0
62
0
0
LWPOLYLINE
100
AcDbPolyline
8
Main
90
29
70
0
10
31.989039
20
35.731421
30
0.0
10
28.021393
20
35.705513
30
0.0
10
25.119795
20
28.872098
30
0.0
10
24.545980
20
30.125009
30
0.0
10
21.558945
20
35.633854
30
0.0
10
21.191835
20
35.462427
30
0.0
10
18.351974
20
32.475393
30
0.0
10
19.184309
20
31.985912
30
0.0
10
19.306679
20
31.446825
30
0.0
10
22.919344
20
23.688469
30
0.0
10
18.301814
20
12.814094
30
0.0
10
17.591848
20
12.471789
30
0.0
10
21.924951
20
12.446982
30
0.0
10
22.169691
20
13.034577
30
0.0
10
22.611766
20
14.088502
30
0.0
10
22.856506
20
14.576879
30
0.0
10
23.297478
20
15.606547
30
0.0
10
23.762703
20
16.659369
30
0.0
10
23.958385
20
17.173654
30
0.0
10
24.423610
20
18.226475
30
0.0
10
24.644097
20
18.740207
30
0.0
10
24.925768
20
19.378515
30
0.0
10
27.924930
20
12.938116
30
0.0
10
27.385841
20
12.448636
30
0.0
10
32.625143
20
12.497144
30
0.0
10
27.130629
20
24.485523
30
0.0
10
27.165906
20
24.567103
30
0.0
10
31.989039
20
35.731419
30
0.0
10
31.989039
20
35.731421
30
0.0
62
0
0
LWPOLYLINE
100
AcDbPolyline
8
Main
90
19
70
0
10
37.423736
20
48.008286
30
0.0
10
37.423736
20
43.052015
30
0.0
10
37.717614
20
42.586822
30
0.0
10
37.717614
20
40.481608
30
0.0
10
37.423736
20
39.893846
30
0.0
10
37.423736
20
34.605394
30
0.0
10
38.966259
20
33.552440
30
0.0
10
38.966259
20
29.341315
30
0.0
10
37.423736
20
28.263988
30
0.0
10
37.423736
20
14.014969
30
0.0
10
37.962050
20
13.476658
30
0.0
10
37.962050
20
12.423687
30
0.0
10
33.212608
20
12.423687
30
0.0
10
32.674295
20
13.476658
30
0.0
10
32.674295
20
38.301879
30
0.0
10
31.621338
20
39.354836
30
0.0
10
31.645722
20
40.015716
30
0.0
10
37.423742
20
48.008286
30
0.0
10
37.423736
20
48.008286
30
0.0
62
0
0
LWPOLYLINE
100
AcDbPolyline
8
Main
90
22
70
0
10
44.327829
20
35.437591
30
0.0
10
44.891218
20
34.335889
30
0.0
10
45.429534
20
33.797573
30
0.0
10
46.555609
20
34.899275
30
0.0
10
49.298027
20
34.899275
30
0.0
10
49.298027
20
27.187347
30
0.0
10
48.196325
20
28.827374
30
0.0
10
47.632936
20
29.390760
30
0.0
10
46.555609
20
29.390760
30
0.0
10
45.429534
20
28.289058
30
0.0
10
45.429534
20
15.043545
30
0.0
10
45.992920
20
13.941845
30
0.0
10
47.632939
20
12.301829
30
0.0
10
39.382006
20
12.301829
30
0.0
10
39.382006
20
13.941845
30
0.0
10
39.920325
20
14.505217
30
0.0
10
39.920325
20
31.030779
30
0.0
10
39.382006
20
31.594168
30
0.0
10
39.382006
20
32.695867
30
0.0
10
43.127936
20
35.438286
30
0.0
10
44.327829
20
35.438286
30
0.0
10
44.327829
20
35.437591
30
0.0
62
0
0
LWPOLYLINE
100
AcDbPolyline
8
Main
90
29
70
0
10
63.473226
20
37.224549
30
0.0
10
63.473226
20
15.067917
30
0.0
10
63.914045
20
14.651465
30
0.0
10
64.330493
20
14.235018
30
0.0
10
64.330493
20
12.521195
30
0.0
10
59.213355
20
12.521195
30
0.0
10
58.356785
20
12.937642
30
0.0
10
58.356785
20
13.794215
30
0.0
10
57.940338
20
13.377768
30
0.0
10
57.523891
20
12.936936
30
0.0
10
56.667321
20
12.520489
30
0.0
10
53.264020
20
12.520489
30
0.0
10
51.991003
20
12.936936
30
0.0
10
51.550183
20
13.377768
30
0.0
10
51.133736
20
14.234340
30
0.0
10
51.133736
20
32.106717
30
0.0
10
50.277166
20
32.963287
30
0.0
10
50.693614
20
33.379734
30
0.0
10
56.667321
20
36.366588
30
0.0
10
56.667321
20
18.494202
30
0.0
10
57.083768
20
18.053383
30
0.0
10
57.524588
20
18.053383
30
0.0
10
57.941032
20
18.494202
30
0.0
10
57.941032
20
32.547543
30
0.0
10
57.524588
20
32.963981
30
0.0
10
57.083768
20
33.380428
30
0.0
10
57.940338
20
34.236998
30
0.0
10
63.473226
20
37.224549
30
0.0
10
63.473226
20
37.224549
30
0.0
62
0
0
LWPOLYLINE
100
AcDbPolyline
8
Main
90
26
70
0
10
76.498667
20
48.560530
30
0.0
10
76.449919
20
12.326213
30
0.0
10
72.165676
20
12.326213
30
0.0
10
72.165676
20
12.864518
30
0.0
10
70.574408
20
12.864518
30
0.0
10
68.983135
20
12.326213
30
0.0
10
66.828478
20
12.326213
30
0.0
10
66.191968
20
12.571346
30
0.0
10
65.800594
20
12.913964
30
0.0
10
65.580528
20
13.232226
30
0.0
10
65.237902
20
13.942522
30
0.0
10
65.237902
20
32.647122
30
0.0
10
65.360468
20
33.724449
30
0.0
10
65.850036
20
34.360959
30
0.0
10
66.633485
20
34.777406
30
0.0
10
71.114113
20
34.801790
30
0.0
10
71.652432
20
35.340106
30
0.0
10
71.652432
20
39.086036
30
0.0
10
71.114113
20
40.138990
30
0.0
10
70.036786
20
41.216320
30
0.0
10
69.253337
20
41.265068
30
0.0
10
69.498470
20
41.216320
30
0.0
10
69.253337
20
41.265068
30
0.0
10
68.715021
20
41.803382
30
0.0
10
76.498667
20
48.560544
30
0.0
10
76.498667
20
48.560530
30
0.0
62
0
0
LWPOLYLINE
100
AcDbPolyline
8
Main
90
8
70
0
10
70.034698
20
18.740029
30
0.0
10
70.573011
20
18.201716
30
0.0
10
71.111330
20
18.201716
30
0.0
10
71.649646
20
18.691281
30
0.0
10
71.649646
20
29.439508
30
0.0
10
70.033998
20
29.439508
30
0.0
10
70.033998
20
18.740029
30
0.0
10
70.034698
20
18.740029
30
0.0
62
0
0
LWPOLYLINE
100
AcDbPolyline
8
Main
90
23
70
0
10
86.854815
20
34.972396
30
0.0
10
88.494836
20
33.281541
30
0.0
10
88.494836
20
24.268046
30
0.0
10
87.370849
20
23.141271
30
0.0
10
86.246863
20
22.553512
30
0.0
10
85.122870
20
21.989429
30
0.0
10
82.307331
20
19.173887
30
0.0
10
82.301066
20
18.613286
30
0.0
10
82.876288
20
18.051294
30
0.0
10
83.427835
20
17.490691
30
0.0
10
85.679991
20
17.490691
30
0.0
10
87.932144
20
19.742847
30
0.0
10
88.495530
20
19.742847
30
0.0
10
88.495530
20
14.675143
30
0.0
10
88.348591
20
14.038647
30
0.0
10
87.932144
20
13.549076
30
0.0
10
86.806066
20
12.422982
30
0.0
10
78.335073
20
12.422982
30
0.0
10
77.208998
20
13.549076
30
0.0
10
77.208998
20
33.282238
30
0.0
10
79.461151
20
34.971707
30
0.0
10
86.854815
20
34.971707
30
0.0
10
86.854815
20
34.972396
30
0.0
62
0
0
LWPOLYLINE
100
AcDbPolyline
8
Main
90
7
70
0
10
82.301063
20
29.904701
30
0.0
10
82.301063
20
26.525767
30
0.0
10
82.864449
20
26.525767
30
0.0
10
83.427835
20
27.089156
30
0.0
10
83.427835
20
29.904701
30
0.0
10
82.301063
20
29.904701
30
0.0
10
82.301063
20
29.904701
30
0.0
62
0
0
LWPOLYLINE
100
AcDbPolyline
8
Main
90
22
70
0
10
94.150290
20
35.437591
30
0.0
10
94.713679
20
34.335889
30
0.0
10
95.251992
20
33.797573
30
0.0
10
96.378070
20
34.899275
30
0.0
10
99.120489
20
34.899275
30
0.0
10
99.120489
20
27.187347
30
0.0
10
98.018783
20
28.827374
30
0.0
10
97.455400
20
29.390760
30
0.0
10
96.378070
20
29.390760
30
0.0
10
95.251992
20
28.289058
30
0.0
10
95.251992
20
15.043545
30
0.0
10
95.815376
20
13.941845
30
0.0
10
97.455397
20
12.301829
30
0.0
10
89.204464
20
12.301829
30
0.0
10
89.204464
20
13.941845
30
0.0
10
89.742780
20
14.505217
30
0.0
10
89.742780
20
31.030779
30
0.0
10
89.204464
20
31.594168
30
0.0
10
89.204464
20
32.695867
30
0.0
10
92.950391
20
35.438286
30
0.0
10
94.150290
20
35.438286
30
0.0
10
94.150290
20
35.437591
30
0.0
62
0
0
LWPOLYLINE
100
AcDbPolyline
8
Main
90
1
70
0
10
54.563501
20
52.929722
30
0.0
62
0
0
LWPOLYLINE
100
AcDbPolyline
8
Main
90
1
70
0
10
61.179984
20
47.242233
30
0.0
62
0
0
LWPOLYLINE
100
AcDbPolyline
8
Main
90
1
70
0
10
61.876387
20
76.259082
30
0.0
62
0
0
LWPOLYLINE
100
AcDbPolyline
8
Main
90
40
70
0
10
46.391511
20
62.571446
30
0.0
10
45.902755
20
62.360267
30
0.0
10
45.705996
20
61.865529
30
0.0
10
45.888733
20
61.253199
30
0.0
10
46.294940
20
60.820929
30
0.0
10
47.383062
20
60.263269
30
0.0
10
48.903024
20
59.822740
30
0.0
10
50.850089
20
59.453977
30
0.0
10
55.856711
20
58.924336
30
0.0
10
61.955751
20
58.731734
30
0.0
10
68.053946
20
58.924336
30
0.0
10
73.060049
20
59.453977
30
0.0
10
75.007111
20
59.822744
30
0.0
10
76.527081
20
60.263269
30
0.0
10
77.615203
20
60.820929
30
0.0
10
78.021416
20
61.253185
30
0.0
10
78.204147
20
61.865529
30
0.0
10
78.114163
20
62.217908
30
0.0
10
77.858821
20
62.476885
30
0.0
10
77.507749
20
62.571842
30
0.0
10
77.156677
20
62.476885
30
0.0
10
76.901335
20
62.217908
30
0.0
10
76.811350
20
61.865529
30
0.0
10
76.833230
20
61.978945
30
0.0
10
76.767825
20
61.926743
30
0.0
10
76.044227
20
61.569024
30
0.0
10
74.696307
20
61.181582
30
0.0
10
72.845143
20
60.829099
30
0.0
10
67.964547
20
60.314591
30
0.0
10
61.955751
20
60.124540
30
0.0
10
55.946112
20
60.314591
30
0.0
10
51.065001
20
60.829099
30
0.0
10
49.213827
20
61.181585
30
0.0
10
47.865916
20
61.569024
30
0.0
10
47.142318
20
61.926743
30
0.0
10
47.076920
20
61.978940
30
0.0
10
47.098794
20
61.865529
30
0.0
10
46.894391
20
62.368017
30
0.0
10
46.391508
20
62.571446
30
0.0
10
46.391511
20
62.571446
30
0.0
62
0
0
LWPOLYLINE
100
AcDbPolyline
8
Main
90
40
70
0
10
46.391511
20
65.008844
30
0.0
10
45.902754
20
64.797664
30
0.0
10
45.705996
20
64.302925
30
0.0
10
45.888733
20
63.690595
30
0.0
10
46.294940
20
63.258324
30
0.0
10
47.383062
20
62.700664
30
0.0
10
48.903024
20
62.260137
30
0.0
10
50.850089
20
61.891372
30
0.0
10
55.856711
20
61.361733
30
0.0
10
61.955751
20
61.169132
30
0.0
10
68.053946
20
61.361733
30
0.0
10
73.060049
20
61.891372
30
0.0
10
75.007111
20
62.260139
30
0.0
10
76.527081
20
62.700664
30
0.0
10
77.615203
20
63.258324
30
0.0
10
78.021416
20
63.690580
30
0.0
10
78.204147
20
64.302925
30
0.0
10
78.114163
20
64.655304
30
0.0
10
77.858821
20
64.914280
30
0.0
10
77.507749
20
65.009237
30
0.0
10
77.156677
20
64.914280
30
0.0
10
76.901335
20
64.655304
30
0.0
10
76.811350
20
64.302925
30
0.0
10
76.833230
20
64.416342
30
0.0
10
76.767825
20
64.364139
30
0.0
10
76.044227
20
64.006419
30
0.0
10
74.696307
20
63.618977
30
0.0
10
72.845143
20
63.266495
30
0.0
10
67.964547
20
62.751987
30
0.0
10
61.955751
20
62.561935
30
0.0
10
55.946112
20
62.751987
30
0.0
10
51.065001
20
63.266495
30
0.0
10
49.213827
20
63.618981
30
0.0
10
47.865916
20
64.006419
30
0.0
10
47.142318
20
64.364139
30
0.0
10
47.076920
20
64.416337
30
0.0
10
47.098794
20
64.302925
30
0.0
10
46.894392
20
64.805414
30
0.0
10
46.391508
20
65.008844
30
0.0
10
46.391511
20
65.008844
30
0.0
62
0
0
LWPOLYLINE
100
AcDbPolyline
8
Main
90
40
70
0
10
46.391511
20
67.446240
30
0.0
10
45.901873
20
67.235536
30
0.0
10
45.704633
20
66.740320
30
0.0
10
45.887365
20
66.127976
30
0.0
10
46.293586
20
65.695722
30
0.0
10
47.381705
20
65.138060
30
0.0
10
48.901669
20
64.697534
30
0.0
10
50.848731
20
64.328768
30
0.0
10
55.855514
20
63.799128
30
0.0
10
61.954393
20
63.606527
30
0.0
10
68.053206
20
63.799128
30
0.0
10
73.060049
20
64.328768
30
0.0
10
75.007123
20
64.697534
30
0.0
10
76.527081
20
65.138060
30
0.0
10
77.615203
20
65.695722
30
0.0
10
78.021424
20
66.127963
30
0.0
10
78.204147
20
66.740320
30
0.0
10
78.114163
20
67.092699
30
0.0
10
77.858821
20
67.351676
30
0.0
10
77.507749
20
67.446632
30
0.0
10
77.156677
20
67.351676
30
0.0
10
76.901335
20
67.092699
30
0.0
10
76.811350
20
66.740320
30
0.0
10
76.833236
20
66.853750
30
0.0
10
76.767825
20
66.801534
30
0.0
10
76.042864
20
66.443814
30
0.0
10
74.694956
20
66.056374
30
0.0
10
72.843782
20
65.703890
30
0.0
10
67.963118
20
65.189383
30
0.0
10
61.954390
20
64.999331
30
0.0
10
55.945597
20
65.189383
30
0.0
10
51.065001
20
65.703890
30
0.0
10
49.213832
20
66.056374
30
0.0
10
47.865916
20
66.443814
30
0.0
10
47.140952
20
66.801534
30
0.0
10
47.075549
20
66.853742
30
0.0
10
47.097428
20
66.740320
30
0.0
10
46.893502
20
67.242314
30
0.0
10
46.391508
20
67.446240
30
0.0
10
46.391511
20
67.446240
30
0.0
62
0
0
LWPOLYLINE
100
AcDbPolyline
8
Main
90
40
70
0
10
46.391511
20
69.883635
30
0.0
10
45.901873
20
69.672931
30
0.0
10
45.704633
20
69.177715
30
0.0
10
45.887365
20
68.565372
30
0.0
10
46.293586
20
68.133118
30
0.0
10
47.381705
20
67.575455
30
0.0
10
48.901669
20
67.134929
30
0.0
10
50.848731
20
66.766163
30
0.0
10
55.855514
20
66.236523
30
0.0
10
61.954393
20
66.043923
30
0.0
10
68.053206
20
66.236523
30
0.0
10
73.060049
20
66.766163
30
0.0
10
75.007123
20
67.134929
30
0.0
10
76.527081
20
67.575455
30
0.0
10
77.615203
20
68.133118
30
0.0
10
78.021424
20
68.565359
30
0.0
10
78.204147
20
69.177715
30
0.0
10
78.114163
20
69.530094
30
0.0
10
77.858821
20
69.789071
30
0.0
10
77.507749
20
69.884027
30
0.0
10
77.156677
20
69.789071
30
0.0
10
76.901335
20
69.530094
30
0.0
10
76.811350
20
69.177715
30
0.0
10
76.833236
20
69.291145
30
0.0
10
76.767825
20
69.238929
30
0.0
10
76.042864
20
68.881210
30
0.0
10
74.694956
20
68.493769
30
0.0
10
72.843782
20
68.141285
30
0.0
10
67.963118
20
67.626778
30
0.0
10
61.954390
20
67.436726
30
0.0
10
55.945597
20
67.626778
30
0.0
10
51.065001
20
68.141285
30
0.0
10
49.213832
20
68.493769
30
0.0
10
47.865916
20
68.881210
30
0.0
10
47.140952
20
69.238929
30
0.0
10
47.075549
20
69.291138
30
0.0
10
47.097428
20
69.177715
30
0.0
10
46.893502
20
69.679709
30
0.0
10
46.391508
20
69.883635
30
0.0
10
46.391511
20
69.883635
30
0.0
62
0
0
LWPOLYLINE
100
AcDbPolyline
8
Main
90
40
70
0
10
46.391511
20
72.321030
30
0.0
10
45.901873
20
72.110326
30
0.0
10
45.704633
20
71.615111
30
0.0
10
45.887365
20
71.002769
30
0.0
10
46.293586
20
70.570513
30
0.0
10
47.381705
20
70.012850
30
0.0
10
48.901669
20
69.572326
30
0.0
10
50.848731
20
69.203558
30
0.0
10
55.855514
20
68.673919
30
0.0
10
61.954393
20
68.481318
30
0.0
10
68.053206
20
68.673919
30
0.0
10
73.060049
20
69.203558
30
0.0
10
75.007123
20
69.572326
30
0.0
10
76.527081
20
70.012850
30
0.0
10
77.615203
20
70.570513
30
0.0
10
78.021424
20
71.002754
30
0.0
10
78.204147
20
71.615111
30
0.0
10
78.114163
20
71.967490
30
0.0
10
77.858821
20
72.226466
30
0.0
10
77.507749
20
72.321423
30
0.0
10
77.156677
20
72.226466
30
0.0
10
76.901335
20
71.967490
30
0.0
10
76.811350
20
71.615111
30
0.0
10
76.833236
20
71.728542
30
0.0
10
76.767825
20
71.676325
30
0.0
10
76.042864
20
71.318605
30
0.0
10
74.694956
20
70.931166
30
0.0
10
72.843782
20
70.578683
30
0.0
10
67.963118
20
70.064173
30
0.0
10
61.954390
20
69.874121
30
0.0
10
55.945597
20
70.064173
30
0.0
10
51.065001
20
70.578683
30
0.0
10
49.213832
20
70.931166
30
0.0
10
47.865916
20
71.318605
30
0.0
10
47.140952
20
71.676325
30
0.0
10
47.075549
20
71.728534
30
0.0
10
47.097428
20
71.615111
30
0.0
10
46.893502
20
72.117104
30
0.0
10
46.391508
20
72.321030
30
0.0
10
46.391511
20
72.321030
30
0.0
62
0
0
LWPOLYLINE
100
AcDbPolyline
8
Main
90
40
70
0
10
46.391511
20
74.758425
30
0.0
10
45.901873
20
74.547721
30
0.0
10
45.704633
20
74.052505
30
0.0
10
45.887365
20
73.440164
30
0.0
10
46.293586
20
73.007911
30
0.0
10
47.381705
20
72.450245
30
0.0
10
48.901669
20
72.009722
30
0.0
10
50.848731
20
71.640954
30
0.0
10
55.855514
20
71.111314
30
0.0
10
61.954393
20
70.918713
30
0.0
10
68.053206
20
71.111314
30
0.0
10
73.060049
20
71.640954
30
0.0
10
75.007123
20
72.009722
30
0.0
10
76.527081
20
72.450245
30
0.0
10
77.615203
20
73.007911
30
0.0
10
78.021424
20
73.440150
30
0.0
10
78.204147
20
74.052505
30
0.0
10
78.114163
20
74.404884
30
0.0
10
77.858821
20
74.663861
30
0.0
10
77.507749
20
74.758817
30
0.0
10
77.156677
20
74.663861
30
0.0
10
76.901335
20
74.404884
30
0.0
10
76.811350
20
74.052505
30
0.0
10
76.833236
20
74.165936
30
0.0
10
76.767825
20
74.113719
30
0.0
10
76.042864
20
73.756000
30
0.0
10
74.694956
20
73.368561
30
0.0
10
72.843782
20
73.016078
30
0.0
10
67.963118
20
72.501568
30
0.0
10
61.954390
20
72.311516
30
0.0
10
55.945597
20
72.501568
30
0.0
10
51.065001
20
73.016078
30
0.0
10
49.213832
20
73.368561
30
0.0
10
47.865916
20
73.756000
30
0.0
10
47.140952
20
74.113719
30
0.0
10
47.075549
20
74.165929
30
0.0
10
47.097428
20
74.052505
30
0.0
10
46.893502
20
74.554499
30
0.0
10
46.391508
20
74.758425
30
0.0
10
46.391511
20
74.758425
30
0.0
62
0
0
LWPOLYLINE
100
AcDbPolyline
8
Main
90
40
70
0
10
46.391511
20
77.195823
30
0.0
10
45.902753
20
76.984642
30
0.0
10
45.705996
20
76.489901
30
0.0
10
45.888733
20
75.877572
30
0.0
10
46.294940
20
75.445306
30
0.0
10
47.383062
20
74.887640
30
0.0
10
48.903024
20
74.447114
30
0.0
10
50.850089
20
74.078351
30
0.0
10
55.856711
20
73.548709
30
0.0
10
61.955751
20
73.356108
30
0.0
10
68.053946
20
73.548709
30
0.0
10
73.060049
20
74.078351
30
0.0
10
75.007111
20
74.447117
30
0.0
10
76.527081
20
74.887640
30
0.0
10
77.615203
20
75.445306
30
0.0
10
78.021416
20
75.877559
30
0.0
10
78.204147
20
76.489901
30
0.0
10
78.114163
20
76.842280
30
0.0
10
77.858821
20
77.101256
30
0.0
10
77.507749
20
77.196213
30
0.0
10
77.156677
20
77.101256
30
0.0
10
76.901335
20
76.842280
30
0.0
10
76.811350
20
76.489901
30
0.0
10
76.833230
20
76.603320
30
0.0
10
76.767825
20
76.551115
30
0.0
10
76.044227
20
76.193395
30
0.0
10
74.696307
20
75.805957
30
0.0
10
72.845143
20
75.453473
30
0.0
10
67.964547
20
74.938963
30
0.0
10
61.955751
20
74.748911
30
0.0
10
55.946112
20
74.938963
30
0.0
10
51.065001
20
75.453473
30
0.0
10
49.213827
20
75.805960
30
0.0
10
47.865916
20
76.193395
30
0.0
10
47.142318
20
76.551115
30
0.0
10
47.076920
20
76.603315
30
0.0
10
47.098794
20
76.489901
30
0.0
10
46.894393
20
76.992392
30
0.0
10
46.391508
20
77.195823
30
0.0
10
46.391511
20
77.195823
30
0.0
62
0
0
LWPOLYLINE
100
AcDbPolyline
8
Main
90
40
70
0
10
46.391511
20
79.633218
30
0.0
10
45.902754
20
79.422038
30
0.0
10
45.705996
20
78.927299
30
0.0
10
45.888733
20
78.314967
30
0.0
10
46.294940
20
77.882701
30
0.0
10
47.383062
20
77.325038
30
0.0
10
48.903024
20
76.884510
30
0.0
10
50.850089
20
76.515746
30
0.0
10
55.856711
20
75.986104
30
0.0
10
61.955751
20
75.793503
30
0.0
10
68.053946
20
75.986104
30
0.0
10
73.060049
20
76.515746
30
0.0
10
75.007111
20
76.884513
30
0.0
10
76.527081
20
77.325038
30
0.0
10
77.615203
20
77.882701
30
0.0
10
78.021416
20
78.314955
30
0.0
10
78.204147
20
78.927299
30
0.0
10
78.114163
20
79.279678
30
0.0
10
77.858821
20
79.538654
30
0.0
10
77.507749
20
79.633611
30
0.0
10
77.156677
20
79.538654
30
0.0
10
76.901335
20
79.279678
30
0.0
10
76.811350
20
78.927299
30
0.0
10
76.833230
20
79.040716
30
0.0
10
76.767825
20
78.988513
30
0.0
10
76.044227
20
78.630793
30
0.0
10
74.696307
20
78.243353
30
0.0
10
72.845143
20
77.890869
30
0.0
10
67.964547
20
77.376359
30
0.0
10
61.955751
20
77.186306
30
0.0
10
55.946112
20
77.376362
30
0.0
10
51.065001
20
77.890869
30
0.0
10
49.213827
20
78.243356
30
0.0
10
47.865916
20
78.630793
30
0.0
10
47.142318
20
78.988513
30
0.0
10
47.076920
20
79.040711
30
0.0
10
47.098794
20
78.927299
30
0.0
10
46.894392
20
79.429788
30
0.0
10
46.391508
20
79.633218
30
0.0
10
46.391511
20
79.633218
30
0.0
62
0
0
LWPOLYLINE
100
AcDbPolyline
8
Main
90
26
70
0
10
77.507756
20
81.364381
30
0.0
10
77.191780
20
80.873161
30
0.0
10
76.285549
20
80.415637
30
0.0
10
74.851603
20
80.001610
30
0.0
10
72.952483
20
79.640882
30
0.0
10
68.008885
20
79.118528
30
0.0
10
61.955085
20
78.926985
30
0.0
10
55.901283
20
79.118528
30
0.0
10
50.957684
20
79.640882
30
0.0
10
49.058564
20
80.001610
30
0.0
10
47.624618
20
80.415636
30
0.0
10
46.718386
20
80.873160
30
0.0
10
46.402411
20
81.364381
30
0.0
10
46.704010
20
81.842114
30
0.0
10
47.586283
20
82.297132
30
0.0
10
49.015437
20
82.716650
30
0.0
10
50.957678
20
83.087881
30
0.0
10
56.003330
20
83.616243
30
0.0
10
61.955085
20
83.801779
30
0.0
10
67.906838
20
83.616243
30
0.0
10
72.952489
20
83.087881
30
0.0
10
74.894730
20
82.716650
30
0.0
10
76.323883
20
82.297132
30
0.0
10
77.206157
20
81.842114
30
0.0
10
77.507756
20
81.364381
30
0.0
10
77.507756
20
81.364381
30
0.0
62
0
0
LWPOLYLINE
100
AcDbPolyline
8
Main
90
14
70
0
10
61.766693
20
48.439448
30
0.0
10
61.360013
20
48.263718
30
0.0
10
61.196787
20
47.851861
30
0.0
10
61.196787
20
38.468159
30
0.0
10
61.274325
20
38.178785
30
0.0
10
61.486160
20
37.966950
30
0.0
10
61.775533
20
37.889412
30
0.0
10
62.064906
20
37.966950
30
0.0
10
62.276742
20
38.178785
30
0.0
10
62.354279
20
38.468159
30
0.0
10
62.354279
20
47.851861
30
0.0
10
62.184851
20
48.270020
30
0.0
10
61.766693
20
48.439448
30
0.0
10
61.766693
20
48.439448
30
0.0
  0
ENDSEC
  0
SECTION
  2
OBJECTS
  0
DICTIONARY
  5
C
330
0
100
AcDbDictionary
  3
ACAD_GROUP
350
D
  3
ACAD_MLINESTYLE
350
17
  0
DICTIONARY
  5
D
330
C
100
AcDbDictionary
  0
DICTIONARY
  5
1A
330
C
100
AcDbDictionary
  0
DICTIONARY
  5
17
330
C
100
AcDbDictionary
  3
STANDARD
350
18
  0
DICTIONARY
  5
19
330
C
100
AcDbDictionary
  0
ENDSEC
  0
EOF
