999
Inkscape export via OpenSCAD DXF Export
  0
SECTION
  2
HEADER
  9
$ACADVER
  1
AC1014
  9
$HANDSEED
  5
FFFF
  9
$MEASUREMENT
 70
     1
  0
ENDSEC
  0
SECTION
  2
TABLES
  0
TABLE
  2
VPORT
  5
8
330
0
100
AcDbSymbolTable
 70
     4
  0
VPORT
  5
2E
330
8
100
AcDbSymbolTableRecord
100
AcDbViewportTableRecord
  2
*ACTIVE
 70
     0
 10
0.0
 20
0.0
 11
1.0
 21
1.0
 12
210.0
 22
148.5
 13
0.0
 23
0.0
 14
10.0
 24
10.0
 15
10.0
 25
10.0
 16
0.0
 26
0.0
 36
1.0
 17
0.0
 27
0.0
 37
0.0
 40
341.0
 41
1.24
 42
50.0
 43
0.0
 44
0.0
 50
0.0
 51
0.0
 71
     0
 72
   100
 73
     1
 74
     3
 75
     0
 76
     0
 77
     0
 78
     0
  0
ENDTAB
  0
TABLE
  2
LTYPE
  5
5
330
0
100
AcDbSymbolTable
 70
     1
  0
LTYPE
  5
14
330
5
100
AcDbSymbolTableRecord
100
AcDbLinetypeTableRecord
  2
BYBLOCK
 70
     0
  3

 72
    65
 73
     0
 40
0.0
  0
LTYPE
  5
15
330
5
100
AcDbSymbolTableRecord
100
AcDbLinetypeTableRecord
  2
BYLAYER
 70
     0
  3

 72
    65
 73
     0
 40
0.0
  0
LTYPE
  5
16
330
5
100
AcDbSymbolTableRecord
100
AcDbLinetypeTableRecord
  2
CONTINUOUS
 70
     0
  3
Solid line
 72
    65
 73
     0
 40
0.0
  0
ENDTAB
  0
TABLE
0
TABLE
2
LAYER
5
2
330
0
100
AcDbSymbolTable
70
1
0
LAYER
5
10
330
2
100
AcDbSymbolTableRecord
100
AcDbLayerTableRecord
2
Border
70
0
62
7
6
CONTINUOUS
0
ENDTAB
0
ENDSEC
  0
ENDTAB
  0
TABLE
  2
STYLE
  5
3
330
0
100
AcDbSymbolTable
 70
     1
  0
STYLE
  5
11
330
3
100
AcDbSymbolTableRecord
100
AcDbTextStyleTableRecord
  2
STANDARD
 70
     0
 40
0.0
 41
1.0
 50
0.0
 71
     0
 42
2.5
  3
txt
  4

  0
ENDTAB
  0
TABLE
  2
VIEW
  5
6
330
0
100
AcDbSymbolTable
 70
     0
  0
ENDTAB
  0
TABLE
  2
UCS
  5
7
330
0
100
AcDbSymbolTable
 70
     0
  0
ENDTAB
  0
TABLE
  2
APPID
  5
9
330
0
100
AcDbSymbolTable
 70
     2
  0
APPID
  5
12
330
9
100
AcDbSymbolTableRecord
100
AcDbRegAppTableRecord
  2
ACAD
 70
     0
  0
ENDTAB
  0
TABLE
  2
DIMSTYLE
  5
A
330
0
100
AcDbSymbolTable
 70
     1
  0
DIMSTYLE
105
27
330
A
100
AcDbSymbolTableRecord
100
AcDbDimStyleTableRecord
  2
ISO-25
 70
     0
  3

  4

  5

  6

  7

 40
1.0
 41
2.5
 42
0.625
 43
3.75
 44
1.25
 45
0.0
 46
0.0
 47
0.0
 48
0.0
140
2.5
141
2.5
142
0.0
143
0.03937007874016
144
1.0
145
0.0
146
1.0
147
0.625
 71
     0
 72
     0
 73
     0
 74
     0
 75
     0
 76
     0
 77
     1
 78
     8
170
     0
171
     3
172
     1
173
     0
174
     0
175
     0
176
     0
177
     0
178
     0
270
     2
271
     2
272
     2
273
     2
274
     3
340
11
275
     0
280
     0
281
     0
282
     0
283
     0
284
     8
285
     0
286
     0
287
     3
288
     0
  0
ENDTAB
  0
TABLE
  2
BLOCK_RECORD
  5
1
330
0
100
AcDbSymbolTable
 70
     1
  0
BLOCK_RECORD
  5
1F
330
1
100
AcDbSymbolTableRecord
100
AcDbBlockTableRecord
  2
*MODEL_SPACE
  0
BLOCK_RECORD
  5
1B
330
1
100
AcDbSymbolTableRecord
100
AcDbBlockTableRecord
  2
*PAPER_SPACE
  0
ENDTAB
  0
ENDSEC
  0
SECTION
  2
BLOCKS
  0
BLOCK
  5
20
330
1F
100
AcDbEntity
  8
0
100
AcDbBlockBegin
  2
*MODEL_SPACE
 70
     0
 10
0.0
 20
0.0
 30
0.0
  3
*MODEL_SPACE
  1

  0
ENDBLK
  5
21
330
1F
100
AcDbEntity
  8
0
100
AcDbBlockEnd
  0
BLOCK
  5
1C
330
1B
100
AcDbEntity
 67
     1
  8
0
100
AcDbBlockBegin
  2
*PAPER_SPACE
  1

  0
ENDBLK
  5
1D
330
1B
100
AcDbEntity
 67
     1
  8
0
100
AcDbBlockEnd
  0
ENDSEC
  0
SECTION
  2
ENTITIES
0
DIMENSION
5
83
100
AcDbEntity
62
256
370
-1
6
ByLayer
1
total_width
3
Standard
70
0
71
5
72
1
41
1.0
100
AcDbAlignedDimension
13
2.498659
23
0.000000
33
0.0
14
101.672413
24
0.000000
34
0.0
50
0.000000
100
AcDbRotatedDimension
0
DIMENSION
5
83
100
AcDbEntity
62
256
370
-1
6
ByLayer
1
total_minx
3
Standard
70
0
71
5
72
1
41
1.0
100
AcDbAlignedDimension
13
2.498659
23
0.000000
33
0.0
14
0.000000
24
0.000000
34
0.0
50
0.000000
100
AcDbRotatedDimension
0
DIMENSION
5
83
100
AcDbEntity
62
256
370
-1
6
ByLayer
1
total_maxx
3
Standard
70
0
71
5
72
1
41
1.0
100
AcDbAlignedDimension
13
0.000000
23
0.000000
33
0.0
14
101.672413
24
0.000000
34
0.0
50
0.000000
100
AcDbRotatedDimension
0
DIMENSION
5
83
100
AcDbEntity
62
256
370
-1
6
ByLayer
1
total_height
3
Standard
70
0
71
5
72
1
41
1.0
100
AcDbAlignedDimension
13
0.000000
23
-4.200230
33
0.0
14
0.000000
24
70.653508
34
0.0
50
90.000000
100
AcDbRotatedDimension
0
DIMENSION
5
83
100
AcDbEntity
62
256
370
-1
6
ByLayer
1
total_miny
3
Standard
70
0
71
5
72
1
41
1.0
100
AcDbAlignedDimension
13
-4.200230
23
0.000000
33
0.0
14
0.000000
24
0.000000
34
0.0
50
0.000000
100
AcDbRotatedDimension
0
DIMENSION
5
83
100
AcDbEntity
62
256
370
-1
6
ByLayer
1
total_maxy
3
Standard
70
0
71
5
72
1
41
1.0
100
AcDbAlignedDimension
13
0.000000
23
0.000000
33
0.0
14
70.653508
24
0.000000
34
0.0
50
0.000000
100
AcDbRotatedDimension
0
DIMENSION
8
Border
5
83
100
AcDbEntity
62
256
370
-1
6
ByLayer
1
Border_width
3
Standard
70
0
71
5
72
1
41
1.0
100
AcDbAlignedDimension
13
2.498659
23
0.000000
33
0.0
14
101.672413
24
0.000000
34
0.0
50
0.000000
100
AcDbRotatedDimension
0
DIMENSION
8
Border
5
83
100
AcDbEntity
62
256
370
-1
6
ByLayer
1
Border_minx
3
Standard
70
0
71
5
72
1
41
1.0
100
AcDbAlignedDimension
13
2.498659
23
0.000000
33
0.0
14
0.000000
24
0.000000
34
0.0
50
0.000000
100
AcDbRotatedDimension
0
DIMENSION
8
Border
5
83
100
AcDbEntity
62
256
370
-1
6
ByLayer
1
Border_maxx
3
Standard
70
0
71
5
72
1
41
1.0
100
AcDbAlignedDimension
13
0.000000
23
0.000000
33
0.0
14
101.672413
24
0.000000
34
0.0
50
0.000000
100
AcDbRotatedDimension
0
DIMENSION
8
Border
5
83
100
AcDbEntity
62
256
370
-1
6
ByLayer
1
Border_height
3
Standard
70
0
71
5
72
1
41
1.0
100
AcDbAlignedDimension
13
0.000000
23
-4.200230
33
0.0
14
0.000000
24
70.653508
34
0.0
50
90.000000
100
AcDbRotatedDimension
0
DIMENSION
8
Border
5
83
100
AcDbEntity
62
256
370
-1
6
ByLayer
1
Border_miny
3
Standard
70
0
71
5
72
1
41
1.0
100
AcDbAlignedDimension
13
-4.200230
23
0.000000
33
0.0
14
0.000000
24
0.000000
34
0.0
50
0.000000
100
AcDbRotatedDimension
0
DIMENSION
8
Border
5
83
100
AcDbEntity
62
256
370
-1
6
ByLayer
1
Border_maxy
3
Standard
70
0
71
5
72
1
41
1.0
100
AcDbAlignedDimension
13
0.000000
23
0.000000
33
0.0
14
70.653508
24
0.000000
34
0.0
50
0.000000
100
AcDbRotatedDimension
62
0
0
LWPOLYLINE
100
AcDbPolyline
8
Border
90
331
70
0
10
62.510077
20
70.653508
30
0.0
10
62.296906
20
70.643046
30
0.0
10
58.588310
20
70.517088
30
0.0
10
54.442284
20
70.348514
30
0.0
10
52.301561
20
70.056648
30
0.0
10
50.167073
20
69.524211
30
0.0
10
48.077350
20
68.674564
30
0.0
10
46.070924
20
67.431068
30
0.0
10
45.509308
20
66.835580
30
0.0
10
45.178997
20
66.086641
30
0.0
10
45.029907
20
64.874302
30
0.0
10
44.690356
20
64.055959
30
0.0
10
44.668951
20
63.170227
30
0.0
10
44.833735
20
62.157983
30
0.0
10
44.656996
20
61.503986
30
0.0
10
44.668951
20
60.826634
30
0.0
10
44.833735
20
59.814390
30
0.0
10
44.656996
20
59.160393
30
0.0
10
44.668951
20
58.483041
30
0.0
10
44.833735
20
57.470797
30
0.0
10
44.656996
20
56.816800
30
0.0
10
44.668951
20
56.139447
30
0.0
10
44.833735
20
55.127203
30
0.0
10
44.656996
20
54.473206
30
0.0
10
44.668951
20
53.795854
30
0.0
10
44.833735
20
52.783610
30
0.0
10
44.656996
20
52.129613
30
0.0
10
44.668951
20
51.452261
30
0.0
10
44.833735
20
50.440017
30
0.0
10
44.656996
20
49.786020
30
0.0
10
44.668951
20
49.108668
30
0.0
10
44.833735
20
48.096424
30
0.0
10
44.656996
20
47.442427
30
0.0
10
44.668951
20
46.765074
30
0.0
10
44.921359
20
45.210088
30
0.0
10
45.104451
20
44.603265
30
0.0
10
45.599533
20
43.715558
30
0.0
10
46.203867
20
42.961914
30
0.0
10
47.649442
20
41.814863
30
0.0
10
49.259477
20
41.078214
30
0.0
10
50.852270
20
40.668069
30
0.0
10
51.344006
20
40.596141
30
0.0
10
52.114296
20
38.833980
30
0.0
10
53.063775
20
37.131756
30
0.0
10
54.441687
20
35.277076
30
0.0
10
56.137291
20
33.630826
30
0.0
10
58.149957
20
32.276834
30
0.0
10
60.479051
20
31.298929
30
0.0
10
60.728843
20
31.196919
30
0.0
10
60.728843
20
23.398456
30
0.0
10
60.745833
20
23.131663
30
0.0
10
60.859611
20
22.608539
30
0.0
10
60.880552
20
22.553610
30
0.0
10
60.581063
20
22.391442
30
0.0
10
60.000471
20
23.109306
30
0.0
10
59.218487
20
23.538615
30
0.0
10
58.333106
20
23.647727
30
0.0
10
57.442323
20
23.404995
30
0.0
10
53.274335
20
21.321656
30
0.0
10
52.449303
20
21.997798
30
0.0
10
51.410709
20
22.241046
30
0.0
10
48.774167
20
22.241046
30
0.0
10
48.192190
20
22.165193
30
0.0
10
47.466539
20
22.605503
30
0.0
10
46.631976
20
22.760245
30
0.0
10
45.478488
20
22.760245
30
0.0
10
44.746504
20
22.643456
30
0.0
10
44.086980
20
22.305127
30
0.0
10
42.350210
20
21.033936
30
0.0
10
42.350210
20
24.130829
30
0.0
10
42.384212
20
24.197526
30
0.0
10
42.632695
20
25.251620
30
0.0
10
42.632695
20
27.276108
30
0.0
10
42.540200
20
27.931600
30
0.0
10
42.269125
20
28.535527
30
0.0
10
42.350210
20
28.406055
30
0.0
10
42.350210
20
32.489034
30
0.0
10
42.157514
20
33.423283
30
0.0
10
41.634502
20
34.179902
30
0.0
10
40.862521
20
34.679928
30
0.0
10
39.922916
20
34.844396
30
0.0
10
39.917695
20
34.844396
30
0.0
10
39.912473
20
34.845807
30
0.0
10
39.975248
20
35.117830
30
0.0
10
40.035407
20
35.647493
30
0.0
10
40.035407
20
39.708239
30
0.0
10
39.813359
20
40.703404
30
0.0
10
39.191870
20
41.511707
30
0.0
10
39.350115
20
41.669952
30
0.0
10
39.858419
20
42.433616
30
0.0
10
40.036716
20
43.333485
30
0.0
10
40.036716
20
50.555206
30
0.0
10
39.863892
20
51.440754
30
0.0
10
39.371041
20
52.196506
30
0.0
10
38.056693
20
53.551395
30
0.0
10
37.283710
20
54.080492
30
0.0
10
36.365696
20
54.266767
30
0.0
10
30.441321
20
54.266767
30
0.0
10
29.695584
20
54.146216
30
0.0
10
29.026273
20
53.795956
30
0.0
10
28.614314
20
53.486005
30
0.0
10
28.176198
20
53.724026
30
0.0
10
27.339200
20
53.993435
30
0.0
10
26.711452
20
54.071903
30
0.0
10
26.419811
20
54.090214
30
0.0
10
25.363101
20
54.090214
30
0.0
10
25.363101
20
61.973685
30
0.0
10
25.170574
20
62.907604
30
0.0
10
24.647890
20
63.664072
30
0.0
10
23.876315
20
64.164187
30
0.0
10
22.937116
20
64.329048
30
0.0
10
21.860790
20
64.033483
30
0.0
10
20.615756
20
63.340345
30
0.0
10
20.239526
20
63.833391
30
0.0
10
19.756474
20
64.206064
30
0.0
10
19.193993
20
64.442398
30
0.0
10
18.579475
20
64.526424
30
0.0
10
5.123431
20
64.566966
30
0.0
10
4.203684
20
64.383876
30
0.0
10
3.452099
20
63.879323
30
0.0
10
2.945050
20
63.129425
30
0.0
10
2.758913
20
62.210295
30
0.0
10
2.758913
20
54.677317
30
0.0
10
2.870717
20
53.941675
30
0.0
10
3.178547
20
53.321754
30
0.0
10
3.640278
20
52.835009
30
0.0
10
4.213783
20
52.498896
30
0.0
10
4.856938
20
52.330869
30
0.0
10
5.527616
20
52.348383
30
0.0
10
6.183692
20
52.568896
30
0.0
10
6.783040
20
53.009861
30
0.0
10
7.303548
20
53.530368
30
0.0
10
7.346706
20
38.762592
30
0.0
10
5.048886
20
35.146501
30
0.0
10
4.906335
20
34.881017
30
0.0
10
3.995716
20
34.690194
30
0.0
10
3.253203
20
34.184173
30
0.0
10
2.752992
20
33.437733
30
0.0
10
2.569281
20
32.525653
30
0.0
10
2.569281
20
31.183841
30
0.0
10
2.742463
20
30.297444
30
0.0
10
3.236263
20
29.541232
30
0.0
10
3.393200
20
29.380374
30
0.0
10
3.393200
20
1.675755
30
0.0
10
3.189182
20
1.471737
30
0.0
10
2.678017
20
0.706709
30
0.0
10
2.498659
20
-0.195722
30
0.0
10
2.498659
20
-1.678777
30
0.0
10
2.684004
20
-2.596005
30
0.0
10
3.189074
20
-3.345035
30
0.0
10
3.938103
20
-3.850104
30
0.0
10
4.855330
20
-4.035446
30
0.0
10
20.670661
20
-4.035446
30
0.0
10
20.787056
20
-4.028898
30
0.0
10
20.912606
20
-4.035446
30
0.0
10
25.079284
20
-4.058983
30
0.0
10
25.773105
20
-3.958775
30
0.0
10
26.394600
20
-3.666875
30
0.0
10
26.905755
20
-3.208439
30
0.0
10
27.268556
20
-2.608621
30
0.0
10
27.502654
20
-2.044961
30
0.0
10
27.894996
20
-1.108567
30
0.0
10
28.095091
20
-0.708376
30
0.0
10
28.153943
20
-0.582827
30
0.0
10
28.208870
20
-0.454664
30
0.0
10
28.756841
20
0.043616
30
0.0
10
28.277138
20
-0.551598
30
0.0
10
28.027652
20
-1.214460
30
0.0
10
27.990505
20
-1.899354
30
0.0
10
28.147819
20
-2.560662
30
0.0
10
28.481717
20
-3.152765
30
0.0
10
28.974322
20
-3.630046
30
0.0
10
29.607755
20
-3.946887
30
0.0
10
30.364139
20
-4.057671
30
0.0
10
35.378277
20
-4.010593
30
0.0
10
35.944559
20
-4.082521
30
0.0
10
40.511428
20
-4.082521
30
0.0
10
41.000547
20
-4.030211
30
0.0
10
41.876780
20
-4.200230
30
0.0
10
49.809948
20
-4.200230
30
0.0
10
50.537399
20
-4.084765
30
0.0
10
51.179923
20
-3.759787
30
0.0
10
51.694586
20
-3.256147
30
0.0
10
52.038453
20
-2.604698
30
0.0
10
52.332709
20
-2.898960
30
0.0
10
53.266487
20
-3.471775
30
0.0
10
54.490595
20
-3.871966
30
0.0
10
55.224276
20
-3.989667
30
0.0
10
58.496412
20
-3.989667
30
0.0
10
59.526966
20
-3.751646
30
0.0
10
59.720522
20
-3.657485
30
0.0
10
59.914079
20
-3.751646
30
0.0
10
60.944630
20
-3.988363
30
0.0
10
65.864607
20
-3.988363
30
0.0
10
66.816692
20
-3.786961
30
0.0
10
67.419593
20
-4.019746
30
0.0
10
68.267052
20
-4.176687
30
0.0
10
70.338620
20
-4.176687
30
0.0
10
71.093228
20
-4.052441
30
0.0
10
72.029614
20
-3.735957
30
0.0
10
72.679191
20
-4.063120
30
0.0
10
73.397584
20
-4.176687
30
0.0
10
77.517185
20
-4.176687
30
0.0
10
78.534661
20
-3.942589
30
0.0
10
79.329808
20
-4.083833
30
0.0
10
87.474837
20
-4.083833
30
0.0
10
88.522392
20
-3.834038
30
0.0
10
89.126120
20
-4.106493
30
0.0
10
89.781812
20
-4.200230
30
0.0
10
97.714983
20
-4.200230
30
0.0
10
98.450371
20
-4.088053
30
0.0
10
99.070016
20
-3.780013
30
0.0
10
99.556486
20
-3.318206
30
0.0
10
99.892351
20
-2.744730
30
0.0
10
100.060179
20
-2.101684
30
0.0
10
100.042538
20
-1.431165
30
0.0
10
99.821999
20
-0.775271
30
0.0
10
99.381129
20
-0.176099
30
0.0
10
98.066781
20
1.136942
30
0.0
10
97.953003
20
1.360575
30
0.0
10
97.953003
20
10.550549
30
0.0
10
98.560303
20
10.237650
30
0.0
10
99.191345
20
10.115902
30
0.0
10
99.813920
20
10.168688
30
0.0
10
100.395816
20
10.379393
30
0.0
10
100.904823
20
10.731403
30
0.0
10
101.308732
20
11.208102
30
0.0
10
101.575332
20
11.792874
30
0.0
10
101.672413
20
12.469104
30
0.0
10
101.672413
20
19.884380
30
0.0
10
101.487076
20
20.801606
30
0.0
10
100.982005
20
21.550636
30
0.0
10
100.232968
20
22.055706
30
0.0
10
99.315736
20
22.241052
30
0.0
10
96.679193
20
22.241052
30
0.0
10
96.097220
20
22.165199
30
0.0
10
95.371569
20
22.605508
30
0.0
10
94.537002
20
22.760250
30
0.0
10
93.383518
20
22.760250
30
0.0
10
92.650848
20
22.643664
30
0.0
10
91.990700
20
22.305133
30
0.0
10
89.964906
20
20.822078
30
0.0
10
89.214226
20
21.596301
30
0.0
10
89.216766
20
21.589753
30
0.0
10
88.442907
20
22.123850
30
0.0
10
87.521847
20
22.312973
30
0.0
10
80.412604
20
22.312973
30
0.0
10
79.906481
20
22.256735
30
0.0
10
79.920874
20
33.017385
30
0.0
10
79.729198
20
33.951494
30
0.0
10
79.207366
20
34.708517
30
0.0
10
78.436447
20
35.209469
30
0.0
10
77.497505
20
35.375366
30
0.0
10
76.708746
20
35.215657
30
0.0
10
76.019680
20
34.799929
30
0.0
10
68.533783
20
28.302736
30
0.0
10
67.942619
20
27.521041
30
0.0
10
67.722908
20
26.603656
30
0.0
10
67.878882
20
25.673311
30
0.0
10
68.414773
20
24.852736
30
0.0
10
68.933972
20
24.334844
30
0.0
10
69.079138
20
24.205372
30
0.0
10
69.266156
20
24.062819
30
0.0
10
69.420478
20
23.967349
30
0.0
10
69.484559
20
23.929423
30
0.0
10
69.585259
20
23.881034
30
0.0
10
69.697730
20
23.827414
30
0.0
10
69.806281
20
23.788180
30
0.0
10
69.920059
20
23.748945
30
0.0
10
70.048224
20
23.716250
30
0.0
10
70.138459
20
23.694011
30
0.0
10
70.317631
20
23.658699
30
0.0
10
70.457571
20
23.518762
30
0.0
10
70.547806
20
23.342209
30
0.0
10
70.547806
20
22.137716
30
0.0
10
68.065588
20
22.124649
30
0.0
10
67.397297
20
22.022640
30
0.0
10
67.397297
20
22.120726
30
0.0
10
67.305193
20
22.772910
30
0.0
10
67.042539
20
23.363786
30
0.0
10
66.629332
20
23.861161
30
0.0
10
66.085565
20
24.232838
30
0.0
10
66.085565
20
31.107988
30
0.0
10
67.742559
20
31.803742
30
0.0
10
69.164730
20
32.656897
30
0.0
10
70.435008
20
33.584558
30
0.0
10
72.530445
20
35.368830
30
0.0
10
72.751467
20
35.587233
30
0.0
10
73.747563
20
36.827931
30
0.0
10
74.571575
20
38.107698
30
0.0
10
75.823510
20
40.704687
30
0.0
10
79.676315
20
41.864713
30
0.0
10
80.105273
20
42.079197
30
0.0
10
81.225206
20
42.997713
30
0.0
10
81.993776
20
44.108961
30
0.0
10
82.386337
20
45.385950
30
0.0
10
82.378245
20
46.801693
30
0.0
10
82.276239
20
47.241116
30
0.0
10
82.423272
20
48.162570
30
0.0
10
82.378245
20
49.145286
30
0.0
10
82.276239
20
49.584710
30
0.0
10
82.423272
20
50.506163
30
0.0
10
82.378245
20
51.488879
30
0.0
10
82.276239
20
51.928303
30
0.0
10
82.423272
20
52.849756
30
0.0
10
82.378245
20
53.832472
30
0.0
10
82.276239
20
54.271896
30
0.0
10
82.423272
20
55.193349
30
0.0
10
82.378245
20
56.176065
30
0.0
10
82.276239
20
56.615489
30
0.0
10
82.423272
20
57.536942
30
0.0
10
82.378245
20
58.519659
30
0.0
10
82.276239
20
58.959082
30
0.0
10
82.423272
20
59.880536
30
0.0
10
82.378245
20
60.863252
30
0.0
10
82.276239
20
61.302676
30
0.0
10
82.423272
20
62.224129
30
0.0
10
82.378245
20
63.206845
30
0.0
10
82.205616
20
63.856826
30
0.0
10
82.220822
20
64.872671
30
0.0
10
81.999253
20
65.792631
30
0.0
10
81.609822
20
66.599669
30
0.0
10
81.121442
20
67.276746
30
0.0
10
80.097569
20
68.270477
30
0.0
10
78.929229
20
69.007729
30
0.0
10
77.625367
20
69.474542
30
0.0
10
76.194928
20
69.656958
30
0.0
10
72.741985
20
70.188145
30
0.0
10
69.299962
20
70.491871
30
0.0
10
62.510015
20
70.653508
30
0.0
10
62.510077
20
70.653508
30
0.0
62
0
0
LWPOLYLINE
100
AcDbPolyline
8
Border
90
24
70
0
10
15.074548
20
25.555032
30
0.0
10
32.202919
20
25.555032
30
0.0
10
32.082599
20
24.891973
30
0.0
10
32.059062
20
24.256378
30
0.0
10
32.123341
20
23.620751
30
0.0
10
32.355934
20
23.025731
30
0.0
10
30.938270
20
23.016587
30
0.0
10
30.256962
20
22.911468
30
0.0
10
29.646793
20
22.621285
30
0.0
10
29.143872
20
22.170087
30
0.0
10
28.784310
20
21.581922
30
0.0
10
27.948619
20
19.614977
30
0.0
10
26.810826
20
21.714010
30
0.0
10
26.239538
20
22.408367
30
0.0
10
25.477455
20
22.828421
30
0.0
10
24.615028
20
22.944330
30
0.0
10
23.742706
20
22.726254
30
0.0
10
23.389598
20
22.561470
30
0.0
10
22.678150
20
22.050117
30
0.0
10
20.490186
20
19.749681
30
0.0
10
19.850668
20
19.839919
30
0.0
10
15.074550
20
19.839919
30
0.0
10
15.074550
20
25.555043
30
0.0
10
15.074548
20
25.555032
30
0.0
62
0
0
LWPOLYLINE
100
AcDbPolyline
8
Border
90
10
70
0
10
22.536904
20
11.059280
30
0.0
10
23.468064
20
9.060949
30
0.0
10
21.877768
20
5.316693
30
0.0
10
14.815601
20
5.316693
30
0.0
10
14.815601
20
9.241425
30
0.0
10
19.756503
20
9.241425
30
0.0
10
20.664923
20
9.423254
30
0.0
10
21.433114
20
9.941104
30
0.0
10
22.536904
20
11.059280
30
0.0
10
22.536904
20
11.059280
30
0.0
  0
ENDSEC
  0
SECTION
  2
OBJECTS
  0
DICTIONARY
  5
C
330
0
100
AcDbDictionary
  3
ACAD_GROUP
350
D
  3
ACAD_MLINESTYLE
350
17
  0
DICTIONARY
  5
D
330
C
100
AcDbDictionary
  0
DICTIONARY
  5
1A
330
C
100
AcDbDictionary
  0
DICTIONARY
  5
17
330
C
100
AcDbDictionary
  3
STANDARD
350
18
  0
DICTIONARY
  5
19
330
C
100
AcDbDictionary
  0
ENDSEC
  0
EOF
