<?xml version="1.0" encoding="UTF-8" standalone="no"?>
<svg
   xmlns:dc="http://purl.org/dc/elements/1.1/"
   xmlns:cc="http://creativecommons.org/ns#"
   xmlns:rdf="http://www.w3.org/1999/02/22-rdf-syntax-ns#"
   xmlns:svg="http://www.w3.org/2000/svg"
   xmlns="http://www.w3.org/2000/svg"
   xmlns:sodipodi="http://sodipodi.sourceforge.net/DTD/sodipodi-0.dtd"
   xmlns:inkscape="http://www.inkscape.org/namespaces/inkscape"
   version="1.1"
   id="svg4434"
   viewBox="0 0 354.33072 354.33072"
   height="100mm"
   width="100mm"
   inkscape:version="0.91 r13725"
   sodipodi:docname="TheExtruder_3d_model_base.svg">
  <sodipodi:namedview
     pagecolor="#ffffff"
     bordercolor="#666666"
     borderopacity="1"
     objecttolerance="10"
     gridtolerance="10"
     guidetolerance="10"
     inkscape:pageopacity="0"
     inkscape:pageshadow="2"
     inkscape:window-width="1920"
     inkscape:window-height="1149"
     id="namedview4166"
     showgrid="false"
     inkscape:zoom="1"
     inkscape:cx="50.303718"
     inkscape:cy="247.01024"
     inkscape:window-x="0"
     inkscape:window-y="0"
     inkscape:window-maximized="1"
     inkscape:current-layer="layer1"
     units="mm" />
  <defs
     id="defs4436" />
  <metadata
     id="metadata4439">
    <rdf:RDF>
      <cc:Work
         rdf:about="">
        <dc:format>image/svg+xml</dc:format>
        <dc:type
           rdf:resource="http://purl.org/dc/dcmitype/StillImage" />
        <dc:title />
      </cc:Work>
    </rdf:RDF>
  </metadata>
  <g
     inkscape:groupmode="layer"
     id="layer1"
     inkscape:label="Main"
     transform="translate(0,-5.6692805)"
     style="display:inline">
    <path
       inkscape:connector-curvature="0"
       style="color:#000000;font-style:normal;font-variant:normal;font-weight:normal;font-stretch:normal;font-size:medium;line-height:normal;font-family:sans-serif;text-indent:0;text-align:start;text-decoration:none;text-decoration-line:none;text-decoration-style:solid;text-decoration-color:#000000;letter-spacing:normal;word-spacing:normal;text-transform:none;direction:ltr;block-progression:tb;writing-mode:lr-tb;baseline-shift:baseline;text-anchor:start;white-space:normal;clip-rule:nonzero;display:inline;overflow:visible;visibility:visible;opacity:1;isolation:auto;mix-blend-mode:normal;color-interpolation:sRGB;color-interpolation-filters:linearRGB;solid-color:#000000;solid-opacity:1;fill:#000000;fill-opacity:1;fill-rule:nonzero;stroke:none;stroke-width:2;stroke-linecap:round;stroke-linejoin:miter;stroke-miterlimit:4;stroke-dasharray:none;stroke-dashoffset:0;stroke-opacity:1;color-rendering:auto;image-rendering:auto;shape-rendering:auto;text-rendering:auto;enable-background:accumulate"
       d="m 188.62598,146.80929 a 2.4678015,2.4678015 0 0 0 -2.30368,3.23386 c 2.50641,8.06296 6.91784,16.25575 14.62219,21.1429 0.003,0.002 0.008,0.003 0.01,0.005 5.33592,3.57521 11.27553,6.10287 17.3548,7.85568 0.003,9.4e-4 0.005,0.005 0.01,0.005 a 2.4678015,2.4678015 0 0 0 1.22416,0.29398 2.4678015,2.4678015 0 0 0 0.1446,-0.01 2.4678015,2.4678015 0 0 0 0.0819,-0.005 2.4678015,2.4678015 0 0 0 1.13737,-0.3952 c 8.17888,-3.09498 16.44931,-7.1982 22.78634,-13.88962 l 0.0197,-0.0197 0.0247,-0.0247 c 3.90602,-4.33954 6.85435,-9.44775 8.93043,-14.80052 a 2.4678015,2.4678015 0 1 0 -4.59774,-1.78323 c -1.88288,4.85464 -4.54602,9.42912 -7.97621,13.24868 -5.49211,5.79125 -12.95438,9.59478 -20.68504,12.54499 -5.58908,-1.63746 -10.98989,-3.94741 -15.75957,-7.15206 l -0.0247,-0.0197 -0.0288,-0.0197 c -6.30362,-3.9944 -10.26212,-11.05043 -12.5604,-18.44388 a 2.4678015,2.4678015 0 0 0 -2.40974,-1.76875 z"
       id="path3572" />
    <path
       inkscape:connector-curvature="0"
       style="display:inline;fill:none;stroke:#000000;stroke-width:2.46755481;stroke-linecap:round;stroke-miterlimit:5"
       stroke-miterlimit="5"
       d="M 193.61408,144.37658"
       id="path3574" />
    <path
       inkscape:connector-curvature="0"
       style="display:inline"
       id="path3580"
       d="m 53.666701,74.845782 0,28.265828 -9.036186,-10.121898 -7.51864,-2.52925 0.07155,73.881058 9.107744,14.74857 -35.130578,0 9.830742,-15.47156 -0.217145,-73.303648 -7.084357,2.52924 -9.6135872,9.613598 0,-27.755058 49.5904472,0.14312 z" />
    <path
       style="display:inline"
       d="m 70.003906,75.569671 -14.160156,7.878906 0,95.859373 14.167969,0 1.589843,-0.13476 0,-1.45703 -1.591796,-1.51758 0,-45.61524 1.300781,-2.82031 2.240234,0.14453 1.15625,2.67578 0,48.72461 15.761719,0 0,-1.80664 -1.591797,-1.5918 0,-57.90625 -0.941406,-1.88086 -0.650391,-1.22851 -2.386718,-1.30078 -2.314454,-0.28711 -9.470703,0 -2.96289,0.72266 -0.146485,-3.9043 0,-34.554689 z"
       id="path6231" />
    <path
       inkscape:connector-curvature="0"
       style="display:inline"
       id="path3584"
       d="m 119.23704,112.65365 4.8438,4.99186 0,26.61258 -3.31886,3.3312 -3.31887,1.73469 -3.31886,1.66313 -8.31319,8.3132 -0.0173,1.65819 1.69768,1.65573 1.62859,1.65573 6.65006,0 6.65006,-6.65006 1.66313,0 0,14.96325 -0.43429,1.88028 -1.22884,1.44599 -3.32627,3.32626 -25.013593,0 -3.32626,-3.32626 0,-58.26638 6.650055,-4.98692 21.832918,0 z m -13.44819,14.96572 0,9.97633 1.66313,0 1.66314,-1.66314 0,-8.31319 -3.32627,0 z" />
    <path
       inkscape:connector-curvature="0"
       style="display:inline"
       id="path3588"
       d="m 3.1163768,310.13697 0,-5.4656 3.296647,-3.29663 0,-109.21895 -3.035094,-3.12392 0,-4.94497 127.4442702,0 -12.62154,17.00391 -86.110259,0 0,38.4297 26.284394,0 7.11396,7.20032 0,6.93877 -7.459417,7.54827 -26.891413,0 0,31.8364 37.995409,0 -7.735784,17.0903 -58.2811732,0 z" />
    <path
       style="display:inline"
       d="m 113.34699,227.72331 -14.058588,0.0918 -10.281253,24.21289 -2.033203,-4.43945 -10.583985,-19.51953 -1.300781,0.60742 -10.0625,10.58398 2.949219,1.73438 0.433594,1.91015 12.800781,27.49024 -16.361328,38.53125 -2.515625,1.21289 15.353515,0.0879 0.867188,-2.08203 1.566406,-3.73438 0.867188,-1.73047 1.5625,-3.64843 1.648437,-3.73047 0.693359,-1.82227 1.648438,-3.73047 0.78125,-1.82031 0.998047,-2.26172 10.626953,22.82031 -1.910156,1.73438 18.564454,-0.17188 -19.468751,-42.47851 0.125,-0.28906 17.089841,-39.5586 z"
       id="path3590"
       inkscape:connector-curvature="0" />
    <path
       inkscape:connector-curvature="0"
       style="display:inline"
       id="path3592"
       d="m 132.60379,184.22261 0,17.56159 1.0413,1.64832 0,7.45942 -1.0413,2.08262 0,18.73861 5.46563,3.73094 0,14.92131 -5.46563,3.8173 0,50.48865 1.90741,1.9074 0,3.731 -16.82873,0 -1.90741,-3.731 0,-87.96338 -3.73095,-3.73095 0.0864,-2.3417 20.4733,-28.32013 z" />
    <path
       inkscape:connector-curvature="0"
       style="display:inline"
       id="path3594"
       d="m 157.06711,228.76444 1.99626,3.90367 1.90742,1.90742 3.99003,-3.90367 9.71723,0 0,27.32573 -3.90367,-5.81112 -1.99626,-1.99625 -3.8173,0 -3.99003,3.90367 0,46.93292 1.99625,3.90366 5.81109,5.81108 -29.23559,0 0,-5.81108 1.90743,-1.9962 0,-58.55514 -1.90743,-1.99626 0,-3.90366 13.27298,-9.71723 4.25159,0 z" />
    <path
       inkscape:connector-curvature="0"
       style="display:inline"
       id="path3596"
       d="m 224.90513,222.4327 0,78.50775 1.56196,1.47562 1.4756,1.4756 0,6.0726 -18.13159,0 -3.03509,-1.4756 0,-3.0351 -1.4756,1.4756 -1.4756,1.562 -3.03509,1.4756 -12.05894,0 -4.51069,-1.4756 -1.56196,-1.562 -1.4756,-3.0351 0,-63.32732 -3.03509,-3.03509 1.4756,-1.4756 21.16668,-10.58334 0,63.32735 1.4756,1.56196 1.56196,0 1.47559,-1.56196 0,-49.7953 -1.47559,-1.47557 -1.56196,-1.4756 3.03509,-3.03509 19.60472,-10.58581 z" />
    <path
       inkscape:connector-curvature="0"
       style="display:inline"
       id="path3598"
       d="m 271.05827,182.26584 -0.17273,128.38931 -15.18039,0 0,-1.90738 -5.63835,0 -5.63837,1.90738 -7.63461,0 -2.25535,-0.86858 -1.38676,-1.214 -0.77976,-1.1277 -1.21403,-2.5168 0,-66.27614 0.43429,-3.8173 1.73469,-2.25535 2.776,-1.4756 15.87624,-0.0864 1.90743,-1.90742 0,-13.27298 -1.90743,-3.73094 -3.8173,-3.81731 -2.776,-0.17273 0.86858,0.17273 -0.86858,-0.17273 -1.90742,-1.90741 27.57985,-23.9427 z m -22.90383,105.66319 1.90741,1.90741 1.90743,0 1.90742,-1.73468 0,-38.08427 -5.72474,0 0,37.91154 z" />
    <path
       inkscape:connector-curvature="0"
       style="display:inline"
       id="path3600"
       d="m 307.75328,230.41277 5.8111,5.99122 0,31.93758 -3.98263,3.99251 -3.98263,2.08261 -3.98265,1.99872 -9.97632,9.97633 -0.0222,1.98638 2.03819,1.99131 1.9543,1.98639 7.98008,0 7.98007,-7.98008 1.99625,0 0,17.95643 -0.52065,2.2553 -1.4756,1.7347 -3.99004,3.9901 -30.01533,0 -3.99003,-3.9901 0,-69.92065 7.98007,-5.98631 26.19802,0 z m -16.13534,17.9564 0,11.9726 1.99625,0 1.99625,-1.99626 0,-9.97634 -3.9925,0 z" />
    <path
       inkscape:connector-curvature="0"
       style="display:inline"
       id="path3602"
       d="m 333.60339,228.76444 1.99626,3.90367 1.90741,1.90742 3.99004,-3.90367 9.71723,0 0,27.32573 -3.90368,-5.81112 -1.99624,-1.99625 -3.81731,0 -3.99004,3.90367 0,46.93292 1.99624,3.90366 5.8111,5.81108 -29.23559,0 0,-5.81108 1.90742,-1.9962 0,-58.55514 -1.90742,-1.99626 0,-3.90366 13.27297,-9.71723 4.25161,0 z" />
    <path
       inkscape:connector-curvature="0"
       style="display:inline;fill:#ffffff;stroke:#000000;stroke-width:2.46755481;stroke-linecap:round;stroke-miterlimit:5"
       stroke-miterlimit="5"
       d="M 193.33524,166.78445"
       id="path3626" />
    <path
       inkscape:connector-curvature="0"
       style="display:inline;fill:none;stroke:#000000;stroke-width:2.46755481;stroke-linecap:round;stroke-miterlimit:5"
       stroke-miterlimit="5"
       d="M 216.77947,186.93697"
       id="path3648" />
    <path
       inkscape:connector-curvature="0"
       style="display:inline;fill:none;stroke:#000000;stroke-width:2.46755481;stroke-linecap:round;stroke-miterlimit:5"
       stroke-miterlimit="5"
       d="M 219.24704,84.121362"
       id="path3650" />
    <path
       inkscape:connector-curvature="0"
       style="color:#000000;font-style:normal;font-variant:normal;font-weight:normal;font-stretch:normal;font-size:medium;line-height:normal;font-family:sans-serif;text-indent:0;text-align:start;text-decoration:none;text-decoration-line:none;text-decoration-style:solid;text-decoration-color:#000000;letter-spacing:normal;word-spacing:normal;text-transform:none;direction:ltr;block-progression:tb;writing-mode:lr-tb;baseline-shift:baseline;text-anchor:start;white-space:normal;clip-rule:nonzero;display:inline;overflow:visible;visibility:visible;opacity:1;isolation:auto;mix-blend-mode:normal;color-interpolation:sRGB;color-interpolation-filters:linearRGB;solid-color:#000000;solid-opacity:1;fill:#000000;fill-opacity:1;fill-rule:nonzero;stroke:none;stroke-width:2;stroke-linecap:round;stroke-linejoin:miter;stroke-miterlimit:4;stroke-dasharray:none;stroke-dashoffset:0;stroke-opacity:1;color-rendering:auto;image-rendering:auto;shape-rendering:auto;text-rendering:auto;enable-background:accumulate"
       d="m 164.37937,132.62086 a 2.4678015,2.4678015 0 0 0 -2.42899,2.50128 c 0,1.65955 1.03104,2.89247 2.08681,3.70134 1.05576,0.80888 2.32394,1.40838 3.85555,1.97596 3.0632,1.13521 7.20373,2.07141 12.28474,2.86757 10.16204,1.59231 24.0277,2.55913 39.35077,2.55913 15.32183,0 29.1836,-0.96682 39.34594,-2.55913 5.08115,-0.79616 9.22136,-1.73239 12.28476,-2.86757 1.53168,-0.56758 2.79971,-1.1671 3.85555,-1.97596 1.05582,-0.80885 2.08681,-2.04168 2.08681,-3.70134 a 2.4678015,2.4678015 0 1 0 -4.93511,0 c 0,-0.46658 0.25815,-0.53276 -0.15422,-0.2169 -0.41238,0.31592 -1.30699,0.80174 -2.56393,1.26751 -2.51393,0.93158 -6.44388,1.85536 -11.33534,2.62178 -9.78291,1.53287 -23.47147,2.49647 -38.58446,2.49647 -15.11422,0 -28.80668,-0.9636 -38.58927,-2.49647 -4.89132,-0.76642 -8.82164,-1.69023 -11.33534,-2.62178 -1.25684,-0.46577 -2.15163,-0.95161 -2.56393,-1.26751 -0.41231,-0.31589 -0.15422,-0.24961 -0.15422,0.2169 a 2.4678015,2.4678015 0 0 0 -2.50613,-2.50128 z"
       id="path3702" />
    <path
       inkscape:connector-curvature="0"
       style="color:#000000;font-style:normal;font-variant:normal;font-weight:normal;font-stretch:normal;font-size:medium;line-height:normal;font-family:sans-serif;text-indent:0;text-align:start;text-decoration:none;text-decoration-line:none;text-decoration-style:solid;text-decoration-color:#000000;letter-spacing:normal;word-spacing:normal;text-transform:none;direction:ltr;block-progression:tb;writing-mode:lr-tb;baseline-shift:baseline;text-anchor:start;white-space:normal;clip-rule:nonzero;display:inline;overflow:visible;visibility:visible;opacity:1;isolation:auto;mix-blend-mode:normal;color-interpolation:sRGB;color-interpolation-filters:linearRGB;solid-color:#000000;solid-opacity:1;fill:#000000;fill-opacity:1;fill-rule:nonzero;stroke:none;stroke-width:2;stroke-linecap:round;stroke-linejoin:miter;stroke-miterlimit:4;stroke-dasharray:none;stroke-dashoffset:0;stroke-opacity:1;color-rendering:auto;image-rendering:auto;shape-rendering:auto;text-rendering:auto;enable-background:accumulate"
       d="m 164.37937,123.98441 a 2.4678015,2.4678015 0 0 0 -2.42899,2.50129 c 0,1.65955 1.03104,2.89246 2.08681,3.70134 1.05576,0.80888 2.32394,1.40837 3.85555,1.97596 3.0632,1.1352 7.20373,2.07141 12.28474,2.86757 10.16204,1.59231 24.0277,2.55912 39.35077,2.55912 15.32183,0 29.1836,-0.96681 39.34594,-2.55912 5.08115,-0.79616 9.22136,-1.73239 12.28476,-2.86757 1.53168,-0.56759 2.79971,-1.1671 3.85555,-1.97596 1.05582,-0.80885 2.08681,-2.04168 2.08681,-3.70134 a 2.4678015,2.4678015 0 1 0 -4.93511,0 c 0,-0.46659 0.25815,-0.53277 -0.15422,-0.2169 -0.41238,0.31592 -1.30699,0.80173 -2.56393,1.26751 -2.51393,0.93158 -6.44388,1.85536 -11.33534,2.62178 -9.78291,1.53286 -23.47147,2.49647 -38.58446,2.49647 -15.11422,0 -28.80668,-0.96361 -38.58927,-2.49647 -4.89132,-0.76642 -8.82164,-1.69023 -11.33534,-2.62178 -1.25684,-0.46578 -2.15163,-0.95161 -2.56393,-1.26751 -0.41231,-0.31589 -0.15422,-0.24962 -0.15422,0.2169 a 2.4678015,2.4678015 0 0 0 -2.50613,-2.50129 z"
       id="path3704" />
    <path
       inkscape:connector-curvature="0"
       style="color:#000000;font-style:normal;font-variant:normal;font-weight:normal;font-stretch:normal;font-size:medium;line-height:normal;font-family:sans-serif;text-indent:0;text-align:start;text-decoration:none;text-decoration-line:none;text-decoration-style:solid;text-decoration-color:#000000;letter-spacing:normal;word-spacing:normal;text-transform:none;direction:ltr;block-progression:tb;writing-mode:lr-tb;baseline-shift:baseline;text-anchor:start;white-space:normal;clip-rule:nonzero;display:inline;overflow:visible;visibility:visible;opacity:1;isolation:auto;mix-blend-mode:normal;color-interpolation:sRGB;color-interpolation-filters:linearRGB;solid-color:#000000;solid-opacity:1;fill:#000000;fill-opacity:1;fill-rule:nonzero;stroke:none;stroke-width:2;stroke-linecap:round;stroke-linejoin:miter;stroke-miterlimit:4;stroke-dasharray:none;stroke-dashoffset:0;stroke-opacity:1;color-rendering:auto;image-rendering:auto;shape-rendering:auto;text-rendering:auto;enable-background:accumulate"
       d="m 164.37937,115.34797 a 2.4678015,2.4678015 0 0 0 -2.43382,2.50129 c 0,1.65966 1.03099,2.89249 2.08684,3.70133 1.05581,0.80886 2.32383,1.40838 3.85554,1.97597 3.06337,1.13518 7.20358,2.07141 12.28474,2.86757 10.16233,1.59231 24.02893,2.55912 39.35077,2.55912 15.32184,0 29.18782,-0.96681 39.35075,-2.55912 5.08145,-0.79616 9.22118,-1.73239 12.28476,-2.86757 1.53179,-0.56756 2.79967,-1.16713 3.85555,-1.97597 1.05589,-0.80884 2.08681,-2.04155 2.08681,-3.70133 a 2.4678015,2.4678015 0 1 0 -4.93511,0 c 0,-0.46669 0.25821,-0.53279 -0.15422,-0.2169 -0.41242,0.31592 -1.31168,0.80173 -2.56876,1.26751 -2.51414,0.93157 -6.44356,1.85536 -11.33533,2.62178 -9.78354,1.53286 -23.47149,2.49647 -38.58446,2.49647 -15.11298,0 -28.80154,-0.96361 -38.58445,-2.49647 -4.89147,-0.76642 -8.82144,-1.69021 -11.33534,-2.62178 -1.25694,-0.46578 -2.15639,-0.95159 -2.56877,-1.26751 -0.41236,-0.31589 -0.15422,-0.24971 -0.15422,0.2169 a 2.4678015,2.4678015 0 0 0 -2.50129,-2.50129 z"
       id="path3706" />
    <path
       inkscape:connector-curvature="0"
       style="color:#000000;font-style:normal;font-variant:normal;font-weight:normal;font-stretch:normal;font-size:medium;line-height:normal;font-family:sans-serif;text-indent:0;text-align:start;text-decoration:none;text-decoration-line:none;text-decoration-style:solid;text-decoration-color:#000000;letter-spacing:normal;word-spacing:normal;text-transform:none;direction:ltr;block-progression:tb;writing-mode:lr-tb;baseline-shift:baseline;text-anchor:start;white-space:normal;clip-rule:nonzero;display:inline;overflow:visible;visibility:visible;opacity:1;isolation:auto;mix-blend-mode:normal;color-interpolation:sRGB;color-interpolation-filters:linearRGB;solid-color:#000000;solid-opacity:1;fill:#000000;fill-opacity:1;fill-rule:nonzero;stroke:none;stroke-width:2;stroke-linecap:round;stroke-linejoin:miter;stroke-miterlimit:4;stroke-dasharray:none;stroke-dashoffset:0;stroke-opacity:1;color-rendering:auto;image-rendering:auto;shape-rendering:auto;text-rendering:auto;enable-background:accumulate"
       d="m 164.37937,106.71153 a 2.4678015,2.4678015 0 0 0 -2.43382,2.50129 c 0,1.65965 1.03099,2.89249 2.08684,3.70133 1.05581,0.80886 2.32383,1.40838 3.85554,1.97597 3.06337,1.13518 7.20358,2.07141 12.28474,2.86757 10.16233,1.59231 24.02893,2.55912 39.35077,2.55912 15.32184,0 29.18782,-0.96681 39.35075,-2.55912 5.08145,-0.79616 9.22118,-1.73239 12.28476,-2.86757 1.53179,-0.56756 2.79967,-1.16713 3.85555,-1.97597 1.05589,-0.80884 2.08681,-2.04155 2.08681,-3.70133 a 2.4678015,2.4678015 0 1 0 -4.93511,0 c 0,-0.46669 0.25821,-0.53279 -0.15422,-0.2169 -0.41242,0.31592 -1.31168,0.80173 -2.56876,1.26751 -2.51414,0.93157 -6.44356,1.85536 -11.33533,2.62178 -9.78354,1.53286 -23.47149,2.49647 -38.58446,2.49647 -15.11298,0 -28.80154,-0.96361 -38.58445,-2.49647 -4.89147,-0.76642 -8.82144,-1.69021 -11.33534,-2.62178 -1.25694,-0.46578 -2.15639,-0.95159 -2.56877,-1.26751 -0.41236,-0.31589 -0.15422,-0.24972 -0.15422,0.2169 a 2.4678015,2.4678015 0 0 0 -2.50129,-2.50129 z"
       id="path3708" />
    <path
       inkscape:connector-curvature="0"
       style="color:#000000;font-style:normal;font-variant:normal;font-weight:normal;font-stretch:normal;font-size:medium;line-height:normal;font-family:sans-serif;text-indent:0;text-align:start;text-decoration:none;text-decoration-line:none;text-decoration-style:solid;text-decoration-color:#000000;letter-spacing:normal;word-spacing:normal;text-transform:none;direction:ltr;block-progression:tb;writing-mode:lr-tb;baseline-shift:baseline;text-anchor:start;white-space:normal;clip-rule:nonzero;display:inline;overflow:visible;visibility:visible;opacity:1;isolation:auto;mix-blend-mode:normal;color-interpolation:sRGB;color-interpolation-filters:linearRGB;solid-color:#000000;solid-opacity:1;fill:#000000;fill-opacity:1;fill-rule:nonzero;stroke:none;stroke-width:2;stroke-linecap:round;stroke-linejoin:miter;stroke-miterlimit:4;stroke-dasharray:none;stroke-dashoffset:0;stroke-opacity:1;color-rendering:auto;image-rendering:auto;shape-rendering:auto;text-rendering:auto;enable-background:accumulate"
       d="m 164.37937,98.075092 a 2.4678015,2.4678015 0 0 0 -2.43382,2.501288 c 0,1.65964 1.03099,2.89249 2.08684,3.70133 1.05581,0.80886 2.32383,1.40838 3.85554,1.97597 3.06337,1.13517 7.20358,2.07141 12.28474,2.86757 10.16233,1.59231 24.02893,2.55912 39.35077,2.55912 15.32184,0 29.18782,-0.96681 39.35075,-2.55912 5.08145,-0.79616 9.22118,-1.7324 12.28476,-2.86757 1.53179,-0.56756 2.79967,-1.16713 3.85555,-1.97597 1.05589,-0.80884 2.08681,-2.04155 2.08681,-3.70133 a 2.4678015,2.4678015 0 1 0 -4.93511,0 c 0,-0.46669 0.25821,-0.5328 -0.15422,-0.2169 -0.41242,0.31592 -1.31168,0.80173 -2.56876,1.26751 -2.51414,0.93157 -6.44356,1.85535 -11.33533,2.62177 -9.78354,1.53287 -23.47149,2.49648 -38.58446,2.49648 -15.11298,0 -28.80154,-0.96361 -38.58445,-2.49648 -4.89147,-0.76642 -8.82144,-1.6902 -11.33534,-2.62177 -1.25694,-0.46578 -2.15639,-0.95159 -2.56877,-1.26751 -0.41236,-0.3159 -0.15422,-0.24972 -0.15422,0.2169 a 2.4678015,2.4678015 0 0 0 -2.50129,-2.501288 z"
       id="path3710" />
    <path
       inkscape:connector-curvature="0"
       style="color:#000000;font-style:normal;font-variant:normal;font-weight:normal;font-stretch:normal;font-size:medium;line-height:normal;font-family:sans-serif;text-indent:0;text-align:start;text-decoration:none;text-decoration-line:none;text-decoration-style:solid;text-decoration-color:#000000;letter-spacing:normal;word-spacing:normal;text-transform:none;direction:ltr;block-progression:tb;writing-mode:lr-tb;baseline-shift:baseline;text-anchor:start;white-space:normal;clip-rule:nonzero;display:inline;overflow:visible;visibility:visible;opacity:1;isolation:auto;mix-blend-mode:normal;color-interpolation:sRGB;color-interpolation-filters:linearRGB;solid-color:#000000;solid-opacity:1;fill:#000000;fill-opacity:1;fill-rule:nonzero;stroke:none;stroke-width:2;stroke-linecap:round;stroke-linejoin:miter;stroke-miterlimit:4;stroke-dasharray:none;stroke-dashoffset:0;stroke-opacity:1;color-rendering:auto;image-rendering:auto;shape-rendering:auto;text-rendering:auto;enable-background:accumulate"
       d="m 164.37937,89.438652 a 2.4678015,2.4678015 0 0 0 -2.43382,2.50129 c 0,1.65964 1.03099,2.89249 2.08684,3.70132 1.05581,0.80887 2.32383,1.40839 3.85554,1.97598 3.06337,1.13516 7.20358,2.07141 12.28474,2.867568 10.16233,1.59231 24.02893,2.55912 39.35077,2.55912 15.32184,0 29.18782,-0.96681 39.35075,-2.55912 5.08145,-0.796158 9.22118,-1.732408 12.28476,-2.867568 1.53179,-0.56756 2.79967,-1.16713 3.85555,-1.97598 1.05589,-0.80883 2.08681,-2.04155 2.08681,-3.70132 a 2.4678015,2.4678015 0 1 0 -4.93511,0 c 0,-0.46669 0.25821,-0.5328 -0.15422,-0.2169 -0.41242,0.31592 -1.31168,0.80173 -2.56876,1.26751 -2.51414,0.93157 -6.44356,1.85535 -11.33533,2.62177 -9.78354,1.53287 -23.47149,2.49648 -38.58446,2.49648 -15.11298,0 -28.80154,-0.96361 -38.58445,-2.49648 -4.89147,-0.76642 -8.82144,-1.6902 -11.33534,-2.62177 -1.25694,-0.46578 -2.15639,-0.95159 -2.56877,-1.26751 -0.41236,-0.3159 -0.15422,-0.24972 -0.15422,0.2169 a 2.4678015,2.4678015 0 0 0 -2.50129,-2.50129 z"
       id="path3712" />
    <path
       inkscape:connector-curvature="0"
       style="color:#000000;font-style:normal;font-variant:normal;font-weight:normal;font-stretch:normal;font-size:medium;line-height:normal;font-family:sans-serif;text-indent:0;text-align:start;text-decoration:none;text-decoration-line:none;text-decoration-style:solid;text-decoration-color:#000000;letter-spacing:normal;word-spacing:normal;text-transform:none;direction:ltr;block-progression:tb;writing-mode:lr-tb;baseline-shift:baseline;text-anchor:start;white-space:normal;clip-rule:nonzero;display:inline;overflow:visible;visibility:visible;opacity:1;isolation:auto;mix-blend-mode:normal;color-interpolation:sRGB;color-interpolation-filters:linearRGB;solid-color:#000000;solid-opacity:1;fill:#000000;fill-opacity:1;fill-rule:nonzero;stroke:none;stroke-width:2;stroke-linecap:round;stroke-linejoin:miter;stroke-miterlimit:4;stroke-dasharray:none;stroke-dashoffset:0;stroke-opacity:1;color-rendering:auto;image-rendering:auto;shape-rendering:auto;text-rendering:auto;enable-background:accumulate"
       d="m 164.37937,80.802202 a 2.4678015,2.4678015 0 0 0 -2.42899,2.5013 c 0,1.65955 1.03104,2.89246 2.08681,3.70132 1.05576,0.8089 2.32394,1.40839 3.85555,1.97598 3.0632,1.13519 7.20373,2.07141 12.28474,2.86756 10.16204,1.59232 24.0277,2.55913 39.35077,2.55913 15.32183,0 29.1836,-0.96681 39.34594,-2.55913 5.08115,-0.79615 9.22136,-1.7324 12.28476,-2.86756 1.53168,-0.56759 2.79971,-1.16711 3.85555,-1.97598 1.05582,-0.80883 2.08681,-2.04168 2.08681,-3.70132 a 2.4678015,2.4678015 0 1 0 -4.93511,0 c 0,-0.4666 0.25815,-0.53278 -0.15422,-0.2169 -0.41238,0.31592 -1.30699,0.80173 -2.56393,1.26751 -2.51393,0.93157 -6.44388,1.85534 -11.33534,2.62177 -9.78291,1.53287 -23.47147,2.49648 -38.58446,2.49648 -15.11422,0 -28.80668,-0.96361 -38.58927,-2.49648 -4.89132,-0.76643 -8.82164,-1.69023 -11.33534,-2.62177 -1.25684,-0.46578 -2.15163,-0.95162 -2.56393,-1.26751 -0.41231,-0.31591 -0.15422,-0.24962 -0.15422,0.2169 a 2.4678015,2.4678015 0 0 0 -2.50613,-2.5013 z"
       id="path3714" />
    <path
       inkscape:connector-curvature="0"
       style="color:#000000;font-style:normal;font-variant:normal;font-weight:normal;font-stretch:normal;font-size:medium;line-height:normal;font-family:sans-serif;text-indent:0;text-align:start;text-decoration:none;text-decoration-line:none;text-decoration-style:solid;text-decoration-color:#000000;letter-spacing:normal;word-spacing:normal;text-transform:none;direction:ltr;block-progression:tb;writing-mode:lr-tb;baseline-shift:baseline;text-anchor:start;white-space:normal;clip-rule:nonzero;display:inline;overflow:visible;visibility:visible;opacity:1;isolation:auto;mix-blend-mode:normal;color-interpolation:sRGB;color-interpolation-filters:linearRGB;solid-color:#000000;solid-opacity:1;fill:#000000;fill-opacity:1;fill-rule:nonzero;stroke:none;stroke-width:2;stroke-linecap:round;stroke-linejoin:miter;stroke-miterlimit:4;stroke-dasharray:none;stroke-dashoffset:0;stroke-opacity:1;color-rendering:auto;image-rendering:auto;shape-rendering:auto;text-rendering:auto;enable-background:accumulate"
       d="m 164.37937,72.165762 a 2.4678015,2.4678015 0 0 0 -2.42899,2.50129 c 0,1.65956 1.03104,2.89247 2.08681,3.70133 1.05576,0.8089 2.32394,1.40839 3.85555,1.97597 3.0632,1.1352 7.20373,2.07142 12.28474,2.86757 10.16204,1.59232 24.0277,2.55913 39.35077,2.55913 15.32183,0 29.1836,-0.96681 39.34594,-2.55913 5.08115,-0.79615 9.22136,-1.7324 12.28476,-2.86757 1.53168,-0.56758 2.79971,-1.1671 3.85555,-1.97597 1.05582,-0.80883 2.08681,-2.04168 2.08681,-3.70133 a 2.4678015,2.4678015 0 1 0 -4.93511,0 c 0,-0.46659 0.25815,-0.53277 -0.15422,-0.2169 -0.41238,0.31593 -1.30699,0.80174 -2.56393,1.26751 -2.51393,0.93158 -6.44388,1.85535 -11.33534,2.62178 -9.78291,1.53287 -23.47147,2.49648 -38.58446,2.49648 -15.11422,0 -28.80668,-0.96364 -38.58927,-2.49648 -4.89132,-0.76643 -8.82164,-1.69023 -11.33534,-2.62178 -1.25684,-0.46577 -2.15163,-0.95161 -2.56393,-1.26751 -0.41231,-0.3159 -0.15422,-0.24961 -0.15422,0.2169 a 2.4678015,2.4678015 0 0 0 -2.50613,-2.50129 z"
       id="path3716" />
    <path
       inkscape:connector-curvature="0"
       style="display:inline;fill:#000000;fill-opacity:1;stroke:#000000;stroke-width:4.93510962;stroke-linecap:round"
       d="m 274.63378,66.031722 a 55.107901,8.6364418 0 0 1 -55.10789,8.63644 55.107901,8.6364418 0 0 1 -55.1079,-8.63644 55.107901,8.6364418 0 0 1 55.1079,-8.63645 55.107901,8.6364418 0 0 1 55.10789,8.63645 z"
       id="ellipse3718" />
    <path
       inkscape:connector-curvature="0"
       style="color:#000000;font-style:normal;font-variant:normal;font-weight:normal;font-stretch:normal;font-size:medium;line-height:normal;font-family:sans-serif;text-indent:0;text-align:start;text-decoration:none;text-decoration-line:none;text-decoration-style:solid;text-decoration-color:#000000;letter-spacing:normal;word-spacing:normal;text-transform:none;direction:ltr;block-progression:tb;writing-mode:lr-tb;baseline-shift:baseline;text-anchor:start;white-space:normal;clip-rule:nonzero;display:inline;overflow:visible;visibility:visible;opacity:1;isolation:auto;mix-blend-mode:normal;color-interpolation:sRGB;color-interpolation-filters:linearRGB;solid-color:#000000;solid-opacity:1;fill:#000000;fill-opacity:1;fill-rule:evenodd;stroke:none;stroke-width:1.66181374;stroke-linecap:round;stroke-linejoin:miter;stroke-miterlimit:4;stroke-dasharray:none;stroke-dashoffset:0;stroke-opacity:1;color-rendering:auto;image-rendering:auto;shape-rendering:auto;text-rendering:auto;enable-background:accumulate"
       d="m 218.85836,182.69487 a 2.0505133,2.0505133 0 0 0 -2.01935,2.082 l 0,33.24934 a 2.050675,2.050675 0 0 0 4.10135,0 l 0,-33.24934 a 2.0505133,2.0505133 0 0 0 -2.082,-2.082 z"
       id="path6883-7" />
  </g>
</svg>
