<?xml version="1.0" encoding="UTF-8" standalone="no"?>
<!-- Created with Inkscape (http://www.inkscape.org/) -->

<svg
   xmlns:dc="http://purl.org/dc/elements/1.1/"
   xmlns:cc="http://creativecommons.org/ns#"
   xmlns:rdf="http://www.w3.org/1999/02/22-rdf-syntax-ns#"
   xmlns:svg="http://www.w3.org/2000/svg"
   xmlns="http://www.w3.org/2000/svg"
   xmlns:sodipodi="http://sodipodi.sourceforge.net/DTD/sodipodi-0.dtd"
   xmlns:inkscape="http://www.inkscape.org/namespaces/inkscape"
   width="99.173737mm"
   height="74.854431mm"
   viewBox="0 0 351.40301 265.23224"
   id="svg4392"
   version="1.1"
   inkscape:version="0.91 r13725"
   sodipodi:docname="TheExtruder_3d_model_thin_border_base.svg">
  <defs
     id="defs4394" />
  <sodipodi:namedview
     id="base"
     pagecolor="#ffffff"
     bordercolor="#666666"
     borderopacity="1.0"
     inkscape:pageopacity="0.0"
     inkscape:pageshadow="2"
     inkscape:zoom="1.4142136"
     inkscape:cx="95.141279"
     inkscape:cy="290.55895"
     inkscape:document-units="px"
     inkscape:current-layer="layer3"
     showgrid="false"
     units="mm"
     fit-margin-top="0"
     fit-margin-left="0"
     fit-margin-right="0"
     fit-margin-bottom="0"
     inkscape:window-width="1920"
     inkscape:window-height="1149"
     inkscape:window-x="0"
     inkscape:window-y="0"
     inkscape:window-maximized="1" />
  <metadata
     id="metadata4397">
    <rdf:RDF>
      <cc:Work
         rdf:about="">
        <dc:format>image/svg+xml</dc:format>
        <dc:type
           rdf:resource="http://purl.org/dc/dcmitype/StillImage" />
        <dc:title></dc:title>
      </cc:Work>
    </rdf:RDF>
  </metadata>
  <g
     inkscape:groupmode="layer"
     id="layer3"
     inkscape:label="Border"
     style="display:inline"
     transform="translate(-8.8535154,-14.88269)">
    <path
       style="color:#000000;font-style:normal;font-variant:normal;font-weight:normal;font-stretch:normal;font-size:medium;line-height:normal;font-family:sans-serif;text-indent:0;text-align:start;text-decoration:none;text-decoration-line:none;text-decoration-style:solid;text-decoration-color:#000000;letter-spacing:normal;word-spacing:normal;text-transform:none;direction:ltr;block-progression:tb;writing-mode:lr-tb;baseline-shift:baseline;text-anchor:start;white-space:normal;clip-rule:nonzero;display:inline;overflow:visible;visibility:visible;opacity:1;isolation:auto;mix-blend-mode:normal;color-interpolation:sRGB;color-interpolation-filters:linearRGB;solid-color:#000000;solid-opacity:1;fill:#000000;fill-opacity:1;fill-rule:nonzero;stroke:none;stroke-width:7.03999996;stroke-linecap:butt;stroke-linejoin:round;stroke-miterlimit:4.84615374;stroke-dasharray:none;stroke-dashoffset:0;stroke-opacity:1;color-rendering:auto;image-rendering:auto;shape-rendering:auto;text-rendering:auto;enable-background:accumulate"
       d="m 221.4924,14.88516 c -0.2522,0.0012 -0.50423,0.01351 -0.75533,0.03707 -16.0022,1.459944 -39.05016,-2.470634 -57.49364,11.381025 -1.56866,1.178419 -2.68449,2.860329 -3.16037,4.763719 -0.34932,1.395523 -0.51402,2.845952 -0.52827,4.295689 -1.16299,1.783346 -1.61904,3.936339 -1.27898,6.038059 l 0.58388,3.586692 c -0.63645,1.485702 -0.8389,3.121336 -0.58388,4.717379 l 0.58388,3.586691 c -0.63645,1.485703 -0.8389,3.121337 -0.58388,4.717379 l 0.58388,3.586692 c -0.63645,1.485702 -0.8389,3.121336 -0.58388,4.717379 l 0.58388,3.586691 c -0.63645,1.485703 -0.8389,3.121337 -0.58388,4.717379 l 0.58388,3.586692 c -0.63645,1.485702 -0.8389,3.121336 -0.58388,4.717379 l 0.58388,3.586691 c -0.63645,1.485703 -0.8389,3.121337 -0.58388,4.717379 l 0.58388,3.586692 c -0.63645,1.485702 -0.8389,3.121336 -0.58388,4.717379 l 0.89436,5.509794 c 0.12081,0.74212 0.33893,1.46507 0.64875,2.15016 4.09025,9.05418 13.16815,12.64506 20.36629,13.94361 0.59359,0.10707 1.15542,0.16375 1.74237,0.25486 1.63138,4.20881 3.61573,8.34974 6.09367,12.27538 5.75837,9.12261 14.52453,17.06788 26.2746,20.6675 0.29447,0.13348 0.58968,0.24108 0.88509,0.36145 l 0,27.63235 c 0.004,0.31592 0.0244,0.63142 0.0602,0.94533 0.0721,0.62978 0.2072,1.25074 0.40315,1.85359 0.024,0.0651 0.0487,0.13002 0.0742,0.19463 l -1.06118,0.57461 c -2.1129,-4.02327 -7.05466,-5.61905 -11.12152,-3.59133 l -14.76846,7.38191 c -1.57789,-2.04989 -4.01656,-3.25296 -6.6034,-3.25768 l -9.34208,0 c -0.69589,0.003 -1.38863,0.0936 -2.06212,0.26877 -1.52377,-1.35384 -3.49001,-2.10375 -5.52832,-2.10845 l -4.08716,0 c -1.77302,5.9e-4 -3.49985,0.56538 -4.93054,1.61262 l -6.15391,4.50422 0,-10.97324 0.12048,-0.23633 c 0.57938,-1.15979 0.88082,-2.43852 0.88045,-3.73498 l 0,-7.17338 c 0.001,-1.57939 -0.44555,-3.12673 -1.28824,-4.46251 l 0.28731,0.45876 0,-14.46725 c -0.002,-4.70902 -3.89371,-8.48576 -8.60065,-8.34577 l -0.0185,0 -0.0185,-0.005 0.22243,-0.96386 c 0.14179,-0.61552 0.21331,-1.24513 0.21316,-1.87676 l 0,-14.38847 c -0.004,-2.46696 -1.09778,-4.80609 -2.98891,-6.39024 l 0.56071,-0.56071 c 1.55858,-1.56574 2.43335,-3.68518 2.43284,-5.89441 l 0,-25.588773 c -3.7e-4,-2.171448 -0.84638,-4.257395 -2.35869,-5.81563 l -4.65714,-4.800789 c -1.57256,-1.620015 -3.73398,-2.5344 -5.99172,-2.534782 l -20.99188,0 c -1.80781,-0.0012 -3.56721,0.584186 -5.01395,1.668228 l -1.4597,1.098251 -1.552379,-0.843382 C 98.916963,74.370118 97.910884,74.04629 96.871182,73.916915 l -2.224305,-0.278037 c -0.342785,-0.04297 -0.687907,-0.06464 -1.033375,-0.06488 l -3.744246,0 0,-27.933558 c -0.0017,-4.707146 -3.890868,-8.483093 -8.596009,-8.345777 -1.33676,0.03874 -2.644678,0.397904 -3.813755,1.047277 l -4.411538,2.456003 c -1.481994,-2.58855 -4.23215,-4.190596 -7.215169,-4.202644 L 18.153889,36.451646 c -4.622214,-0.01423 -8.3771596,3.728175 -8.3782137,8.35041 l 0,26.691655 c -0.00237,7.442678 8.9962687,11.171395 14.2587197,5.908309 l 1.844319,-1.844318 0.152921,52.326768 -8.141882,12.81292 c -0.188265,0.30247 -0.35697,0.61668 -0.505102,0.94069 -4.582386,0.0392 -8.277458,3.76323 -8.2809011,8.34578 l 0,4.75445 c 3.998e-4,2.1737 0.8481999,4.26162 2.3633241,5.82027 l 0.556076,0.56997 0,98.16597 -0.722899,0.7229 c -1.56708,1.56689 -2.4472467,3.69228 -2.4467354,5.90832 l 0,5.25492 c 0.00108,4.61136 3.7390534,8.34934 8.3504104,8.3504 l 56.038574,0 c 0.13761,-0.002 0.275126,-0.0137 0.412423,-0.0232 0.148097,0.009 0.296432,0.0208 0.444861,0.0232 l 14.763821,0.0834 c 3.388884,0.019 6.453542,-2.01093 7.757264,-5.13908 l 0.829479,-1.99722 1.39019,-3.31793 0.708996,-1.418 c 0.07386,-0.14615 0.143402,-0.29456 0.20853,-0.44486 l 0.194626,-0.45412 1.94163,-1.76556 c -5.676571,5.16079 -1.976353,14.60252 5.69515,14.53212 L 125.3561,279.443 c 0.65605,0.16584 1.32982,0.25149 2.00651,0.25486 l 16.18182,0 c 0.58258,-10e-4 1.16344,-0.0634 1.7331,-0.18535 0.98711,0.3967 2.04092,0.60117 3.10476,0.60243 l 28.10965,0 c 3.56978,-0.002 6.74278,-2.27518 7.89628,-5.65346 l 1.04264,1.04266 c 0.9282,0.92699 2.06169,1.62235 3.30866,2.02966 l 4.33739,1.418 c 0.83905,0.27557 1.71651,0.41634 2.59966,0.41705 l 11.59418,0 c 1.26536,-9e-4 2.51398,-0.28929 3.65157,-0.84338 l 0.68583,-0.33364 0.68583,0.33364 c 1.13796,0.5525 2.38656,0.8393 3.65156,0.83876 l 17.43299,0 c 1.16191,-6.4e-4 2.31089,-0.24369 3.37353,-0.71363 l 2.13626,0.82483 c 0.95826,0.36832 1.97619,0.55685 3.00281,0.55609 l 7.3402,0 c 0.90929,-2.2e-4 1.81244,-0.149 2.67381,-0.44024 l 3.3179,-1.1214 c 1.41376,1.01241 3.10827,1.55834 4.84714,1.56164 l 14.59701,0 c 1.24865,-0.002 2.48059,-0.28699 3.60523,-0.82948 0.90336,0.32765 1.8565,0.49696 2.81745,0.50047 l 28.86034,0 c 1.28899,-0.005 2.55941,-0.30761 3.71181,-0.8851 1.33479,0.84598 2.88222,1.29589 4.46251,1.29753 l 28.10966,0 c 7.44047,-0.002 11.1652,-8.99784 5.90367,-14.25873 l -4.65714,-4.65251 -0.40315,-0.7924 0,-32.5629 c 5.52465,3.91193 13.16404,-0.0287 13.17901,-6.79803 l 0,-26.2746 c -10e-4,-4.61135 -3.73906,-8.34933 -8.35043,-8.35041 l -9.34208,0 c -0.69588,0.003 -1.38863,0.0936 -2.06211,0.26877 -1.52378,-1.35384 -3.48999,-2.10375 -5.52833,-2.10845 l -4.08715,0 c -1.7746,-3.9e-4 -3.5032,0.56445 -4.93518,1.61262 l -7.17801,5.25492 -2.65989,-2.74331 0.009,0.0232 c -1.57122,-1.63371 -3.73896,-2.55868 -6.00562,-2.56259 l -25.19023,0 c -0.60323,10e-4 -1.20452,0.0683 -1.79335,0.19927 l 0.051,-38.12829 c 0.002,-4.70704 -3.88156,-8.48714 -8.58674,-8.35505 -1.92857,0.0545 -3.77881,0.77491 -5.23639,2.03895 l -26.52483,23.02155 c -3.66369,3.17925 -3.85756,8.80025 -0.42169,12.22441 l 1.83968,1.83505 c 0.16513,0.15994 0.33667,0.31299 0.51437,0.45876 0.21235,0.1793 0.43352,0.34787 0.66266,0.50511 0.17794,0.11974 0.36027,0.23258 0.54681,0.33828 0.075,0.046 0.15066,0.0908 0.22706,0.13438 0.11744,0.06 0.23654,0.11713 0.35681,0.17146 0.1312,0.0668 0.26402,0.13018 0.39852,0.18999 0.12718,0.0495 0.2553,0.0958 0.38463,0.13902 0.1331,0.0498 0.2676,0.0961 0.40315,0.13902 0.15018,0.0428 0.30169,0.0815 0.45413,0.11585 0.10606,0.0283 0.21261,0.0546 0.31973,0.0788 l 0.63486,0.12512 0.49585,0.49584 0.31973,0.62558 0,4.26789 -8.79526,0.0463 c -0.80258,0.006 -1.6001,0.12781 -2.36796,0.36145 l 0,-0.34755 c -7.8e-4,-3.1753 -1.80197,-6.07553 -4.64787,-7.48386 l 0,-24.36077 c 2.09452,-0.67311 4.07326,-1.51608 5.87124,-2.46527 7.08187,-3.73868 12.70361,-8.87719 16.96495,-12.6322 0.27577,-0.2426 0.53728,-0.50099 0.78315,-0.77387 5.15977,-5.73787 8.4097,-12.03331 10.88519,-18.13271 4.5824,-1.06371 9.14311,-2.39189 13.65167,-4.11033 0.53063,-0.20224 1.03977,-0.45682 1.51993,-0.75998 6.08221,-3.84168 9.0773,-9.75944 8.05384,-16.733253 -0.074,-0.504639 -0.20378,-1.026882 -0.36144,-1.557014 0.55644,-2.10175 0.71237,-4.355874 0.36144,-6.747057 -0.074,-0.504638 -0.20378,-1.026881 -0.36144,-1.557013 0.55644,-2.101751 0.71237,-4.355874 0.36144,-6.747057 -0.074,-0.504639 -0.20378,-1.026882 -0.36144,-1.557014 0.55644,-2.10175 0.71237,-4.355874 0.36144,-6.747057 -0.074,-0.504638 -0.20378,-1.026881 -0.36144,-1.557013 0.55644,-2.101751 0.71237,-4.355874 0.36144,-6.747057 -0.074,-0.504639 -0.20378,-1.026882 -0.36144,-1.557014 0.55644,-2.10175 0.71237,-4.355874 0.36144,-6.747057 -0.074,-0.504638 -0.20378,-1.026881 -0.36144,-1.557013 0.55644,-2.101751 0.71237,-4.355874 0.36144,-6.747057 -0.074,-0.504639 -0.20378,-1.026882 -0.36144,-1.557014 0.55644,-2.10175 0.71237,-4.355874 0.36144,-6.747057 -0.10867,-0.739869 -0.32455,-1.518793 -0.61168,-2.303082 0.73968,-4.998932 -1.40904,-9.25286 -3.84156,-12.117826 -4.48185,-5.27867 -10.41326,-8.265802 -17.45615,-8.433822 -16.31477,-3.13999 -32.67124,-3.571923 -48.48985,-3.531083 z m -168.078649,159.79775 60.691079,0 c -0.2539,0.75868 -0.39747,1.5499 -0.42633,2.34942 l -0.0834,2.25211 c -0.0535,1.52225 0.31023,3.03015 1.05191,4.36056 l -5.02322,0.0324 c -3.32995,0.0216 -6.32893,2.01905 -7.63214,5.08346 l -2.96111,6.96949 -4.03155,-7.43752 c -2.10586,-3.88139 -6.869156,-5.45291 -10.871291,-3.58669 l -1.251169,0.58388 c -0.946138,0.44112 -1.801198,1.05569 -2.520879,1.81188 l -7.752628,8.15115 c -0.737088,-0.21004 -1.499582,-0.31763 -2.266012,-0.31974 l -16.92325,0 0,-20.25044 z m 26.44142,51.3629 3.299386,7.0807 -5.634905,13.26705 -25.023427,0 0,-13.90653 17.507132,0 c 2.231957,5.4e-4 4.371292,-0.89222 5.940747,-2.47918 l 3.911067,-3.96204 z"
       id="path6783-2"
       inkscape:connector-curvature="0" />
  </g>
</svg>
